<svg width="176" height="47" viewBox="0 0 176 47" fill="none" xmlns="http://www.w3.org/2000/svg">
<path d="M9.65772 5.53395C11.2954 5.46645 12.7695 6.51952 13.2353 8.08965L17.421 6.57053C16.3213 3.24806 13.0964 1.10245 9.60406 1.36978C4.57757 1.38765 1 5.3731 1 10.8777C1 16.3822 4.57757 20.3856 9.65772 20.3856C13.1279 20.6582 16.3347 18.5247 17.421 15.2206L13.289 13.7015C12.8165 15.2645 11.3441 16.309 9.71138 16.2393C7.15342 16.2393 5.75817 14.0589 5.75817 10.8777C5.75817 7.69646 7.09976 5.53395 9.65772 5.53395Z" fill="#78787A"/>
<path fill-rule="evenodd" clip-rule="evenodd" d="M30.7653 15.9355C30.7653 16.4181 30.9442 16.704 31.2483 16.704C31.5592 16.7346 31.873 16.7165 32.1784 16.6504V19.5278C31.1618 19.9307 30.0865 20.1661 28.9944 20.2248C27.9032 20.2248 27.1341 19.8674 26.9015 18.6878C25.6054 19.7158 24.012 20.2986 22.358 20.3499C21.2688 20.4389 20.1941 20.054 19.4095 19.294C18.6249 18.5341 18.2065 17.4728 18.2617 16.3823C18.2617 13.3977 20.6944 12.5756 22.4832 12.3433C22.7129 12.3123 22.9861 12.2861 23.281 12.2579C24.6855 12.1234 26.5795 11.942 26.5795 10.9671C26.5616 10.0735 25.9713 9.71609 24.9696 9.71609C23.9996 9.67472 23.1153 10.2685 22.7873 11.1816L19.335 9.89481C19.961 8.1791 21.0164 6.48126 25.1843 6.48126C29.3521 6.48126 30.7653 8.39357 30.7653 11.0386V15.9355ZM24.5402 17.4903C25.2591 17.3633 25.9459 17.0961 26.5615 16.704L26.5436 14.041C25.9687 14.2582 25.3669 14.3965 24.7548 14.4521C23.3596 14.5951 22.7514 15.1849 22.7514 16.2393C22.7514 17.2937 23.5742 17.6512 24.5402 17.4903Z" fill="#78787A"/>
<path d="M38.1187 8.60803C38.0475 8.02288 37.7441 7.49078 37.2766 7.13122C36.8091 6.77166 36.2167 6.61475 35.6323 6.69573C34.5401 6.7541 33.4648 6.9895 32.4482 7.39274V10.4488C32.7564 10.4006 33.0702 10.4006 33.3784 10.4488C33.6825 10.4488 33.8435 10.7348 33.8435 11.2173V19.9746H38.1545V11.8607C38.5946 11.1669 39.3379 10.7227 40.1579 10.6633C40.7748 10.63 41.3901 10.753 41.9467 11.0208L43.4314 7.10679C42.5531 6.49897 41.4488 6.31519 40.4207 6.6057C39.3926 6.89622 38.5483 7.63064 38.1187 8.60803Z" fill="#78787A"/>
<path fill-rule="evenodd" clip-rule="evenodd" d="M44.6723 8.50129C45.9337 7.18676 47.6887 6.46059 49.5109 6.49927C51.3087 6.4846 53.0308 7.2215 54.2607 8.53175C55.4906 9.84199 56.1162 11.6063 55.9863 13.3979L47.0424 15.4889C47.4657 16.4167 48.4451 16.9604 49.4572 16.8293C50.6953 16.8545 51.8345 16.1562 52.373 15.0421L55.8253 16.2931C54.7198 18.8212 52.2001 20.436 49.4394 20.3858C47.6144 20.422 45.8593 19.6849 44.6083 18.3567C43.3574 17.0286 42.7275 15.2335 42.8745 13.4157C42.7589 11.5984 43.411 9.81583 44.6723 8.50129ZM49.297 9.98422C47.8562 10.0655 46.7116 11.2246 46.6496 12.665L51.9623 11.4497C51.4927 10.4291 50.4112 9.83443 49.297 9.98422Z" fill="#78787A"/>
<path d="M68.9735 15.8286C68.1908 15.9909 67.3938 16.0748 66.5944 16.0788C63.9828 16.0788 62.033 14.2916 62.033 10.8602C62.033 7.42876 63.947 5.49858 66.6659 5.49858C68.1495 5.47278 69.562 6.13224 70.4939 7.28578L73.3381 4.31903C71.6505 2.35368 69.1675 1.2511 66.5765 1.31654C64.0287 1.26906 61.5788 2.29686 59.8287 4.14748C58.0786 5.9981 57.1903 8.50009 57.3822 11.0389C57.2163 13.5336 58.1234 15.9804 59.8756 17.7653C61.6279 19.5501 64.059 20.5035 66.5586 20.386C69.0687 20.4431 71.5275 19.6703 73.5528 18.1877V11.4142H68.9735V15.8107V15.8286Z" fill="#78787A"/>
<path d="M88.2918 16.5252C87.9877 16.5252 87.8267 16.2393 87.8267 15.7567V6.9101H83.5158V15.5065C82.9077 16.0571 82.1338 16.3903 81.3156 16.4537C79.3121 16.4537 79.1332 14.9882 79.1332 13.2547V6.9101H74.8223V15.4886C74.8223 18.9022 76.8257 20.3856 79.0438 20.3856C80.7843 20.354 82.4321 19.5956 83.5873 18.2946C83.645 18.8753 83.937 19.4075 84.3961 19.7683C84.8551 20.1292 85.4416 20.2875 86.0201 20.2069C87.1122 20.1482 88.1875 19.9128 89.2041 19.5098V16.4001C88.9083 16.4887 88.6006 16.5309 88.2918 16.5252Z" fill="#78787A"/>
<path d="M93.1225 6.67818C92.0304 6.73654 90.955 6.97195 89.9385 7.37518V10.4313C90.2467 10.3831 90.5605 10.3831 90.8686 10.4313C91.1727 10.4313 91.3337 10.7172 91.3337 11.1998V19.9749H95.6447V9.25174C95.7521 8.55145 95.5233 7.8415 95.0272 7.3353C94.5311 6.8291 93.8255 6.58567 93.1225 6.67818Z" fill="#78787A"/>
<path fill-rule="evenodd" clip-rule="evenodd" d="M110.832 15.8104C110.832 16.293 110.993 16.5789 111.297 16.5789C111.596 16.6058 111.898 16.5877 112.191 16.5253V19.5993C111.175 20.0025 110.099 20.2379 109.007 20.2963C108.503 20.347 108 20.1813 107.625 19.8405C107.25 19.4997 107.037 19.0157 107.04 18.5091C105.991 19.6499 104.511 20.2983 102.961 20.2963C99.3836 20.2963 96.9688 17.2044 96.9688 13.3441C96.9688 9.48374 99.473 6.40976 103.051 6.40976C104.331 6.4 105.572 6.85755 106.539 7.69654V0.762207H110.832V15.8104ZM103.568 16.4001C105.013 16.5403 106.316 15.5284 106.537 14.0946L106.52 11.7891C105.849 10.774 104.731 10.1424 103.514 10.0913C101.904 10.0913 100.903 11.1636 100.903 13.2189C100.903 15.2742 101.904 16.4001 103.568 16.4001Z" fill="#78787A"/>
<path fill-rule="evenodd" clip-rule="evenodd" d="M117.038 15.4889C117.461 16.4167 118.441 16.9603 119.453 16.8293C120.682 16.8372 121.805 16.1335 122.333 15.0242L125.785 16.2752C124.68 18.8033 122.16 20.4181 119.399 20.3679C117.574 20.4042 115.819 19.667 114.568 18.3389C113.317 17.0107 112.687 15.2157 112.834 13.3979C112.719 11.5805 113.371 9.79795 114.632 8.48341C115.894 7.16887 117.649 6.44271 119.471 6.48139C121.278 6.45622 123.013 7.19113 124.251 8.50661C125.49 9.82209 126.118 11.597 125.982 13.3979L117.038 15.4889ZM121.922 11.4318C121.452 10.4111 120.371 9.81647 119.257 9.96625C117.83 10.0746 116.713 11.2367 116.663 12.6649L121.922 11.4318Z" fill="#78787A"/>
<path d="M94.3917 0.0474147C93.8623 0.0453484 93.3691 0.315389 93.0859 0.762294C92.6841 0.0745837 91.823 -0.19257 91.1019 0.146731C90.3809 0.486032 90.0386 1.3194 90.3133 2.06695C90.7426 3.55032 93.0144 5.1588 93.0859 5.19455C93.0859 5.19455 95.4292 3.53245 95.8585 2.06695C96.0139 1.59745 95.9337 1.08192 95.643 0.681688C95.3523 0.281456 94.8867 0.0454106 94.3917 0.0474147Z" fill="#78787A"/>
<path d="M3.49658 34H2.5835V26.9585H0.0966797V26.1475H5.9834V26.9585H3.49658V34ZM11.0645 34V30.1919C11.0645 29.7121 10.9552 29.354 10.7368 29.1177C10.5184 28.8813 10.1764 28.7632 9.71094 28.7632C9.09147 28.7632 8.63851 28.9315 8.35205 29.2681C8.06917 29.6047 7.92773 30.1561 7.92773 30.9224V34H7.03613V25.6426H7.92773V28.1724C7.92773 28.4767 7.91341 28.7292 7.88477 28.9297H7.93848C8.11393 28.6468 8.36279 28.4248 8.68506 28.2637C9.0109 28.099 9.38151 28.0166 9.79688 28.0166C10.5166 28.0166 11.0555 28.1885 11.4136 28.5322C11.7752 28.8724 11.9561 29.4149 11.9561 30.1597V34H11.0645ZM14.6846 34H13.793V28.1133H14.6846V34ZM13.7178 26.5181C13.7178 26.314 13.7679 26.1654 13.8682 26.0723C13.9684 25.9756 14.0938 25.9272 14.2441 25.9272C14.3874 25.9272 14.5109 25.9756 14.6147 26.0723C14.7186 26.1689 14.7705 26.3175 14.7705 26.5181C14.7705 26.7186 14.7186 26.869 14.6147 26.9692C14.5109 27.0659 14.3874 27.1143 14.2441 27.1143C14.0938 27.1143 13.9684 27.0659 13.8682 26.9692C13.7679 26.869 13.7178 26.7186 13.7178 26.5181ZM20.3726 32.394C20.3726 32.9419 20.1685 33.3644 19.7603 33.6616C19.3521 33.9588 18.7791 34.1074 18.0415 34.1074C17.2609 34.1074 16.6522 33.9839 16.2153 33.7368V32.9097C16.4982 33.0529 16.8008 33.1657 17.123 33.248C17.4489 33.3304 17.7622 33.3716 18.063 33.3716C18.5285 33.3716 18.8866 33.2982 19.1372 33.1514C19.3879 33.001 19.5132 32.7736 19.5132 32.4692C19.5132 32.2401 19.4129 32.0449 19.2124 31.8838C19.0155 31.7191 18.6287 31.5257 18.0522 31.3037C17.5044 31.0996 17.1141 30.9224 16.8813 30.772C16.6522 30.618 16.4803 30.4443 16.3657 30.251C16.2547 30.0576 16.1992 29.8267 16.1992 29.5581C16.1992 29.0783 16.3944 28.7005 16.7847 28.4248C17.175 28.1455 17.7103 28.0059 18.3906 28.0059C19.0244 28.0059 19.6439 28.1348 20.249 28.3926L19.9321 29.1177C19.3413 28.8742 18.806 28.7524 18.3262 28.7524C17.9036 28.7524 17.585 28.8187 17.3701 28.9512C17.1553 29.0837 17.0479 29.2663 17.0479 29.499C17.0479 29.6566 17.0872 29.7909 17.166 29.9019C17.2484 30.0129 17.3791 30.1185 17.5581 30.2188C17.7371 30.319 18.0809 30.464 18.5894 30.6538C19.2876 30.908 19.7585 31.1641 20.002 31.4219C20.249 31.6797 20.3726 32.0037 20.3726 32.394ZM25.5771 34H24.6855V28.1133H25.5771V34ZM24.6104 26.5181C24.6104 26.314 24.6605 26.1654 24.7607 26.0723C24.861 25.9756 24.9863 25.9272 25.1367 25.9272C25.2799 25.9272 25.4035 25.9756 25.5073 26.0723C25.6112 26.1689 25.6631 26.3175 25.6631 26.5181C25.6631 26.7186 25.6112 26.869 25.5073 26.9692C25.4035 27.0659 25.2799 27.1143 25.1367 27.1143C24.9863 27.1143 24.861 27.0659 24.7607 26.9692C24.6605 26.869 24.6104 26.7186 24.6104 26.5181ZM31.2651 32.394C31.2651 32.9419 31.061 33.3644 30.6528 33.6616C30.2446 33.9588 29.6717 34.1074 28.9341 34.1074C28.1535 34.1074 27.5448 33.9839 27.1079 33.7368V32.9097C27.3908 33.0529 27.6934 33.1657 28.0156 33.248C28.3415 33.3304 28.6548 33.3716 28.9556 33.3716C29.4211 33.3716 29.7791 33.2982 30.0298 33.1514C30.2804 33.001 30.4058 32.7736 30.4058 32.4692C30.4058 32.2401 30.3055 32.0449 30.105 31.8838C29.908 31.7191 29.5213 31.5257 28.9448 31.3037C28.397 31.0996 28.0067 30.9224 27.7739 30.772C27.5448 30.618 27.3729 30.4443 27.2583 30.251C27.1473 30.0576 27.0918 29.8267 27.0918 29.5581C27.0918 29.0783 27.2869 28.7005 27.6772 28.4248C28.0675 28.1455 28.6029 28.0059 29.2832 28.0059C29.917 28.0059 30.5365 28.1348 31.1416 28.3926L30.8247 29.1177C30.2339 28.8742 29.6986 28.7524 29.2188 28.7524C28.7962 28.7524 28.4775 28.8187 28.2627 28.9512C28.0479 29.0837 27.9404 29.2663 27.9404 29.499C27.9404 29.6566 27.9798 29.7909 28.0586 29.9019C28.141 30.0129 28.2716 30.1185 28.4507 30.2188C28.6297 30.319 28.9735 30.464 29.4819 30.6538C30.1802 30.908 30.651 31.1641 30.8945 31.4219C31.1416 31.6797 31.2651 32.0037 31.2651 32.394ZM40.3853 34L39.3057 30.5464C39.2376 30.3351 39.1105 29.8553 38.9243 29.1069H38.8813C38.7381 29.7336 38.6128 30.217 38.5054 30.5571L37.3936 34H36.3623L34.7563 28.1133H35.6909C36.0705 29.5921 36.3587 30.7183 36.5557 31.4917C36.7562 32.2651 36.8708 32.7861 36.8994 33.0547H36.9424C36.9818 32.8506 37.0444 32.5874 37.1304 32.2651C37.2199 31.9393 37.2969 31.6815 37.3613 31.4917L38.4409 28.1133H39.4077L40.4604 31.4917C40.661 32.1076 40.797 32.625 40.8687 33.0439H40.9116C40.9259 32.915 40.9635 32.7163 41.0244 32.4478C41.0889 32.1792 41.4631 30.7344 42.147 28.1133H43.0708L41.4434 34H40.3853ZM48.168 34V30.1919C48.168 29.7121 48.0588 29.354 47.8403 29.1177C47.6219 28.8813 47.2799 28.7632 46.8145 28.7632C46.195 28.7632 45.742 28.9315 45.4556 29.2681C45.1727 29.6047 45.0312 30.1561 45.0312 30.9224V34H44.1396V25.6426H45.0312V28.1724C45.0312 28.4767 45.0169 28.7292 44.9883 28.9297H45.042C45.2174 28.6468 45.4663 28.4248 45.7886 28.2637C46.1144 28.099 46.485 28.0166 46.9004 28.0166C47.6201 28.0166 48.159 28.1885 48.5171 28.5322C48.8787 28.8724 49.0596 29.4149 49.0596 30.1597V34H48.168ZM54.1666 34L53.9894 33.1621H53.9464C53.6528 33.5309 53.3591 33.7816 53.0655 33.9141C52.7755 34.043 52.412 34.1074 51.9752 34.1074C51.3915 34.1074 50.9332 33.957 50.6002 33.6562C50.2708 33.3555 50.1061 32.9276 50.1061 32.3726C50.1061 31.1838 51.0567 30.5607 52.9581 30.5034L53.9571 30.4712V30.106C53.9571 29.644 53.8569 29.3039 53.6563 29.0854C53.4594 28.8634 53.1425 28.7524 52.7057 28.7524C52.2151 28.7524 51.6601 28.9028 51.0406 29.2036L50.7667 28.5215C51.0567 28.3639 51.3736 28.2404 51.7174 28.1509C52.0647 28.0614 52.412 28.0166 52.7594 28.0166C53.4612 28.0166 53.9804 28.1724 54.317 28.4839C54.6572 28.7954 54.8272 29.2949 54.8272 29.9824V34H54.1666ZM52.1524 33.3716C52.7075 33.3716 53.1425 33.2194 53.4576 32.915C53.7763 32.6107 53.9356 32.1846 53.9356 31.6367V31.105L53.044 31.1426C52.3351 31.1676 51.823 31.2786 51.5079 31.4756C51.1964 31.6689 51.0406 31.9715 51.0406 32.3833C51.0406 32.7056 51.1373 32.9508 51.3307 33.1191C51.5276 33.2874 51.8015 33.3716 52.1524 33.3716ZM58.5709 33.3716C58.7285 33.3716 58.8806 33.3608 59.0274 33.3394C59.1743 33.3143 59.2906 33.2892 59.3766 33.2642V33.9463C59.2799 33.9928 59.1367 34.0304 58.9469 34.0591C58.7607 34.0913 58.5924 34.1074 58.442 34.1074C57.3033 34.1074 56.734 33.5076 56.734 32.3081V28.8062H55.8907V28.3765L56.734 28.0059L57.11 26.749H57.6256V28.1133H59.3336V28.8062H57.6256V32.2705C57.6256 32.625 57.7097 32.8971 57.878 33.0869C58.0463 33.2767 58.2773 33.3716 58.5709 33.3716ZM65.7682 34.1074C64.916 34.1074 64.2553 33.846 63.7862 33.3232C63.3207 32.7969 63.088 32.0539 63.088 31.0942C63.088 30.1095 63.3243 29.3486 63.797 28.8115C64.2732 28.2744 64.95 28.0059 65.8272 28.0059C66.1101 28.0059 66.393 28.0363 66.6759 28.0972C66.9588 28.158 67.1808 28.2297 67.3419 28.312L67.068 29.0693C66.871 28.9906 66.6562 28.9261 66.4234 28.876C66.1907 28.8223 65.9848 28.7954 65.8058 28.7954C64.6098 28.7954 64.0118 29.5581 64.0118 31.0835C64.0118 31.8068 64.1568 32.3618 64.4469 32.7485C64.7405 33.1353 65.1738 33.3286 65.7467 33.3286C66.2372 33.3286 66.7403 33.223 67.256 33.0117V33.8013C66.8621 34.0054 66.3661 34.1074 65.7682 34.1074ZM72.2779 34L72.1007 33.1621H72.0577C71.7641 33.5309 71.4705 33.7816 71.1769 33.9141C70.8868 34.043 70.5234 34.1074 70.0865 34.1074C69.5029 34.1074 69.0445 33.957 68.7115 33.6562C68.3821 33.3555 68.2174 32.9276 68.2174 32.3726C68.2174 31.1838 69.1681 30.5607 71.0694 30.5034L72.0685 30.4712V30.106C72.0685 29.644 71.9682 29.3039 71.7677 29.0854C71.5707 28.8634 71.2538 28.7524 70.817 28.7524C70.3264 28.7524 69.7714 28.9028 69.152 29.2036L68.878 28.5215C69.1681 28.3639 69.485 28.2404 69.8287 28.1509C70.176 28.0614 70.5234 28.0166 70.8707 28.0166C71.5725 28.0166 72.0917 28.1724 72.4283 28.4839C72.7685 28.7954 72.9386 29.2949 72.9386 29.9824V34H72.2779ZM70.2638 33.3716C70.8188 33.3716 71.2538 33.2194 71.5689 32.915C71.8876 32.6107 72.047 32.1846 72.047 31.6367V31.105L71.1554 31.1426C70.4464 31.1676 69.9343 31.2786 69.6192 31.4756C69.3077 31.6689 69.152 31.9715 69.152 32.3833C69.152 32.7056 69.2486 32.9508 69.442 33.1191C69.6389 33.2874 69.9129 33.3716 70.2638 33.3716ZM76.9664 28.0059C77.2278 28.0059 77.4623 28.0273 77.67 28.0703L77.5465 28.8975C77.303 28.8438 77.0882 28.8169 76.902 28.8169C76.4257 28.8169 76.0175 29.0103 75.6773 29.397C75.3408 29.7837 75.1725 30.2653 75.1725 30.8418V34H74.2809V28.1133H75.0167L75.1188 29.2036H75.1617C75.3801 28.8205 75.6433 28.5251 75.9513 28.3174C76.2592 28.1097 76.5976 28.0059 76.9664 28.0059ZM81.0079 34.1074C80.1378 34.1074 79.4503 33.8424 78.9454 33.3125C78.4441 32.7826 78.1935 32.0467 78.1935 31.105C78.1935 30.1561 78.4262 29.4023 78.8917 28.8438C79.3608 28.2852 79.9892 28.0059 80.777 28.0059C81.5146 28.0059 82.0982 28.2493 82.5279 28.7363C82.9576 29.2197 83.1725 29.8589 83.1725 30.6538V31.2178H79.1173C79.1352 31.9089 79.3089 32.4334 79.6383 32.7915C79.9713 33.1496 80.4386 33.3286 81.0401 33.3286C81.6739 33.3286 82.3006 33.1961 82.92 32.9312V33.7261C82.6049 33.8621 82.3059 33.9588 82.023 34.0161C81.7438 34.077 81.4054 34.1074 81.0079 34.1074ZM80.7662 28.7524C80.2936 28.7524 79.9158 28.9064 79.6329 29.2144C79.3536 29.5223 79.1889 29.9484 79.1388 30.4927H82.2164C82.2164 29.9305 82.0911 29.5008 81.8404 29.2036C81.5898 28.9028 81.2317 28.7524 80.7662 28.7524ZM88.4469 34H87.5553V25.6426H88.4469V34ZM95.4186 31.0513C95.4186 32.0109 95.1769 32.7611 94.6935 33.3018C94.2101 33.8389 93.5423 34.1074 92.69 34.1074C92.1637 34.1074 91.6964 33.9839 91.2882 33.7368C90.88 33.4897 90.5649 33.1353 90.3429 32.6733C90.1209 32.2114 90.0099 31.6707 90.0099 31.0513C90.0099 30.0916 90.2498 29.3451 90.7296 28.8115C91.2094 28.2744 91.8754 28.0059 92.7276 28.0059C93.5512 28.0059 94.2047 28.2798 94.6881 28.8276C95.1751 29.3755 95.4186 30.1167 95.4186 31.0513ZM90.9337 31.0513C90.9337 31.8032 91.0841 32.3761 91.3849 32.77C91.6856 33.1639 92.1279 33.3608 92.7115 33.3608C93.2952 33.3608 93.7374 33.1657 94.0382 32.7754C94.3425 32.3815 94.4947 31.8068 94.4947 31.0513C94.4947 30.3029 94.3425 29.7354 94.0382 29.3486C93.7374 28.9583 93.2916 28.7632 92.7008 28.7632C92.1171 28.7632 91.6767 28.9548 91.3795 29.3379C91.0823 29.721 90.9337 30.2922 90.9337 31.0513ZM102.068 31.0513C102.068 32.0109 101.826 32.7611 101.343 33.3018C100.859 33.8389 100.192 34.1074 99.3395 34.1074C98.8131 34.1074 98.3458 33.9839 97.9376 33.7368C97.5294 33.4897 97.2143 33.1353 96.9923 32.6733C96.7703 32.2114 96.6593 31.6707 96.6593 31.0513C96.6593 30.0916 96.8992 29.3451 97.379 28.8115C97.8588 28.2744 98.5248 28.0059 99.3771 28.0059C100.201 28.0059 100.854 28.2798 101.338 28.8276C101.824 29.3755 102.068 30.1167 102.068 31.0513ZM97.5831 31.0513C97.5831 31.8032 97.7335 32.3761 98.0343 32.77C98.3351 33.1639 98.7773 33.3608 99.3609 33.3608C99.9446 33.3608 100.387 33.1657 100.688 32.7754C100.992 32.3815 101.144 31.8068 101.144 31.0513C101.144 30.3029 100.992 29.7354 100.688 29.3486C100.387 28.9583 99.941 28.7632 99.3502 28.7632C98.7665 28.7632 98.3261 28.9548 98.0289 29.3379C97.7317 29.721 97.5831 30.2922 97.5831 31.0513ZM104.267 30.9868C104.421 30.7684 104.656 30.4819 104.971 30.1274L106.872 28.1133H107.93L105.546 30.6216L108.097 34H107.017L104.939 31.2178L104.267 31.7979V34H103.386V25.6426H104.267V30.0737C104.267 30.2707 104.253 30.575 104.224 30.9868H104.267ZM112.963 32.394C112.963 32.9419 112.759 33.3644 112.351 33.6616C111.942 33.9588 111.37 34.1074 110.632 34.1074C109.851 34.1074 109.243 33.9839 108.806 33.7368V32.9097C109.089 33.0529 109.391 33.1657 109.713 33.248C110.039 33.3304 110.353 33.3716 110.653 33.3716C111.119 33.3716 111.477 33.2982 111.728 33.1514C111.978 33.001 112.104 32.7736 112.104 32.4692C112.104 32.2401 112.003 32.0449 111.803 31.8838C111.606 31.7191 111.219 31.5257 110.643 31.3037C110.095 31.0996 109.705 30.9224 109.472 30.772C109.243 30.618 109.071 30.4443 108.956 30.251C108.845 30.0576 108.79 29.8267 108.79 29.5581C108.79 29.0783 108.985 28.7005 109.375 28.4248C109.765 28.1455 110.301 28.0059 110.981 28.0059C111.615 28.0059 112.234 28.1348 112.839 28.3926L112.523 29.1177C111.932 28.8742 111.396 28.7524 110.917 28.7524C110.494 28.7524 110.175 28.8187 109.961 28.9512C109.746 29.0837 109.638 29.2663 109.638 29.499C109.638 29.6566 109.678 29.7909 109.756 29.9019C109.839 30.0129 109.97 30.1185 110.149 30.2188C110.328 30.319 110.671 30.464 111.18 30.6538C111.878 30.908 112.349 31.1641 112.592 31.4219C112.839 31.6797 112.963 32.0037 112.963 32.394ZM118.168 34H117.276V25.6426H118.168V34ZM120.95 34H120.058V28.1133H120.95V34ZM119.983 26.5181C119.983 26.314 120.033 26.1654 120.133 26.0723C120.234 25.9756 120.359 25.9272 120.509 25.9272C120.653 25.9272 120.776 25.9756 120.88 26.0723C120.984 26.1689 121.036 26.3175 121.036 26.5181C121.036 26.7186 120.984 26.869 120.88 26.9692C120.776 27.0659 120.653 27.1143 120.509 27.1143C120.359 27.1143 120.234 27.0659 120.133 26.9692C120.033 26.869 119.983 26.7186 119.983 26.5181ZM123.721 30.9868C123.875 30.7684 124.11 30.4819 124.425 30.1274L126.326 28.1133H127.384L125 30.6216L127.551 34H126.471L124.393 31.2178L123.721 31.7979V34H122.84V25.6426H123.721V30.0737C123.721 30.2707 123.707 30.575 123.678 30.9868H123.721ZM131.107 34.1074C130.236 34.1074 129.549 33.8424 129.044 33.3125C128.543 32.7826 128.292 32.0467 128.292 31.105C128.292 30.1561 128.525 29.4023 128.99 28.8438C129.459 28.2852 130.088 28.0059 130.876 28.0059C131.613 28.0059 132.197 28.2493 132.627 28.7363C133.056 29.2197 133.271 29.8589 133.271 30.6538V31.2178H129.216C129.234 31.9089 129.407 32.4334 129.737 32.7915C130.07 33.1496 130.537 33.3286 131.139 33.3286C131.773 33.3286 132.399 33.1961 133.019 32.9312V33.7261C132.704 33.8621 132.405 33.9588 132.122 34.0161C131.842 34.077 131.504 34.1074 131.107 34.1074ZM130.865 28.7524C130.392 28.7524 130.014 28.9064 129.732 29.2144C129.452 29.5223 129.288 29.9484 129.237 30.4927H132.315C132.315 29.9305 132.19 29.5008 131.939 29.2036C131.688 28.9028 131.33 28.7524 130.865 28.7524Z" fill="#78787A"/>
</svg>
