<svg width="152" height="50" viewBox="0 0 152 50" fill="none" xmlns="http://www.w3.org/2000/svg">
<path fill-rule="evenodd" clip-rule="evenodd" d="M20.5282 0C25.0391 0 29.5174 0 34.0692 0C38.3351 0 40.8602 2.61475 40.8602 6.95902C40.8602 14.2541 40.8602 21.5464 40.8602 28.8361C40.9766 39.159 33.2678 47.8873 23.037 49.0164C11.4409 50.459 2.25548 42.3443 0.563871 33.2459C0.229705 31.5825 0.0410314 29.893 0 28.1967C0 21.3115 0 14.459 0 7.59836C0 2.45902 2.45161 0 7.53462 0H20.5282Z" fill="#F47E47"/>
<path d="M120.815 38.0656C120.177 38.0655 119.658 37.5477 119.655 36.907C119.652 36.2664 120.166 35.7438 120.805 35.7378C121.443 35.7318 121.967 36.2446 121.976 36.8852C121.976 37.5308 121.459 38.0566 120.815 38.0656Z" fill="#F47E47"/>
<path d="M129.821 37.1967C129.121 37.8071 128.214 38.124 127.288 38.082C126.182 38.1176 125.112 37.688 124.336 36.8972C123.56 36.1064 123.149 35.0263 123.202 33.918C123.153 32.8125 123.567 31.7368 124.342 30.9497C125.118 30.1625 126.185 29.7352 127.288 29.7705C128.292 29.6951 129.275 30.0882 129.952 30.8361C130.031 30.9392 130.071 31.0668 130.066 31.1967C130.032 31.6236 129.676 31.9522 129.249 31.9508C129.067 31.9544 128.888 31.8967 128.742 31.7869C128.349 31.4834 127.866 31.3217 127.369 31.3279C126.702 31.3226 126.063 31.6013 125.611 32.095C125.159 32.5886 124.937 33.251 125 33.918C124.937 34.5866 125.159 35.2505 125.61 35.7466C126.061 36.2427 126.7 36.5252 127.369 36.5246C127.868 36.528 128.352 36.3603 128.742 36.0492C128.888 35.9393 129.067 35.8816 129.249 35.8852C129.682 35.8845 130.04 36.2224 130.066 36.6557C130.074 36.8647 129.983 37.0652 129.821 37.1967Z" fill="#F47E47"/>
<path fill-rule="evenodd" clip-rule="evenodd" d="M131.881 36.9027C132.658 37.6947 133.732 38.1226 134.839 38.082C135.945 38.1201 137.017 37.6914 137.793 36.9C138.57 36.1086 138.98 35.027 138.925 33.918C138.925 32.4538 138.146 31.1008 136.882 30.3687C135.618 29.6366 134.06 29.6366 132.796 30.3687C131.531 31.1008 130.753 32.4538 130.753 33.918C130.695 35.0277 131.104 36.1108 131.881 36.9027ZM132.583 33.918C132.583 32.541 133.384 31.3279 134.839 31.3279C136.261 31.3279 137.078 32.5246 137.078 33.918C137.078 35.3115 136.277 36.5246 134.839 36.5246C133.4 36.5246 132.583 35.2951 132.583 33.918Z" fill="#F47E47"/>
<path d="M150.578 37.9836C150.102 37.9792 149.716 37.5928 149.712 37.1148V32.7377C149.712 31.918 149.352 31.3279 148.437 31.3279C147.707 31.3759 147.038 31.7564 146.623 32.3607V37.1148C146.621 37.3474 146.526 37.5696 146.361 37.7325C146.195 37.8955 145.972 37.9858 145.74 37.9836C145.51 37.9858 145.288 37.895 145.125 37.7316C144.962 37.5681 144.872 37.3459 144.874 37.1148V32.7377C144.874 31.918 144.498 31.3279 143.583 31.3279C142.854 31.3786 142.189 31.7663 141.785 32.377V37.1148C141.783 37.3474 141.689 37.5696 141.523 37.7325C141.358 37.8955 141.134 37.9858 140.902 37.9836C140.672 37.9858 140.45 37.895 140.287 37.7316C140.124 37.5681 140.034 37.3459 140.036 37.1148V30.7213C140.036 30.2369 140.428 29.8443 140.911 29.8443C141.393 29.8443 141.785 30.2369 141.785 30.7213V31.0492C142.411 30.2655 143.35 29.7978 144.351 29.7705C145.324 29.6818 146.225 30.2914 146.508 31.2295C147.12 30.3352 148.124 29.7919 149.205 29.7705C150.643 29.7705 151.477 30.5902 151.477 32.1639V37.082C151.481 37.3224 151.388 37.5544 151.219 37.7245C151.049 37.8946 150.818 37.9881 150.578 37.9836Z" fill="#F47E47"/>
<path d="M57.4168 37.8852H51.8434C51.1954 37.8808 50.6711 37.3549 50.6667 36.7049V28.1311C50.6711 27.4811 51.1954 26.9553 51.8434 26.9508H57.4168C57.8907 26.9508 58.2748 27.3361 58.2748 27.8115C58.2748 28.2868 57.8907 28.6721 57.4168 28.6721H52.6116V31.459H57.3024C57.7763 31.459 58.1604 31.8443 58.1604 32.3197C58.1604 32.795 57.7763 33.1803 57.3024 33.1803H52.6116V36.1639H57.4168C57.8681 36.1639 58.234 36.5309 58.234 36.9836C58.2572 37.2148 58.1814 37.445 58.0256 37.617C57.8697 37.7889 57.6484 37.8864 57.4168 37.8852Z" fill="#F47E47"/>
<path d="M60.7673 37.9836C60.5369 37.9858 60.3153 37.895 60.1524 37.7316C59.9894 37.5681 59.8989 37.3459 59.9011 37.1148V27.7049C59.9011 27.2205 60.2926 26.8279 60.7755 26.8279C61.2584 26.8279 61.6499 27.2205 61.6499 27.7049V37.1148C61.6477 37.3474 61.5535 37.5696 61.388 37.7325C61.2225 37.8955 60.9992 37.9858 60.7673 37.9836Z" fill="#F47E47"/>
<path fill-rule="evenodd" clip-rule="evenodd" d="M69.2315 37.7316C69.3944 37.895 69.616 37.9858 69.8465 37.9836C70.0784 37.9858 70.3016 37.8955 70.4672 37.7325C70.6327 37.5696 70.7269 37.3474 70.729 37.1148V27.7213C70.729 27.2369 70.3375 26.8443 69.8546 26.8443C69.3717 26.8443 68.9802 27.2369 68.9802 27.7213V31.0492C68.3809 30.2498 67.444 29.7769 66.4469 29.7705C64.4202 29.7705 62.9492 31.3279 62.9492 33.9344C62.9492 36.541 64.4366 38.082 66.4469 38.082C67.4449 38.0794 68.3835 37.6057 68.9802 36.8033V37.1148C68.978 37.3459 69.0686 37.5681 69.2315 37.7316ZM66.9536 31.3279C67.7561 31.3382 68.507 31.7269 68.9802 32.377V35.4918C68.5002 36.1318 67.752 36.5131 66.9536 36.5246C65.6133 36.5246 64.7471 35.459 64.7471 33.9344C64.7471 32.4098 65.6133 31.3279 66.9536 31.3279Z" fill="#F47E47"/>
<path fill-rule="evenodd" clip-rule="evenodd" d="M73.72 34.4918H78.9174C79.1516 34.502 79.3789 34.4108 79.5414 34.2415C79.704 34.0721 79.7863 33.8409 79.7673 33.6066C79.7376 33.2589 79.6606 32.9169 79.5385 32.5902C79.1246 30.9009 77.5948 29.7279 75.8611 29.7705C73.5728 29.8067 71.7471 31.6967 71.7832 33.9918C71.8193 36.287 73.7036 38.1182 75.9918 38.082C77.0052 38.082 79.0318 37.6721 79.0318 36.7705C79.0295 36.5102 78.8891 36.2708 78.6634 36.1424C78.4376 36.0139 78.1607 36.0159 77.9368 36.1475C77.4079 36.4823 76.797 36.6639 76.1716 36.6721C74.9045 36.7203 73.824 35.7594 73.72 34.4918ZM73.7037 33.3115C73.752 32.135 74.7198 31.2077 75.8938 31.2131V31.1475C76.4763 31.1223 77.043 31.341 77.4584 31.7514C77.8737 32.1618 78.1003 32.7269 78.0839 33.3115H73.7037Z" fill="#F47E47"/>
<path d="M84.5561 31.541C83.8434 31.5795 83.1846 31.9339 82.7583 32.5082V37.1148C82.7539 37.5928 82.3686 37.9792 81.8921 37.9836C81.431 37.9616 81.0699 37.5777 81.0748 37.1148V30.7213C81.0748 30.2369 81.4663 29.8443 81.9493 29.8443C82.4322 29.8443 82.8237 30.2369 82.8237 30.7213V31.1475C83.2206 30.4567 83.9152 29.9902 84.7032 29.8852C84.9074 29.8736 85.1071 29.9487 85.2533 30.0922C85.3995 30.2357 85.4786 30.4343 85.4714 30.6393C85.4714 30.8813 85.3745 31.1132 85.2024 31.2828C85.0302 31.4523 84.7974 31.5454 84.5561 31.541Z" fill="#F47E47"/>
<path d="M95.9643 28.4754C96.0957 28.6383 96.1703 28.8398 96.1768 29.0492C96.1725 29.2927 96.0719 29.5245 95.8972 29.6936C95.7225 29.8627 95.4879 29.9552 95.2452 29.9508C94.9778 29.9501 94.7229 29.8372 94.5424 29.6393C93.9257 28.9258 93.0322 28.5135 92.0908 28.5082C91.0682 28.4998 90.0878 28.9161 89.382 29.6582C88.6762 30.4003 88.3078 31.4022 88.3643 32.4262C88.3103 33.4497 88.6794 34.4501 89.3847 35.1917C90.09 35.9332 91.069 36.3502 92.0908 36.3443C93.0313 36.3507 93.9273 35.9432 94.5424 35.2295C94.7318 35.0347 94.9902 34.9228 95.2615 34.918C95.4978 34.9158 95.7252 35.0079 95.8938 35.1739C96.0624 35.3399 96.1583 35.5663 96.1604 35.8033C96.1605 36.0111 96.0915 36.213 95.9643 36.377C95.0038 37.4944 93.5939 38.1203 92.1234 38.082C89.0093 38.082 86.4847 35.5498 86.4847 32.4262C86.4847 29.3027 89.0093 26.7705 92.1234 26.7705C93.5939 26.7322 95.0038 27.358 95.9643 28.4754Z" fill="#F47E47"/>
<path fill-rule="evenodd" clip-rule="evenodd" d="M103.434 37.9836H103.532C103.982 37.9454 104.33 37.5686 104.332 37.1148V32.6393C104.332 30.5082 102.812 29.7705 101.064 29.7705C100.067 29.7705 98.612 30.0656 97.991 30.8852C97.9068 30.9928 97.8608 31.1255 97.8602 31.2623C97.8602 31.4449 97.9325 31.62 98.0613 31.7492C98.19 31.8783 98.3646 31.9508 98.5467 31.9508C98.675 31.9479 98.7998 31.9081 98.9062 31.8361C99.448 31.4298 100.109 31.2163 100.786 31.2295C101.865 31.2295 102.616 31.7869 102.616 32.6885V33.8852C101.96 33.1923 101.035 32.8211 100.083 32.8689C99.3686 32.8114 98.6629 33.0573 98.1377 33.5466C97.6126 34.0359 97.3163 34.7237 97.3209 35.4426C97.3268 36.1623 97.6245 36.8486 98.1456 37.3435C98.6667 37.8383 99.3662 38.099 100.083 38.0656C101.04 38.105 101.966 37.7215 102.616 37.0164V37.1639C102.616 37.6166 102.982 37.9836 103.434 37.9836ZM100.786 34.0656C101.5 34.0341 102.188 34.3369 102.649 34.8852V36.0164C102.192 36.5699 101.501 36.874 100.786 36.8361C100.23 36.9415 99.6659 36.7029 99.3533 36.2304C99.0407 35.758 99.0407 35.1437 99.3533 34.6712C99.6659 34.1987 100.23 33.9601 100.786 34.0656Z" fill="#F47E47"/>
<path d="M109.456 31.541C108.744 31.5795 108.085 31.9339 107.658 32.5082V37.1148C107.654 37.5928 107.269 37.9792 106.792 37.9836C106.331 37.9616 105.97 37.5777 105.975 37.1148V30.7213C105.975 30.2369 106.367 29.8443 106.849 29.8443C107.332 29.8443 107.724 30.2369 107.724 30.7213V31.1475C108.121 30.4567 108.815 29.9902 109.603 29.8852C109.808 29.8736 110.007 29.9487 110.153 30.0922C110.3 30.2357 110.379 30.4343 110.372 30.6393C110.372 30.8813 110.275 31.1132 110.103 31.2828C109.93 31.4523 109.698 31.5454 109.456 31.541Z" fill="#F47E47"/>
<path fill-rule="evenodd" clip-rule="evenodd" d="M112.398 34.4918H117.596C117.818 34.492 118.031 34.4011 118.185 34.2403C118.34 34.0794 118.422 33.8624 118.413 33.6393C118.397 33.2821 118.331 32.929 118.217 32.5902C117.803 30.9009 116.273 29.7279 114.539 29.7705C113.059 29.7939 111.704 30.6076 110.984 31.9051C110.264 33.2027 110.289 34.7868 111.049 36.0609C111.81 37.335 113.19 38.1054 114.67 38.082C115.683 38.082 117.71 37.6721 117.71 36.7705C117.701 36.3695 117.375 36.0491 116.975 36.0492C116.848 36.0512 116.725 36.085 116.615 36.1475C116.086 36.4823 115.475 36.6639 114.85 36.6721C113.583 36.7203 112.502 35.7594 112.398 34.4918ZM112.382 33.3115C112.43 32.135 113.398 31.2077 114.572 31.2131V31.1475C115.155 31.1223 115.721 31.341 116.137 31.7514C116.552 32.1618 116.779 32.7269 116.762 33.3115H112.382Z" fill="#F47E47"/>
<path fill-rule="evenodd" clip-rule="evenodd" d="M33.6116 26.8443C34.1466 26.736 34.7023 26.8612 35.1398 27.1885C35.8591 27.6456 36.108 28.58 35.7118 29.3361C30.9123 37.6158 20.4502 40.6155 12.0129 36.1311C11.2109 35.6891 10.4481 35.1791 9.7329 34.6066C9.06585 34.0704 8.92336 33.1093 9.40602 32.4016C9.64445 32.0205 10.0045 31.7316 10.4275 31.582C10.8131 31.4715 11.2282 31.5572 11.5389 31.8115C11.8798 32.0837 12.2344 32.3381 12.6013 32.5738L10.2723 24.4426C10.0092 23.7817 9.68358 23.1477 9.29978 22.5492L3.75914 13.2869C3.27052 12.3977 3.56088 11.2805 4.4201 10.7438C5.27931 10.2071 6.40702 10.4385 6.9871 11.2705C9.00559 11.3934 11.9966 13.8033 14.5299 19.3033C15.0762 20.4827 15.5324 21.7021 15.8946 22.9508L21.4434 19.459C21.813 19.2226 22.2618 19.145 22.689 19.2436C23.1162 19.3423 23.486 19.6089 23.7153 19.9836C24.0303 20.4775 24.0584 21.1026 23.7888 21.623C24.7838 21.4497 25.8011 21.4497 26.7961 21.623L27.1639 21.3361C27.3191 21.2213 27.4826 21.123 27.646 21.0246C27.9827 20.826 28.3422 20.6691 28.7166 20.5574H28.7819H28.88C29.0093 20.5276 29.1403 20.5057 29.2723 20.4918H29.8688C31.3624 20.6493 32.5423 21.8337 32.6982 23.3319C32.854 24.8301 31.9434 26.2333 30.5144 26.6967L30.351 26.7377L31.871 29.0246C32.2439 28.5167 32.5798 27.9826 32.8761 27.4262C33.0348 27.1422 33.2993 26.9329 33.6116 26.8443ZM26.8615 27.4098C24.0219 29.514 20.811 31.0603 17.3983 31.9672L16.434 32.2377L17.0959 34.4098C19.4788 34.9132 21.9487 34.8203 24.2873 34.1393C26.1965 33.5868 27.9772 32.659 29.5256 31.4098L26.8615 27.4098Z" fill="white"/>
<path d="M26.8452 22.7787L26.9677 22.7049C25.6521 22.4014 24.2819 22.4296 22.9798 22.7869L24.1974 24.8934C25.0201 24.2705 25.9026 23.5656 26.8452 22.7787Z" fill="#E65525"/>
<path d="M11.8658 21.1885L11.9067 21.2623C12.3356 21.955 12.6838 22.6948 12.9445 23.4672C13.0998 23.8771 13.2551 24.2869 13.394 24.7869C13.4614 25.0126 13.5133 25.2426 13.5492 25.4754L15.3144 24.3771C14.9377 22.755 14.3898 21.1778 13.68 19.6721C11.5062 14.9508 8.35183 11.7213 6.47226 12.2049L11.5634 20.7131C11.5634 20.7131 11.6942 20.8852 11.8658 21.1885Z" fill="#E65525"/>
<path d="M18.4525 28.3852L19.0817 28.0738C20.4391 27.3765 21.7494 26.5906 23.0043 25.7213L21.5497 23.1885C21.0552 23.3606 20.5697 23.5576 20.095 23.7787C18.3977 24.5341 16.8858 25.6532 15.6658 27.0574C15.6658 26.7213 15.6658 26.3607 15.5923 25.9918L14.1295 26.9016C14.0494 26.9509 13.9606 26.9843 13.868 27L14.6852 29.7623C15.9915 29.4567 17.2564 28.9944 18.4525 28.3852Z" fill="#E65525"/>
<path fill-rule="evenodd" clip-rule="evenodd" d="M34.6658 27.959C34.3553 27.7623 33.8486 27.5574 33.7015 27.877C33.1577 28.8397 32.5051 29.7364 31.7566 30.5492L28.4877 25.6311V25.582C29.2942 26.0501 30.3042 25.9748 31.0327 25.3923C31.7613 24.8097 32.0596 23.8389 31.7843 22.946C31.5089 22.0532 30.7163 21.4208 29.7871 21.3525H29.4193L29.1333 21.4016H29.0271C28.7092 21.4932 28.4043 21.6255 28.12 21.7951C27.9566 21.8934 27.8013 21.9918 27.6705 22.0902C27.4933 22.219 27.3241 22.3586 27.1639 22.5082L26.9677 22.7049L26.8778 22.7787C25.9408 23.5656 25.0473 24.2705 24.1974 24.8934L22.9471 22.7869L22.3505 21.7459L22.5957 21.5984C22.7639 21.4951 22.8837 21.3285 22.9282 21.1359C22.9728 20.9432 22.9383 20.7407 22.8327 20.5738C22.7298 20.4051 22.5636 20.2849 22.3716 20.2403C22.1795 20.1956 21.9776 20.2301 21.8112 20.3361L15.3144 24.377L13.5492 25.4754C13.5132 25.2426 13.4614 25.0126 13.394 24.7869C13.2632 24.3197 13.108 23.877 12.9445 23.4672C12.6838 22.6948 12.3356 21.955 11.9067 21.2623L11.8658 21.1885C11.6942 20.8852 11.5798 20.7131 11.5798 20.7131L6.4886 12.2049L6.24344 11.7951C6.07743 11.462 5.73939 11.2502 5.36814 11.2468C4.99689 11.2433 4.65499 11.4488 4.48285 11.7787C4.31072 12.1086 4.33735 12.5075 4.55182 12.8115L10.0925 22.0738C10.5212 22.7397 10.8799 23.4484 11.163 24.1885L14.0886 34.4262C13.6963 34.2541 13.2714 34.0656 12.9363 33.8607C12.2494 33.483 11.5959 33.047 10.9832 32.5574C10.6972 32.3279 10.3785 32.6803 10.166 32.9754C9.95725 33.2844 10.0214 33.7026 10.3131 33.9344C10.9874 34.4732 11.7064 34.9531 12.4624 35.3689C20.4597 39.5881 30.3515 36.7363 34.8946 28.9016C35.0719 28.5752 34.9728 28.1672 34.6658 27.959ZM13.8925 26.9672C13.9851 26.9515 14.0739 26.9181 14.154 26.8689L15.6168 25.959L21.1738 22.5L21.5742 23.1967L23.0288 25.7295C21.7739 26.5988 20.4636 27.3846 19.1062 28.082L18.477 28.3934C17.2794 28.9912 16.0146 29.4425 14.7097 29.7377L13.8925 26.9672ZM16.3441 35.1721C19.0343 35.8422 21.8532 35.7884 24.5161 35.0164C26.8136 34.3528 28.9314 33.1758 30.7105 31.5738L27.0249 26.0328C27.0249 26.0328 23.3639 29.6803 15.2409 31.5656L16.3441 35.1721Z" fill="#F47E47"/>
<path d="M54.6219 13.8689C55.3701 13.8379 56.0436 14.3209 56.2563 15.041L58.1686 14.3443C57.6662 12.8205 56.1929 11.8364 54.5974 11.959C52.3011 11.9672 50.6667 13.7951 50.6667 16.3197C50.6667 18.8443 52.3011 20.6803 54.6219 20.6803C56.2073 20.8054 57.6723 19.8268 58.1686 18.3115L56.2809 17.6148C56.065 18.3316 55.3924 18.8107 54.6465 18.7787C53.4779 18.7787 52.8404 17.7787 52.8404 16.3197C52.8404 14.8607 53.4533 13.8689 54.6219 13.8689Z" fill="white"/>
<path fill-rule="evenodd" clip-rule="evenodd" d="M64.2649 18.6393C64.2649 18.8607 64.3467 18.9918 64.4856 18.9918C64.6277 19.0058 64.771 18.9975 64.9105 18.9672V20.2869C64.4461 20.4717 63.9548 20.5796 63.4559 20.6066C62.9574 20.6066 62.606 20.4426 62.4998 19.9016C61.9077 20.3731 61.1797 20.6404 60.4241 20.6639C59.9265 20.7047 59.4355 20.5282 59.0771 20.1797C58.7186 19.8311 58.5275 19.3444 58.5527 18.8443C58.5527 17.4754 59.6641 17.0984 60.4813 16.9918C60.5862 16.9776 60.7111 16.9656 60.8457 16.9526C61.4874 16.891 62.3527 16.8078 62.3527 16.3607C62.3445 15.9508 62.0748 15.7869 61.6172 15.7869C61.174 15.7679 60.7701 16.0402 60.6202 16.459L59.043 15.8689C59.329 15.082 59.8112 14.3033 61.7153 14.3033C63.6194 14.3033 64.2649 15.1803 64.2649 16.3934V18.6393ZM61.4211 19.3525C61.7495 19.2942 62.0633 19.1716 62.3445 18.9918L62.3363 17.7705C62.0737 17.8701 61.7988 17.9335 61.5191 17.959C60.8817 18.0246 60.6039 18.2951 60.6039 18.7787C60.6039 19.2623 60.9798 19.4262 61.4211 19.3525Z" fill="white"/>
<path d="M67.6237 15.2787C67.5912 15.0103 67.4526 14.7663 67.239 14.6014C67.0254 14.4365 66.7547 14.3645 66.4878 14.4016C65.9888 14.4284 65.4975 14.5364 65.0331 14.7213V16.123C65.1739 16.1008 65.3173 16.1008 65.4581 16.123C65.597 16.123 65.6705 16.2541 65.6705 16.4754V20.4918H67.64V16.7705C67.8411 16.4523 68.1807 16.2485 68.5553 16.2213C68.8371 16.206 69.1182 16.2624 69.3725 16.3852L70.0508 14.5902C69.6495 14.3114 69.145 14.2271 68.6753 14.3604C68.2056 14.4936 67.8199 14.8304 67.6237 15.2787Z" fill="white"/>
<path fill-rule="evenodd" clip-rule="evenodd" d="M70.6188 15.2297C71.195 14.6268 71.9968 14.2937 72.8293 14.3115C73.6506 14.3047 74.4373 14.6427 74.9992 15.2436C75.5611 15.8446 75.8469 16.6537 75.7875 17.4754L71.7015 18.4344C71.8949 18.86 72.3423 19.1093 72.8047 19.0492C73.3704 19.0607 73.8908 18.7405 74.1368 18.2295L75.714 18.8033C75.209 19.9627 74.0578 20.7034 72.7966 20.6803C71.9628 20.6969 71.161 20.3589 70.5895 19.7497C70.018 19.1406 69.7303 18.3173 69.7974 17.4836C69.7446 16.6501 70.0425 15.8326 70.6188 15.2297ZM72.7312 15.9098C72.073 15.9471 71.5501 16.4787 71.5217 17.1393L73.9488 16.582C73.7343 16.1139 73.2402 15.8411 72.7312 15.9098Z" fill="white"/>
<path d="M81.7204 18.5902C81.3629 18.6646 80.9988 18.7031 80.6336 18.7049C79.4404 18.7049 78.5497 17.8852 78.5497 16.3115C78.5497 14.7377 79.4241 13.8525 80.6662 13.8525C81.344 13.8406 81.9893 14.1431 82.4151 14.6721L83.7144 13.3115C82.9434 12.4101 81.8091 11.9044 80.6254 11.9344C79.4614 11.9127 78.3422 12.384 77.5426 13.2328C76.7431 14.0816 76.3373 15.2291 76.425 16.3934C76.3492 17.5376 76.7636 18.6598 77.5641 19.4784C78.3646 20.297 79.4753 20.7342 80.6172 20.6803C81.764 20.7065 82.8872 20.3521 83.8125 19.6721V16.5656H81.7204V18.582V18.5902Z" fill="white"/>
<path d="M90.5462 18.9098C90.4073 18.9098 90.3338 18.7787 90.3338 18.5574V14.5H88.3643V18.4426C88.0865 18.6952 87.7329 18.848 87.3592 18.877C86.4439 18.877 86.3622 18.2049 86.3622 17.4098V14.5H84.3927V18.4344C84.3927 20 85.308 20.6803 86.3213 20.6803C87.1165 20.6658 87.8692 20.318 88.397 19.7213C88.4233 19.9877 88.5568 20.2317 88.7665 20.3972C88.9762 20.5627 89.2441 20.6354 89.5084 20.5984C90.0073 20.5714 90.4986 20.4635 90.963 20.2787V18.8525C90.8279 18.8931 90.6873 18.9124 90.5462 18.9098Z" fill="white"/>
<path d="M92.7527 14.3934C92.2537 14.4202 91.7625 14.5282 91.2981 14.7131V16.1148C91.4389 16.0926 91.5822 16.0926 91.723 16.1148C91.8619 16.1148 91.9355 16.2459 91.9355 16.4672V20.4918H93.9049V15.5738C93.954 15.2526 93.8495 14.927 93.6229 14.6948C93.3962 14.4627 93.0739 14.351 92.7527 14.3934Z" fill="white"/>
<path fill-rule="evenodd" clip-rule="evenodd" d="M100.843 18.582C100.843 18.8033 100.917 18.9344 101.055 18.9344C101.192 18.9468 101.33 18.9385 101.464 18.9098V20.3197C101 20.5046 100.508 20.6126 100.009 20.6393C99.779 20.6626 99.5494 20.5866 99.378 20.4303C99.2066 20.274 99.1094 20.052 99.1105 19.8197C98.6315 20.3429 97.9555 20.6403 97.2473 20.6393C95.6129 20.6393 94.5097 19.2213 94.5097 17.4508C94.5097 15.6803 95.6538 14.2705 97.2882 14.2705C97.8733 14.266 98.4399 14.4759 98.8817 14.8607V11.6803H100.843V18.582ZM97.5252 18.8525C98.1854 18.9167 98.7808 18.4527 98.8817 17.7951L98.8736 16.7377C98.5671 16.2721 98.0564 15.9825 97.5006 15.959C96.7652 15.959 96.3075 16.4508 96.3075 17.3934C96.3075 18.3361 96.7652 18.8525 97.5252 18.8525Z" fill="white"/>
<path fill-rule="evenodd" clip-rule="evenodd" d="M103.679 18.4344C103.872 18.86 104.32 19.1093 104.782 19.0492C105.344 19.0528 105.857 18.7301 106.098 18.2213L107.675 18.7951C107.17 19.9545 106.019 20.6952 104.757 20.6721C103.924 20.6887 103.122 20.3507 102.55 19.7415C101.979 19.1324 101.691 18.3091 101.758 17.4754C101.705 16.6419 102.003 15.8244 102.58 15.2215C103.156 14.6186 103.958 14.2855 104.79 14.3033C105.616 14.2917 106.408 14.6288 106.974 15.2321C107.54 15.8354 107.827 16.6495 107.765 17.4754L103.679 18.4344ZM105.91 16.5738C105.695 16.1057 105.201 15.8329 104.692 15.9016C104.04 15.9513 103.53 16.4843 103.507 17.1393L105.91 16.5738Z" fill="white"/>
<path d="M93.3329 11.3525C93.0911 11.3515 92.8657 11.4754 92.7363 11.6803C92.5528 11.3649 92.1594 11.2424 91.83 11.398C91.5006 11.5536 91.3442 11.9358 91.4697 12.2787C91.6658 12.959 92.7037 13.6967 92.7363 13.7131C92.7363 13.7131 93.8069 12.9508 94.003 12.2787C94.074 12.0634 94.0374 11.8269 93.9046 11.6434C93.7718 11.4598 93.559 11.3515 93.3329 11.3525Z" fill="white"/>
</svg>
