<svg width="176" height="50" viewBox="0 0 176 50" fill="none" xmlns="http://www.w3.org/2000/svg">
<path d="M59.2997 37.8525C58.7662 37.8525 58.3338 37.4194 58.3338 36.8852V33H52.7018V36.8852C52.6975 37.1461 52.5898 37.3946 52.4025 37.576C52.2152 37.7574 51.9636 37.8568 51.7031 37.8525C51.176 37.8435 50.7534 37.4131 50.7535 36.8852V27.6721C50.7535 27.1334 51.1896 26.6967 51.7276 26.6967C52.2656 26.6967 52.7018 27.1334 52.7018 27.6721V31.2787H58.3338V27.6721C58.3338 27.1289 58.7736 26.6885 59.3161 26.6885C59.8586 26.6885 60.2984 27.1289 60.2984 27.6721V36.8852C60.2941 37.1461 60.1865 37.3946 59.9992 37.576C59.8119 37.7574 59.5603 37.8568 59.2997 37.8525Z" fill="#D9AB28"/>
<path fill-rule="evenodd" clip-rule="evenodd" d="M62.8152 36.7688C63.5931 37.5602 64.6666 37.9889 65.7749 37.9508C66.8832 37.9889 67.9567 37.5602 68.7346 36.7688C69.5125 35.9775 69.9235 34.8959 69.8679 33.7869C69.8679 31.5234 68.0354 29.6885 65.7749 29.6885C63.5144 29.6885 61.6818 31.5234 61.6818 33.7869C61.6262 34.8959 62.0373 35.9775 62.8152 36.7688ZM63.5155 33.7869C63.5155 32.4098 64.3178 31.1967 65.7749 31.1967C67.2156 31.1967 68.0178 32.3934 68.0178 33.7869C68.0178 35.1803 67.2156 36.3934 65.7749 36.3934C64.3341 36.3934 63.5155 35.1639 63.5155 33.7869Z" fill="#D9AB28"/>
<path d="M77.2026 37.8525C76.9718 37.8547 76.7498 37.7638 76.5866 37.6004C76.4234 37.437 76.3327 37.2147 76.3349 36.9836V36.7049C75.6183 37.4962 74.602 37.9485 73.5352 37.9508C72.8435 38.045 72.1473 37.8125 71.6505 37.3215C71.1537 36.8304 70.9125 36.1364 70.9976 35.4426V30.5902C70.9976 30.1058 71.3897 29.7131 71.8735 29.7131C72.3572 29.7131 72.7494 30.1058 72.7494 30.5902V34.8033C72.7494 36.0164 73.3715 36.3934 74.3211 36.3934C75.1105 36.3738 75.8495 36.0008 76.3349 35.377V30.5902C76.3349 30.1058 76.727 29.7131 77.2108 29.7131C77.6945 29.7131 78.0867 30.1058 78.0867 30.5902V36.9836C78.0845 37.2162 77.9902 37.4384 77.8244 37.6014C77.6586 37.7643 77.4349 37.8546 77.2026 37.8525Z" fill="#D9AB28"/>
<path d="M82.851 37.9508C81.723 37.9936 80.6197 37.6136 79.7566 36.8852C79.6528 36.7674 79.5947 36.6161 79.5929 36.459C79.6061 36.0508 79.9382 35.7255 80.346 35.7213C80.4856 35.7187 80.6227 35.7588 80.739 35.8361C81.3831 36.2736 82.1385 36.5181 82.9165 36.541C83.9479 36.541 84.4554 36.0984 84.4554 35.4918C84.4554 33.9508 79.6748 35.0656 79.6748 32.0164C79.6748 30.7213 80.8045 29.6066 82.8182 29.6066C83.8389 29.5508 84.8417 29.8914 85.6179 30.5574C85.7135 30.666 85.766 30.806 85.7652 30.9508C85.7519 31.3292 85.4393 31.6276 85.0612 31.6229C84.9348 31.6213 84.8108 31.5875 84.701 31.5246C84.1419 31.1573 83.4869 30.9634 82.8182 30.9672C81.9341 30.9672 81.3775 31.3934 81.3775 31.9344C81.3775 33.3279 86.1418 32.2787 86.1418 35.4262C86.1418 36.8852 84.9793 37.9508 82.851 37.9508Z" fill="#D9AB28"/>
<path fill-rule="evenodd" clip-rule="evenodd" d="M89.0396 34.3607H94.2459C94.4688 34.3608 94.6822 34.27 94.8367 34.1091C94.9912 33.9482 95.0735 33.7312 95.0645 33.5082C95.0484 33.151 94.9823 32.7978 94.8681 32.459C94.4535 30.7698 92.9211 29.5968 91.1844 29.6393C88.8922 29.6756 87.0634 31.5655 87.0995 33.8607C87.1357 36.1558 89.0232 37.987 91.3153 37.9508C92.3304 37.9508 94.3605 37.541 94.3605 36.6393C94.3583 36.379 94.2176 36.1396 93.9914 36.0112C93.7653 35.8828 93.4879 35.8848 93.2636 36.0164C92.7338 36.3512 92.1219 36.5327 91.4954 36.541C90.2261 36.5891 89.1438 35.6283 89.0396 34.3607ZM89.0232 33.1803C89.0717 32.0038 90.0411 31.0766 91.2171 31.082V31.0492C91.7948 31.0244 92.3572 31.2387 92.7722 31.6418C93.1872 32.045 93.4182 32.6014 93.411 33.1803H89.0232Z" fill="#D9AB28"/>
<path d="M102.129 37.8525C101.842 37.867 101.569 37.7302 101.409 37.4918L99.2149 34.5082L98.1343 35.6393V36.9836C98.1322 37.2162 98.0378 37.4384 97.872 37.6014C97.7062 37.7643 97.4825 37.8546 97.2502 37.8525C97.0194 37.8547 96.7974 37.7638 96.6342 37.6004C96.471 37.437 96.3803 37.2147 96.3825 36.9836V27.5738C96.3825 27.0894 96.7747 26.6967 97.2584 26.6967C97.7422 26.6967 98.1343 27.0894 98.1343 27.5738V33.6066L101.409 29.9672C101.557 29.8067 101.763 29.7123 101.982 29.7049C102.425 29.7256 102.78 30.0807 102.8 30.5246C102.792 30.7159 102.723 30.8996 102.604 31.0492L100.443 33.3934L102.8 36.4426C102.901 36.5876 102.957 36.7582 102.964 36.9344C102.983 37.4173 102.611 37.826 102.129 37.8525Z" fill="#D9AB28"/>
<path fill-rule="evenodd" clip-rule="evenodd" d="M105.6 34.3607H110.831C111.049 34.3543 111.256 34.2605 111.406 34.1004C111.555 33.9403 111.634 33.727 111.625 33.5082C111.609 33.1509 111.543 32.7977 111.428 32.459C111.014 30.7698 109.481 29.5968 107.745 29.6393C105.453 29.6756 103.624 31.5655 103.66 33.8607C103.696 36.1558 105.584 37.987 107.876 37.9508C108.891 37.9508 110.921 37.541 110.921 36.6393C110.919 36.379 110.778 36.1396 110.552 36.0112C110.326 35.8828 110.048 35.8848 109.824 36.0164C109.294 36.3512 108.682 36.5327 108.056 36.541C106.786 36.5891 105.704 35.6283 105.6 34.3607ZM105.6 33.1475C105.666 31.9808 106.635 31.0714 107.802 31.082V31.0492C108.373 31.0269 108.928 31.2379 109.34 31.6336C109.752 32.0293 109.986 32.5758 109.988 33.1475H105.6Z" fill="#D9AB28"/>
<path fill-rule="evenodd" clip-rule="evenodd" d="M114.605 34.3607H119.786C120.014 34.3677 120.233 34.2798 120.393 34.1182C120.553 33.9565 120.639 33.7355 120.63 33.5082C120.613 33.151 120.547 32.7978 120.433 32.459C120.019 30.7698 118.486 29.5968 116.749 29.6393C114.457 29.6756 112.628 31.5655 112.665 33.8607C112.701 36.1558 114.588 37.987 116.88 37.9508C117.895 37.9508 119.926 37.541 119.926 36.6393C119.923 36.379 119.783 36.1396 119.556 36.0112C119.33 35.8828 119.053 35.8848 118.829 36.0164C118.299 36.3508 117.687 36.5323 117.06 36.541C115.791 36.5891 114.709 35.6283 114.605 34.3607ZM114.605 33.1475C114.669 31.9997 115.609 31.0974 116.758 31.082V31.0492C117.336 31.013 117.905 31.2178 118.328 31.615C118.751 32.0123 118.991 32.5668 118.992 33.1475H114.605Z" fill="#D9AB28"/>
<path fill-rule="evenodd" clip-rule="evenodd" d="M123.544 36.6721C124.133 37.476 125.069 37.9509 126.065 37.9508C128.103 37.9508 129.569 36.3934 129.569 33.7869C129.569 31.1803 128.112 29.6393 126.065 29.6393C125.072 29.6354 124.136 30.1039 123.544 30.9016V30.5902C123.544 30.1058 123.152 29.7131 122.668 29.7131C122.184 29.7131 121.792 30.1058 121.792 30.5902V40.0164C121.814 40.4788 122.197 40.841 122.66 40.8361C123.125 40.8414 123.513 40.4814 123.544 40.0164V36.6721ZM125.541 31.1967C125.541 31.1967 125.541 31.1967 125.541 31.1967H125.533C125.536 31.1967 125.538 31.1967 125.541 31.1967ZM123.544 32.2459C124.012 31.6059 124.749 31.2186 125.541 31.1967C126.887 31.2008 127.751 32.2652 127.751 33.7869C127.751 35.3115 126.884 36.3934 125.541 36.3934C124.751 36.3645 124.017 35.9787 123.544 35.3443V32.2459Z" fill="#D9AB28"/>
<path fill-rule="evenodd" clip-rule="evenodd" d="M132.442 34.3607H137.648C137.884 34.3822 138.117 34.3008 138.288 34.1374C138.459 33.974 138.551 33.7446 138.541 33.5082C138.525 33.1509 138.459 32.7977 138.344 32.459C137.924 30.7418 136.351 29.5612 134.587 29.6393C132.295 29.6756 130.466 31.5655 130.502 33.8607C130.538 36.1558 132.426 37.987 134.718 37.9508C135.733 37.9508 137.763 37.541 137.763 36.6393C137.761 36.379 137.62 36.1396 137.394 36.0112C137.168 35.8828 136.89 35.8848 136.666 36.0164C136.136 36.3512 135.524 36.5327 134.898 36.541C133.629 36.5891 132.546 35.6283 132.442 34.3607ZM132.426 33.1803C132.474 32.0038 133.444 31.0766 134.62 31.082V31.0492C135.197 31.0244 135.76 31.2387 136.175 31.6418C136.59 32.045 136.821 32.6014 136.813 33.1803H132.426Z" fill="#D9AB28"/>
<path d="M143.608 31.4098C142.894 31.4484 142.234 31.8028 141.807 32.377V36.9836C141.802 37.4616 141.417 37.848 140.939 37.8525C140.713 37.8529 140.497 37.7598 140.342 37.5953C140.187 37.4307 140.107 37.2094 140.121 36.9836V30.5902C140.121 30.1058 140.513 29.7131 140.996 29.7131C141.48 29.7131 141.872 30.1058 141.872 30.5902V31C142.27 30.3091 142.966 29.8426 143.755 29.7377C143.96 29.726 144.16 29.8012 144.306 29.9447C144.453 30.0882 144.532 30.2868 144.525 30.4918C144.529 30.7366 144.434 30.9728 144.261 31.1459C144.088 31.319 143.852 31.4143 143.608 31.4098Z" fill="#D9AB28"/>
<path d="M145.098 37.9344C144.628 37.9344 144.204 37.6508 144.024 37.2159C143.844 36.781 143.943 36.2803 144.276 35.9475C144.608 35.6146 145.108 35.515 145.543 35.6952C145.977 35.8753 146.26 36.2997 146.26 36.7705C146.251 37.4096 145.736 37.9256 145.098 37.9344Z" fill="#D9AB28"/>
<path d="M154.119 37.0656C153.417 37.6752 152.509 37.992 151.581 37.9508C150.473 37.9864 149.401 37.5569 148.624 36.7661C147.847 35.9753 147.435 34.8952 147.488 33.7869C147.44 32.6813 147.854 31.6056 148.63 30.8185C149.407 30.0314 150.476 29.6041 151.581 29.6393C152.587 29.5639 153.572 29.9571 154.25 30.7049C154.329 30.8081 154.369 30.9356 154.364 31.0656C154.33 31.4925 153.973 31.821 153.546 31.8197C153.363 31.8233 153.184 31.7656 153.038 31.6557C152.644 31.3523 152.16 31.1906 151.663 31.1967C150.994 31.1915 150.354 31.4702 149.901 31.9638C149.449 32.4574 149.226 33.1198 149.289 33.7869C149.227 34.4554 149.449 35.1193 149.901 35.6154C150.353 36.1116 150.992 36.394 151.663 36.3934C152.162 36.3962 152.647 36.2285 153.038 35.918C153.184 35.8082 153.363 35.7505 153.546 35.7541C153.979 35.7533 154.338 36.0912 154.364 36.5246C154.372 36.7336 154.281 36.934 154.119 37.0656Z" fill="#D9AB28"/>
<path fill-rule="evenodd" clip-rule="evenodd" d="M156.169 36.7688C156.947 37.5602 158.02 37.9889 159.129 37.9508C160.237 37.9889 161.31 37.5602 162.088 36.7688C162.866 35.9775 163.277 34.8959 163.222 33.7869C163.222 31.5234 161.389 29.6885 159.129 29.6885C156.868 29.6885 155.036 31.5234 155.036 33.7869C154.98 34.8959 155.391 35.9775 156.169 36.7688ZM156.869 33.7869C156.869 32.4098 157.671 31.1967 159.129 31.1967C160.569 31.1967 161.372 32.3934 161.372 33.7869C161.372 35.1803 160.569 36.3934 159.129 36.3934C157.688 36.3934 156.869 35.1639 156.869 33.7869Z" fill="#D9AB28"/>
<path d="M174.911 37.8525C174.434 37.848 174.048 37.4616 174.044 36.9836V32.6066C174.044 31.7869 173.683 31.1967 172.766 31.1967C172.035 31.2448 171.365 31.6252 170.949 32.2295V36.9836C170.947 37.2162 170.853 37.4384 170.687 37.6014C170.521 37.7643 170.297 37.8546 170.065 37.8525C169.834 37.8547 169.612 37.7638 169.449 37.6004C169.286 37.437 169.195 37.2147 169.197 36.9836V32.6066C169.197 31.7869 168.821 31.1967 167.904 31.1967C167.174 31.2487 166.509 31.6361 166.103 32.2459V36.9836C166.101 37.2162 166.007 37.4384 165.841 37.6014C165.675 37.7643 165.451 37.8546 165.219 37.8525C164.988 37.8547 164.766 37.7638 164.603 37.6004C164.44 37.437 164.349 37.2147 164.351 36.9836V30.5902C164.351 30.1058 164.743 29.7131 165.227 29.7131C165.711 29.7131 166.103 30.1058 166.103 30.5902V30.918C166.731 30.1343 167.671 29.6667 168.673 29.6393C169.648 29.5507 170.551 30.1602 170.835 31.0984C171.447 30.2041 172.453 29.6608 173.536 29.6393C174.977 29.6393 175.812 30.459 175.812 32.0328V36.9508C175.816 37.1913 175.723 37.4233 175.553 37.5933C175.383 37.7634 175.151 37.857 174.911 37.8525Z" fill="#D9AB28"/>
<path fill-rule="evenodd" clip-rule="evenodd" d="M20.5633 0C25.082 0 29.568 0 34.1276 0C38.4007 0 40.9302 2.61475 40.9302 6.95902C40.9302 14.2541 40.9302 21.5464 40.9302 28.8361C41.0468 39.159 33.3248 47.8873 23.0765 49.0164C11.4605 50.459 2.25935 42.3443 0.564837 33.2459C0.230099 31.5825 0.0411017 29.893 0 28.1967C0 21.3115 0 14.459 0 7.59836C0 2.45902 2.45581 0 7.54753 0H20.5633Z" fill="#D9AB28"/>
<path d="M32.7442 7.44262C32.5556 6.59846 31.8779 5.95108 31.0269 5.80218C30.1759 5.65329 29.3191 6.03219 28.8558 6.7623L19.1799 22.0738C17.7893 21.9046 16.3889 22.3002 15.2915 23.1721C14.6371 22.9943 13.9429 23.2592 13.5725 23.8279C13.4688 23.9906 13.3966 24.1713 13.3596 24.3607C12.7745 24.2958 12.2034 24.5691 11.8861 25.0656C11.6625 25.4094 11.5858 25.8286 11.6733 26.2295C11.7025 26.3635 11.7492 26.4931 11.8125 26.6148L7.80949 30.4098C7.48575 30.7392 7.30863 31.1855 7.31833 31.6475C7.3317 31.8697 7.37015 32.0897 7.43293 32.3033V32.4016C8.04279 34.6229 9.43205 36.5494 11.3459 37.8279L11.4687 37.918L11.6979 38.0656L11.837 38.1393C13.3418 39.0342 15.0559 39.5149 16.806 39.5328C17.3555 39.5365 17.9041 39.4844 18.4432 39.377H18.5414H18.6806C18.8002 40.9043 20.073 42.0824 21.603 42.082C22.3218 42.081 23.0152 41.8155 23.5513 41.3361C23.6976 41.4545 23.8603 41.5511 24.0342 41.623C24.0485 41.7889 24.0871 41.9519 24.1488 42.1066C24.4191 42.7445 25.0449 43.158 25.7369 43.1557C26.4862 43.1597 27.1517 42.6772 27.3819 41.9633C27.6121 41.2493 27.354 40.4683 26.7438 40.0328C26.834 39.3827 26.5889 38.7312 26.0928 38.3022C25.5966 37.8733 24.9171 37.7256 24.288 37.9098C23.6777 36.5633 22.1622 35.8818 20.7516 36.3197L21.8731 32.9426C22.4449 32.971 22.9851 32.6794 23.2756 32.1855C23.566 31.6915 23.5587 31.077 23.2566 30.5902C23.6041 30.3357 23.8292 29.9472 23.8775 29.5189C23.9257 29.0905 23.7925 28.6616 23.5103 28.3361C23.8295 26.9702 23.5908 25.5332 22.8473 24.3443L32.4822 9.01639C32.7706 8.54586 32.8645 7.98136 32.7442 7.44262Z" fill="white"/>
<path d="M25.086 40.5856C25.5311 40.3969 25.7387 39.8827 25.5498 39.4371C25.3609 38.9915 24.847 38.7831 24.4019 38.9718C23.9569 39.1605 23.7492 39.6747 23.9381 40.1203C24.127 40.5659 24.641 40.7742 25.086 40.5856Z" fill="#AB8B2F"/>
<path d="M25.9454 42.0211C26.2659 41.8854 26.4157 41.5152 26.2798 41.1942C26.144 40.8732 25.7739 40.7229 25.4534 40.8586C25.1328 40.9943 24.983 41.3645 25.1189 41.6855C25.2547 42.0065 25.6248 42.1568 25.9454 42.0211Z" fill="#AB8B2F"/>
<path d="M22.2826 40.843C23.2194 40.4465 23.657 39.3647 23.26 38.4267C22.863 37.4887 21.7817 37.0497 20.845 37.4462C19.9082 37.8426 19.4706 38.9245 19.8676 39.8625C20.2646 40.8005 21.3459 41.2395 22.2826 40.843Z" fill="#AB8B2F"/>
<path d="M31.107 6.95082C30.613 6.74742 30.0445 6.92683 29.7563 7.37705L19.6956 23.2869C20.0073 23.3794 20.3068 23.5087 20.5879 23.6721L20.6616 23.7213L20.7353 23.7623C21.003 23.9483 21.2476 24.1657 21.4638 24.4098L31.5654 8.46721C31.7271 8.21 31.7694 7.89523 31.6815 7.60435C31.5936 7.31347 31.384 7.07506 31.107 6.95082Z" fill="#AB8B2F"/>
<path d="M14.4811 25.5328L14.0882 25.9344L21.4556 30.6148L21.6521 30.0902L21.8322 29.6066L14.8413 25.1639L14.4811 25.5328Z" fill="#D9AB28"/>
<path d="M22.3233 28.3279C22.8125 26.6238 22.1519 24.7981 20.6861 23.8033L20.6125 23.7623L20.5388 23.7131C19.0121 22.824 17.0881 23.0157 15.7663 24.1885C15.6539 24.2918 15.5473 24.4012 15.4471 24.5164L22.1351 28.7705C22.2064 28.6268 22.2693 28.479 22.3233 28.3279Z" fill="#D9AB28"/>
<path d="M8.5626 31.2049C8.43813 31.3218 8.36709 31.4848 8.36613 31.6557C8.38361 31.8392 8.41926 32.0204 8.47255 32.1967C9.02838 34.1974 10.2984 35.9241 12.0417 37.0492L12.1645 37.1229L12.2791 37.1967C14.0367 38.2981 16.1369 38.7152 18.1812 38.3689C18.3625 38.3429 18.5407 38.2989 18.7133 38.2377C18.8685 38.1651 18.987 38.0317 19.0407 37.8689L21.1527 31.4918L13.4333 26.5738L8.5626 31.2049Z" fill="#D9AB28"/>
<path d="M22.528 28.9836L22.1596 28.7459L15.4716 24.5L15.1033 24.2623C14.8978 24.1612 14.6493 24.2306 14.5257 24.4235C14.4021 24.6165 14.4428 24.8716 14.6203 25.0164L14.8331 25.1557L21.824 29.5984L22.0368 29.7377C22.2423 29.8388 22.4908 29.7695 22.6144 29.5765C22.738 29.3835 22.6973 29.1284 22.5198 28.9836H22.528Z" fill="#AB8B2F"/>
<path d="M22.1023 31.041L21.4229 30.6148L14.0554 25.9344L13.376 25.5082C13.1705 25.4071 12.922 25.4765 12.7984 25.6694C12.6748 25.8624 12.7155 26.1175 12.893 26.2623L13.3924 26.5738L21.1118 31.4918L21.6112 31.8033C21.7454 31.9128 21.9303 31.9355 22.087 31.8618C22.2436 31.7881 22.3442 31.6311 22.3458 31.4578C22.3473 31.2845 22.2495 31.1256 22.0941 31.0492L22.1023 31.041Z" fill="#AB8B2F"/>
<path d="M54.7155 13.8689C55.465 13.8379 56.1396 14.3209 56.3527 15.041L58.2683 14.3443C57.765 12.8205 56.2892 11.8364 54.691 11.959C52.3907 11.9672 50.7535 13.7951 50.7535 16.3197C50.7535 18.8443 52.3907 20.6803 54.7155 20.6803C56.3036 20.8054 57.7711 19.8268 58.2683 18.3115L56.3773 17.6148C56.1611 18.3316 55.4873 18.8107 54.7401 18.7787C53.5695 18.7787 52.931 17.7787 52.931 16.3197C52.931 14.8607 53.5449 13.8689 54.7155 13.8689Z" fill="white"/>
<path fill-rule="evenodd" clip-rule="evenodd" d="M64.3751 18.6393C64.3751 18.8607 64.4569 18.9918 64.5961 18.9918C64.7384 19.0058 64.882 18.9975 65.0218 18.9672V20.2869C64.5565 20.4717 64.0644 20.5796 63.5646 20.6066C63.0653 20.6066 62.7133 20.4426 62.6069 19.9016C62.0137 20.3731 61.2846 20.6404 60.5276 20.6639C60.0292 20.7047 59.5374 20.5282 59.1783 20.1797C58.8192 19.8311 58.6278 19.3444 58.653 18.8443C58.653 17.4754 59.7663 17.0984 60.5849 16.9918C60.69 16.9776 60.8151 16.9656 60.95 16.9526C61.5928 16.891 62.4595 16.8078 62.4595 16.3607C62.4513 15.9508 62.1812 15.7869 61.7228 15.7869C61.2789 15.7679 60.8742 16.0402 60.7241 16.459L59.1442 15.8688C59.4307 15.082 59.9137 14.3033 61.821 14.3033C63.7284 14.3033 64.3751 15.1803 64.3751 16.3934V18.6393ZM61.5263 19.3525C61.8553 19.2942 62.1696 19.1716 62.4513 18.9918L62.4432 17.7705C62.1801 17.8701 61.9047 17.9335 61.6246 17.959C60.986 18.0246 60.7077 18.2951 60.7077 18.7787C60.7077 19.2623 61.0843 19.4262 61.5263 19.3525Z" fill="white"/>
<path d="M67.7395 15.2787C67.707 15.0103 67.5681 14.7663 67.3542 14.6014C67.1402 14.4365 66.8691 14.3645 66.6017 14.4016C66.1019 14.4284 65.6097 14.5364 65.1445 14.7213V16.123C65.2856 16.1008 65.4292 16.1008 65.5702 16.123C65.7094 16.123 65.7831 16.2541 65.7831 16.4754V20.4918H67.7559V16.7705C67.9573 16.4523 68.2975 16.2485 68.6727 16.2213C68.955 16.206 69.2366 16.2624 69.4913 16.3852L70.1708 14.5902C69.7688 14.3114 69.2635 14.2271 68.793 14.3604C68.3225 14.4936 67.9361 14.8304 67.7395 15.2787Z" fill="white"/>
<path fill-rule="evenodd" clip-rule="evenodd" d="M70.7398 15.2297C71.317 14.6268 72.1201 14.2937 72.954 14.3115C73.7768 14.3047 74.5649 14.6427 75.1277 15.2436C75.6905 15.8446 75.9768 16.6537 75.9174 17.4754L71.8244 18.4344C72.0181 18.86 72.4663 19.1093 72.9295 19.0492C73.4961 19.0607 74.0174 18.7405 74.2638 18.2295L75.8437 18.8033C75.3378 19.9627 74.1847 20.7033 72.9213 20.6803C72.0861 20.6969 71.2829 20.3589 70.7105 19.7497C70.138 19.1406 69.8497 18.3173 69.917 17.4836C69.8641 16.6501 70.1625 15.8326 70.7398 15.2297ZM72.8558 15.9098C72.1965 15.9471 71.6727 16.4787 71.6443 17.1393L74.0755 16.582C73.8606 16.1139 73.3657 15.8411 72.8558 15.9098Z" fill="white"/>
<path d="M81.8604 18.5902C81.5023 18.6646 81.1375 18.7031 80.7717 18.7049C79.5765 18.7049 78.6843 17.8852 78.6843 16.3115C78.6843 14.7377 79.5602 13.8525 80.8045 13.8525C81.4834 13.8406 82.1298 14.1431 82.5563 14.6721L83.8578 13.3115C83.0855 12.4101 81.9492 11.9044 80.7635 11.9344C79.5975 11.9126 78.4764 12.384 77.6755 13.2328C76.8746 14.0816 76.4681 15.2291 76.5559 16.3934C76.48 17.5376 76.8951 18.6598 77.697 19.4784C78.4989 20.297 79.6114 20.7342 80.7553 20.6803C81.904 20.7065 83.0292 20.3521 83.9561 19.6721V16.5656H81.8604V18.582V18.5902Z" fill="white"/>
<path d="M90.7014 18.9098C90.5622 18.9098 90.4885 18.7787 90.4885 18.5574V14.5H88.5157V18.4426C88.2374 18.6952 87.8833 18.848 87.5088 18.877C86.592 18.877 86.5101 18.2049 86.5101 17.4098V14.5H84.5373V18.4344C84.5373 20 85.4541 20.6803 86.4692 20.6803C87.2657 20.6658 88.0198 20.318 88.5485 19.7213C88.5748 19.9877 88.7085 20.2317 88.9186 20.3972C89.1287 20.5627 89.397 20.6354 89.6618 20.5984C90.1615 20.5714 90.6536 20.4635 91.1189 20.2787V18.8525C90.9835 18.8931 90.8427 18.9124 90.7014 18.9098Z" fill="white"/>
<path d="M92.9116 14.3934C92.4118 14.4202 91.9197 14.5282 91.4545 14.7131V16.1148C91.5955 16.0926 91.7391 16.0926 91.8802 16.1148C92.0193 16.1148 92.093 16.2459 92.093 16.4672V20.4918H94.0658V15.5738C94.115 15.2526 94.0103 14.927 93.7833 14.6948C93.5562 14.4627 93.2333 14.351 92.9116 14.3934Z" fill="white"/>
<path fill-rule="evenodd" clip-rule="evenodd" d="M101.016 18.582C101.016 18.8033 101.089 18.9344 101.229 18.9344C101.366 18.9468 101.504 18.9385 101.638 18.9098V20.3197C101.173 20.5046 100.681 20.6126 100.181 20.6393C99.9499 20.6626 99.72 20.5866 99.5483 20.4303C99.3766 20.274 99.2792 20.052 99.2804 19.8197C98.8005 20.3429 98.1233 20.6403 97.4139 20.6393C95.7767 20.6393 94.6716 19.2213 94.6716 17.4508C94.6716 15.6803 95.8177 14.2705 97.4549 14.2705C98.041 14.266 98.6086 14.4759 99.0512 14.8607V11.6803H101.016V18.582ZM97.6923 18.8525C98.3536 18.9167 98.95 18.4527 99.0512 17.7951L99.043 16.7377C98.736 16.2721 98.2244 15.9825 97.6677 15.959C96.931 15.959 96.4725 16.4508 96.4725 17.3934C96.4725 18.3361 96.931 18.8525 97.6923 18.8525Z" fill="white"/>
<path fill-rule="evenodd" clip-rule="evenodd" d="M103.856 18.4344C104.05 18.86 104.498 19.1093 104.961 19.0492C105.524 19.0528 106.038 18.7301 106.279 18.2213L107.859 18.7951C107.353 19.9545 106.2 20.6952 104.937 20.6721C104.102 20.6887 103.299 20.3507 102.726 19.7415C102.154 19.1324 101.865 18.3091 101.933 17.4754C101.88 16.6419 102.178 15.8244 102.755 15.2215C103.333 14.6186 104.136 14.2855 104.97 14.3033C105.797 14.2917 106.591 14.6288 107.157 15.2321C107.724 15.8354 108.012 16.6495 107.949 17.4754L103.856 18.4344ZM106.091 16.5738C105.876 16.1057 105.381 15.8329 104.871 15.9016C104.219 15.9513 103.708 16.4843 103.684 17.1393L106.091 16.5738Z" fill="white"/>
<path d="M93.4928 11.3525C93.2506 11.3515 93.0248 11.4754 92.8952 11.6803C92.7113 11.3649 92.3173 11.2424 91.9873 11.398C91.6573 11.5536 91.5007 11.9358 91.6264 12.2787C91.8229 12.959 92.8625 13.6967 92.8952 13.7131C92.8952 13.7131 93.9676 12.9508 94.1641 12.2787C94.2352 12.0634 94.1985 11.8269 94.0655 11.6434C93.9324 11.4598 93.7193 11.3515 93.4928 11.3525Z" fill="white"/>
</svg>
