<svg width="41" height="50" viewBox="0 0 41 50" fill="none" xmlns="http://www.w3.org/2000/svg">
<path fill-rule="evenodd" clip-rule="evenodd" d="M20.5633 0C25.082 0 29.568 0 34.1276 0C38.4007 0 40.9302 2.61475 40.9302 6.95902C40.9302 14.2541 40.9302 21.5464 40.9302 28.8361C41.0468 39.159 33.3248 47.8873 23.0765 49.0164C11.4605 50.459 2.25935 42.3443 0.564837 33.2459C0.230099 31.5825 0.0411017 29.893 0 28.1967C0 21.3115 0 14.459 0 7.59836C0 2.45902 2.45581 0 7.54753 0H20.5633Z" fill="#D9AB28"/>
<path d="M32.7442 7.44262C32.5556 6.59846 31.8779 5.95108 31.0269 5.80218C30.1759 5.65329 29.3191 6.03219 28.8558 6.7623L19.1799 22.0738C17.7893 21.9046 16.3889 22.3002 15.2915 23.1721C14.6371 22.9943 13.9429 23.2592 13.5725 23.8279C13.4688 23.9906 13.3966 24.1713 13.3596 24.3607C12.7745 24.2958 12.2034 24.5691 11.8861 25.0656C11.6625 25.4094 11.5858 25.8286 11.6733 26.2295C11.7025 26.3635 11.7492 26.4931 11.8125 26.6148L7.80949 30.4098C7.48575 30.7392 7.30863 31.1855 7.31833 31.6475C7.3317 31.8697 7.37015 32.0897 7.43293 32.3033V32.4016C8.04279 34.6229 9.43205 36.5494 11.3459 37.8279L11.4687 37.918L11.6979 38.0656L11.837 38.1393C13.3418 39.0342 15.0559 39.5149 16.806 39.5328C17.3555 39.5365 17.9041 39.4844 18.4432 39.377H18.5414H18.6806C18.8002 40.9043 20.073 42.0824 21.603 42.082C22.3218 42.081 23.0152 41.8155 23.5513 41.3361C23.6976 41.4545 23.8603 41.5511 24.0342 41.623C24.0485 41.7889 24.0871 41.9519 24.1488 42.1066C24.4191 42.7445 25.0449 43.158 25.7369 43.1557C26.4862 43.1597 27.1517 42.6772 27.3819 41.9633C27.6121 41.2493 27.354 40.4683 26.7438 40.0328C26.834 39.3827 26.5889 38.7312 26.0928 38.3022C25.5966 37.8733 24.9171 37.7256 24.288 37.9098C23.6777 36.5633 22.1622 35.8818 20.7516 36.3197L21.8731 32.9426C22.4449 32.971 22.9851 32.6794 23.2756 32.1855C23.566 31.6915 23.5587 31.077 23.2566 30.5902C23.6041 30.3357 23.8292 29.9472 23.8775 29.5189C23.9257 29.0905 23.7925 28.6616 23.5103 28.3361C23.8295 26.9702 23.5908 25.5332 22.8473 24.3443L32.4822 9.01639C32.7706 8.54586 32.8645 7.98136 32.7442 7.44262Z" fill="white"/>
<path d="M25.086 40.5856C25.5311 40.3969 25.7387 39.8827 25.5498 39.4371C25.3609 38.9915 24.847 38.7831 24.4019 38.9718C23.9569 39.1605 23.7492 39.6747 23.9381 40.1203C24.127 40.5659 24.641 40.7742 25.086 40.5856Z" fill="#AB8B2F"/>
<path d="M25.9454 42.0211C26.2659 41.8854 26.4157 41.5152 26.2798 41.1942C26.144 40.8732 25.7739 40.7229 25.4534 40.8586C25.1328 40.9943 24.983 41.3645 25.1189 41.6855C25.2547 42.0065 25.6248 42.1568 25.9454 42.0211Z" fill="#AB8B2F"/>
<path d="M22.2826 40.843C23.2194 40.4465 23.657 39.3647 23.26 38.4267C22.863 37.4887 21.7817 37.0497 20.845 37.4462C19.9082 37.8426 19.4706 38.9245 19.8676 39.8625C20.2646 40.8005 21.3459 41.2395 22.2826 40.843Z" fill="#AB8B2F"/>
<path d="M31.107 6.95082C30.613 6.74742 30.0445 6.92683 29.7563 7.37705L19.6956 23.2869C20.0073 23.3794 20.3068 23.5087 20.5879 23.6721L20.6616 23.7213L20.7353 23.7623C21.003 23.9483 21.2476 24.1657 21.4638 24.4098L31.5654 8.46721C31.7271 8.21 31.7694 7.89523 31.6815 7.60435C31.5936 7.31347 31.384 7.07506 31.107 6.95082Z" fill="#AB8B2F"/>
<path d="M14.4811 25.5328L14.0882 25.9344L21.4556 30.6148L21.6521 30.0902L21.8322 29.6066L14.8413 25.1639L14.4811 25.5328Z" fill="#D9AB28"/>
<path d="M22.3233 28.3279C22.8125 26.6238 22.1519 24.7981 20.6861 23.8033L20.6125 23.7623L20.5388 23.7131C19.0121 22.824 17.0881 23.0157 15.7663 24.1885C15.6539 24.2918 15.5473 24.4012 15.4471 24.5164L22.1351 28.7705C22.2064 28.6268 22.2693 28.479 22.3233 28.3279Z" fill="#D9AB28"/>
<path d="M8.5626 31.2049C8.43813 31.3218 8.36709 31.4848 8.36613 31.6557C8.38361 31.8392 8.41926 32.0204 8.47255 32.1967C9.02838 34.1974 10.2984 35.9241 12.0417 37.0492L12.1645 37.1229L12.2791 37.1967C14.0367 38.2981 16.1369 38.7152 18.1812 38.3689C18.3625 38.3429 18.5407 38.2989 18.7133 38.2377C18.8685 38.1651 18.987 38.0317 19.0407 37.8689L21.1527 31.4918L13.4333 26.5738L8.5626 31.2049Z" fill="#D9AB28"/>
<path d="M22.528 28.9836L22.1596 28.7459L15.4716 24.5L15.1033 24.2623C14.8978 24.1612 14.6493 24.2306 14.5257 24.4235C14.4021 24.6165 14.4428 24.8716 14.6203 25.0164L14.8331 25.1557L21.824 29.5984L22.0368 29.7377C22.2423 29.8388 22.4908 29.7695 22.6144 29.5765C22.738 29.3835 22.6973 29.1284 22.5198 28.9836H22.528Z" fill="#AB8B2F"/>
<path d="M22.1023 31.041L21.4229 30.6148L14.0554 25.9344L13.376 25.5082C13.1705 25.4071 12.922 25.4765 12.7984 25.6694C12.6748 25.8624 12.7155 26.1175 12.893 26.2623L13.3924 26.5738L21.1118 31.4918L21.6112 31.8033C21.7454 31.9128 21.9303 31.9355 22.087 31.8618C22.2436 31.7881 22.3442 31.6311 22.3458 31.4578C22.3473 31.2845 22.2495 31.1256 22.0941 31.0492L22.1023 31.041Z" fill="#AB8B2F"/>
</svg>
