<svg width="786" height="122" viewBox="0 0 786 122" fill="none" xmlns="http://www.w3.org/2000/svg">
<path d="M433.966 109.999C432.345 109.999 431.031 108.215 431.031 106.014V90.0055H413.919V106.014C413.906 107.089 413.579 108.113 413.01 108.86C412.441 109.608 411.677 110.017 410.885 109.999C409.284 109.962 408 108.189 408 106.014V68.0528C408 65.8331 409.325 64.0338 410.96 64.0338C412.594 64.0338 413.919 65.8331 413.919 68.0528V82.9132H431.031V68.0528C431.031 65.8146 432.367 64 434.016 64C435.664 64 437 65.8146 437 68.0528V106.014C436.987 107.089 436.66 108.113 436.091 108.86C435.522 109.608 434.757 110.017 433.966 109.999Z" fill="white"/>
<path fill-rule="evenodd" clip-rule="evenodd" d="M444.472 105.128C446.845 108.383 450.12 110.147 453.5 109.99C456.881 110.147 460.155 108.383 462.528 105.128C464.901 101.872 466.154 97.4228 465.985 92.8605C465.985 83.5486 460.395 76 453.5 76C446.605 76 441.015 83.5486 441.015 92.8605C440.846 97.4228 442.1 101.872 444.472 105.128ZM446.608 92.8605C446.608 87.1952 449.056 82.2046 453.5 82.2046C457.895 82.2046 460.342 87.1277 460.342 92.8605C460.342 98.5928 457.895 103.583 453.5 103.583C449.105 103.583 446.608 98.5253 446.608 92.8605Z" fill="white"/>
<path d="M488.263 109.511C487.548 109.52 486.861 109.145 486.356 108.473C485.85 107.8 485.57 106.885 485.576 105.933V104.786C483.358 108.044 480.211 109.906 476.908 109.915C474.767 110.303 472.612 109.346 471.073 107.324C469.535 105.302 468.789 102.445 469.052 99.5888V79.6111C469.052 77.6168 470.266 76 471.764 76C473.261 76 474.476 77.6168 474.476 79.6111V96.9568C474.476 101.951 476.402 103.503 479.342 103.503C481.786 103.423 484.074 101.887 485.576 99.3187V79.6111C485.576 77.6168 486.79 76 488.288 76C489.786 76 491 77.6168 491 79.6111V105.933C490.993 106.891 490.701 107.806 490.188 108.477C489.675 109.147 488.982 109.519 488.263 109.511Z" fill="white"/>
<path d="M504.95 109.987C501.505 110.161 498.136 108.614 495.5 105.65C495.183 105.17 495.005 104.554 495 103.915C495.04 102.253 496.055 100.929 497.3 100.912C497.726 100.902 498.145 101.065 498.5 101.379C500.467 103.16 502.774 104.155 505.15 104.249C508.3 104.249 509.85 102.447 509.85 99.9781C509.85 93.7059 495.25 98.2434 495.25 85.8325C495.25 80.5611 498.7 76.0241 504.85 76.0241C507.967 75.797 511.03 77.1833 513.4 79.894C513.692 80.3361 513.852 80.9059 513.85 81.4953C513.809 83.0354 512.855 84.25 511.7 84.2308C511.314 84.2243 510.935 84.0868 510.6 83.8307C508.892 82.3358 506.892 81.5465 504.85 81.562C502.15 81.562 500.45 83.2967 500.45 85.4987C500.45 91.1706 515 86.9001 515 99.7111C515 105.65 511.45 109.987 504.95 109.987Z" fill="white"/>
<path fill-rule="evenodd" clip-rule="evenodd" d="M523.847 95.3147H539.532C540.203 95.3151 540.846 94.9437 541.312 94.2856C541.777 93.6276 542.025 92.7401 541.998 91.828C541.949 90.3671 541.75 88.9225 541.406 87.5369C540.157 80.6282 535.541 75.8308 530.308 76.0046C523.403 76.153 517.893 83.8825 518.002 93.2697C518.111 102.656 523.797 110.146 530.703 109.998C533.761 109.998 539.877 108.322 539.877 104.634C539.87 103.569 539.447 102.59 538.765 102.065C538.084 101.54 537.248 101.548 536.572 102.086C534.976 103.456 533.133 104.198 531.245 104.232C527.421 104.429 524.16 100.499 523.847 95.3147ZM523.797 90.4869C523.943 85.6752 526.864 81.883 530.407 81.9051V81.7709C532.147 81.6695 533.842 82.546 535.092 84.1946C536.342 85.8437 537.038 88.1193 537.016 90.4869H523.797Z" fill="white"/>
<path d="M563.461 109.996C562.589 110.055 561.759 109.491 561.273 108.508L554.606 96.207L551.323 100.871V106.413C551.317 107.372 551.03 108.288 550.526 108.96C550.022 109.632 549.342 110.004 548.637 109.996C547.935 110.005 547.261 109.63 546.765 108.956C546.269 108.283 545.993 107.366 546 106.413V67.6163C546 65.6191 547.192 64 548.662 64C550.132 64 551.323 65.6191 551.323 67.6163V92.4897L561.273 77.4844C561.723 76.8226 562.349 76.4334 563.014 76.4029C564.36 76.4882 565.439 77.9523 565.5 79.7825C565.475 80.5713 565.266 81.3287 564.904 81.9455L558.338 91.6107L565.5 104.183C565.806 104.78 565.977 105.484 565.998 106.21C566.056 108.201 564.925 109.886 563.461 109.996Z" fill="white"/>
<path fill-rule="evenodd" clip-rule="evenodd" d="M573.846 95.3147H589.606C590.263 95.2885 590.886 94.9048 591.338 94.2501C591.787 93.5953 592.025 92.7229 591.998 91.828C591.95 90.3667 591.751 88.9221 591.404 87.5369C590.157 80.6282 585.539 75.8308 580.309 76.0046C573.403 76.153 567.893 83.8825 568.002 93.2697C568.11 102.656 573.798 110.146 580.703 109.998C583.761 109.998 589.877 108.322 589.877 104.634C589.871 103.569 589.446 102.59 588.765 102.065C588.084 101.54 587.247 101.548 586.572 102.086C584.975 103.456 583.131 104.198 581.245 104.232C577.419 104.429 574.16 100.499 573.846 95.3147ZM573.846 90.3528C574.045 85.5811 576.964 81.8617 580.48 81.9051V81.7709C582.201 81.6797 583.873 82.5427 585.114 84.1611C586.355 85.7795 587.06 88.0146 587.066 90.3528H573.846Z" fill="white"/>
<path fill-rule="evenodd" clip-rule="evenodd" d="M600.846 95.3147H616.455C617.142 95.3433 617.802 94.9838 618.284 94.3229C618.766 93.6615 619.025 92.7577 618.998 91.828C618.947 90.3671 618.748 88.9225 618.405 87.5369C617.157 80.6282 612.539 75.8308 607.306 76.0046C600.4 76.153 594.89 83.8825 595.002 93.2697C595.11 102.656 600.795 110.146 607.7 109.998C610.758 109.998 616.877 108.322 616.877 104.634C616.868 103.569 616.446 102.59 615.762 102.065C615.082 101.54 614.247 101.548 613.572 102.086C611.975 103.454 610.132 104.196 608.243 104.232C604.419 104.429 601.16 100.499 600.846 95.3147ZM600.846 90.3528C601.039 85.6584 603.871 81.9681 607.333 81.9051V81.7709C609.074 81.6229 610.788 82.4605 612.063 84.085C613.337 85.7099 614.06 87.9778 614.063 90.3528H600.846Z" fill="white"/>
<path fill-rule="evenodd" clip-rule="evenodd" d="M628.181 104.893C629.923 108.196 632.692 110.147 635.637 110.146C641.664 110.146 646 103.748 646 93.0396C646 82.331 641.691 76.0001 635.637 76.0001C632.7 75.9841 629.932 77.9088 628.181 81.186V79.9067C628.181 77.9166 627.022 76.3033 625.591 76.3033C624.159 76.3033 623 77.9166 623 79.9067V118.632C623.065 120.532 624.198 122.02 625.567 122C626.942 122.022 628.09 120.543 628.181 118.632V104.893ZM634.087 82.3983H634.064C634.073 82.3983 634.079 82.3983 634.087 82.3983ZM628.181 86.7088C629.566 84.0795 631.745 82.4883 634.087 82.3983C638.068 82.4152 640.623 86.788 640.623 93.0396C640.623 99.3031 638.059 103.748 634.087 103.748C631.751 103.629 629.58 102.044 628.181 99.4379V86.7088Z" fill="white"/>
<path fill-rule="evenodd" clip-rule="evenodd" d="M654.792 95.3191H670.332C671.037 95.407 671.732 95.0742 672.243 94.4062C672.753 93.7381 673.028 92.8001 672.998 91.8336C672.95 90.3727 672.753 88.9286 672.41 87.5437C671.156 80.5227 666.461 75.6956 661.195 76.0149C654.354 76.1634 648.894 83.8905 649.002 93.2748C649.109 102.659 654.745 110.146 661.586 109.998C664.616 109.998 670.675 108.322 670.675 104.636C670.67 103.571 670.249 102.592 669.574 102.067C668.899 101.542 668.07 101.551 667.401 102.089C665.819 103.458 663.992 104.2 662.124 104.234C658.336 104.43 655.103 100.502 654.792 95.3191ZM654.745 90.4929C654.888 85.6826 657.783 81.8916 661.294 81.9137V81.7796C663.016 81.6782 664.697 82.5544 665.935 84.2025C667.174 85.851 667.864 88.126 667.84 90.4929H654.745Z" fill="white"/>
<path d="M688.293 83.0875C686.186 83.2487 684.239 84.7291 682.979 87.1277V106.37C682.964 108.367 681.829 109.981 680.418 110C679.751 110.002 679.114 109.613 678.657 108.926C678.199 108.238 677.963 107.314 678.005 106.37V79.6638C678.005 77.6404 679.161 76 680.586 76C682.014 76 683.171 77.6404 683.171 79.6638V81.3757C684.345 78.4896 686.399 76.5409 688.727 76.1028C689.332 76.0539 689.922 76.368 690.353 76.9674C690.786 77.5669 691.019 78.3965 690.999 79.2528C691.011 80.2754 690.73 81.262 690.22 81.9851C689.709 82.7082 689.013 83.1063 688.293 83.0875Z" fill="white"/>
<path d="M693.501 110C692.086 110 690.809 108.782 690.267 106.913C689.725 105.045 690.023 102.894 691.026 101.465C692.026 100.035 693.531 99.6068 694.841 100.381C696.148 101.155 697 102.978 697 105C696.973 107.746 695.422 109.962 693.501 110Z" fill="white"/>
<path d="M720.251 106.37C718.108 108.86 715.337 110.154 712.505 109.985C709.124 110.131 705.852 108.377 703.481 105.147C701.109 101.917 699.852 97.5049 700.014 92.9781C699.867 88.4623 701.131 84.0687 703.499 80.8538C705.87 77.6389 709.133 75.8936 712.505 76.0374C715.575 75.7294 718.581 77.3355 720.651 80.3898C720.892 80.8113 721.014 81.3321 720.999 81.8631C720.895 83.6067 719.805 84.9485 718.502 84.9432C717.944 84.9579 717.397 84.7222 716.952 84.2733C715.749 83.0341 714.272 82.3736 712.755 82.3986C710.714 82.3773 708.761 83.5157 707.378 85.5317C705.999 87.5478 705.318 90.2534 705.51 92.9781C705.321 95.7086 705.999 98.4203 707.378 100.447C708.757 102.473 710.708 103.627 712.755 103.624C714.278 103.636 715.758 102.951 716.952 101.683C717.397 101.234 717.944 100.998 718.502 101.013C719.824 101.01 720.919 102.39 720.999 104.16C721.023 105.014 720.745 105.832 720.251 106.37Z" fill="white"/>
<path fill-rule="evenodd" clip-rule="evenodd" d="M726.471 105.128C728.845 108.383 732.117 110.147 735.5 109.99C738.88 110.147 742.153 108.383 744.526 105.128C746.899 101.872 748.153 97.4228 747.985 92.8605C747.985 83.5486 742.394 76 735.5 76C728.604 76 723.015 83.5486 723.015 92.8605C722.845 97.4228 724.098 101.872 726.471 105.128ZM728.607 92.8605C728.607 87.1952 731.053 82.2046 735.5 82.2046C739.893 82.2046 742.342 87.1277 742.342 92.8605C742.342 98.5928 739.893 103.583 735.5 103.583C731.105 103.583 728.607 98.5253 728.607 92.8605Z" fill="white"/>
<path d="M783.248 109.999C781.791 109.981 780.613 108.383 780.601 106.406V88.306C780.601 84.9163 779.498 82.4756 776.698 82.4756C774.465 82.6745 772.419 84.2476 771.149 86.7465V106.406C771.143 107.368 770.856 108.287 770.349 108.961C769.842 109.635 769.158 110.008 768.449 109.999C767.744 110.008 767.066 109.633 766.568 108.957C766.071 108.281 765.793 107.362 765.799 106.406V88.306C765.799 84.9163 764.651 82.4756 761.85 82.4756C759.621 82.6906 757.59 84.2926 756.35 86.8144V106.406C756.344 107.368 756.057 108.287 755.55 108.961C755.043 109.635 754.359 110.008 753.651 109.999C752.945 110.008 752.267 109.633 751.77 108.957C751.272 108.281 750.994 107.362 751 106.406V79.9675C751 77.9644 752.197 76.3405 753.675 76.3405C755.153 76.3405 756.35 77.9644 756.35 79.9675V81.3231C758.268 78.0823 761.139 76.1486 764.199 76.0353C767.176 75.6689 769.934 78.1894 770.801 82.0691C772.67 78.3709 775.742 76.1242 779.049 76.0353C783.45 76.0353 786 79.425 786 85.9331V106.271C786.012 107.265 785.728 108.224 785.209 108.927C784.69 109.631 783.981 110.018 783.248 109.999Z" fill="white"/>
<path d="M420.126 10.9071C422.42 10.7795 424.485 12.7684 425.137 15.7337L431 12.8648C429.46 6.58992 424.943 2.5375 420.051 3.04235C413.011 3.07612 408 10.6032 408 20.9993C408 31.3953 413.011 38.9558 420.126 38.9558C424.987 39.4709 429.478 35.4412 431 29.2013L425.212 26.3324C424.551 29.2841 422.488 31.257 420.201 31.1252C416.619 31.1252 414.665 27.0073 414.665 20.9993C414.665 14.9913 416.543 10.9071 420.126 10.9071Z" fill="white"/>
<path fill-rule="evenodd" clip-rule="evenodd" d="M449.071 30.3891C449.071 31.328 449.315 31.8841 449.73 31.8841C450.155 31.9434 450.583 31.9082 451 31.7797V37.3766C449.612 38.1603 448.145 38.618 446.654 38.7325C445.165 38.7325 444.115 38.0369 443.798 35.7425C442.029 37.7422 439.855 38.8758 437.597 38.9755C436.111 39.1485 434.644 38.4 433.573 36.922C432.502 35.4435 431.931 33.3794 432.007 31.2585C432.007 25.453 435.327 23.8541 437.768 23.402C438.081 23.3418 438.455 23.2909 438.857 23.2358C440.774 22.9745 443.359 22.6217 443.359 20.7255C443.334 18.9871 442.529 18.292 441.162 18.292C439.838 18.2114 438.631 19.3662 438.183 21.1424L433.471 18.6393C434.326 15.3025 435.766 12 441.454 12C447.143 12 449.071 15.7194 449.071 20.8642V30.3891ZM440.576 33.4138C441.557 33.1665 442.494 32.6466 443.334 31.8841L443.31 26.7045C442.525 27.1269 441.704 27.3958 440.869 27.5039C438.964 27.7821 438.134 28.9293 438.134 30.9803C438.134 33.0312 439.257 33.7264 440.576 33.4138Z" fill="white"/>
<path d="M459.261 16.115C459.157 14.9883 458.715 13.964 458.034 13.2717C457.353 12.5794 456.49 12.2772 455.639 12.4329C454.048 12.5454 452.481 12.9988 451 13.775V19.6595C451.449 19.5663 451.906 19.5663 452.355 19.6595C452.798 19.6595 453.033 20.2098 453.033 21.1389V38H459.313V22.3777C459.954 21.0419 461.037 20.1863 462.231 20.0721C463.13 20.0079 464.026 20.2447 464.837 20.7602L467 13.2247C465.72 12.0543 464.112 11.7004 462.614 12.26C461.116 12.8191 459.886 14.2331 459.261 16.115Z" fill="white"/>
<path fill-rule="evenodd" clip-rule="evenodd" d="M468.49 15.8947C470.216 13.3393 472.619 11.9274 475.113 12.0029C477.574 11.9741 479.931 13.4067 481.615 15.9537C483.298 18.501 484.155 21.9305 483.977 25.4133L471.734 29.4781C472.314 31.282 473.654 32.3387 475.04 32.084C476.734 32.1327 478.294 30.7755 479.031 28.6096L483.757 31.0417C482.243 35.9559 478.794 39.095 475.015 38.9975C472.517 39.0679 470.114 37.6352 468.402 35.0531C466.69 32.4714 465.827 28.9818 466.029 25.4481C465.871 21.9152 466.763 18.4502 468.49 15.8947ZM474.819 18.7774C472.847 18.9355 471.28 21.1887 471.195 23.9887L478.468 21.6266C477.825 19.6425 476.344 18.4862 474.819 18.7774Z" fill="white"/>
<path d="M501.78 30.1447C500.717 30.4592 499.634 30.622 498.548 30.6296C495.001 30.6296 492.352 27.1641 492.352 20.5108C492.352 13.8571 494.952 10.1147 498.645 10.1147C500.661 10.0644 502.579 11.3433 503.845 13.5798L507.708 7.82743C505.416 4.0165 502.043 1.87851 498.524 2.00534C495.063 1.91317 491.735 3.90615 489.358 7.4947C486.981 11.0832 485.774 15.9346 486.035 20.8571C485.81 25.6945 487.042 30.4389 489.422 33.8998C491.802 37.3607 495.104 39.209 498.499 38.9812C501.909 39.0919 505.249 37.5936 508 34.7187V21.5851H501.78V30.11V30.1447Z" fill="white"/>
<path d="M528.731 31.5517C528.308 31.5517 528.084 31.0001 528.084 30.0691V13H522.089V29.5862C521.244 30.6489 520.168 31.2917 519.03 31.4137C516.244 31.4137 515.995 28.5862 515.995 25.2413V13H510V29.5517C510 36.138 512.786 39 515.871 39C518.291 38.939 520.583 37.4758 522.189 34.9656C522.269 36.0863 522.675 37.1128 523.314 37.809C523.952 38.5053 524.768 38.8111 525.572 38.6555C527.091 38.5419 528.586 38.0879 530 37.3105V31.3106C529.589 31.4814 529.161 31.5626 528.731 31.5517Z" fill="white"/>
<path d="M535.444 13.0362C533.919 13.1459 532.419 13.588 531 14.3449V20.0827C531.43 19.9919 531.868 19.9919 532.298 20.0827C532.722 20.0827 532.947 20.6194 532.947 21.5253V38H538.964V17.8682C539.114 16.5533 538.794 15.2205 538.102 14.27C537.41 13.3199 536.425 12.8626 535.444 13.0362Z" fill="white"/>
<path fill-rule="evenodd" clip-rule="evenodd" d="M560.125 30.2604C560.125 31.1986 560.345 31.7544 560.767 31.7544C561.18 31.807 561.596 31.7718 562 31.6501V37.6275C560.598 38.4114 559.115 38.8693 557.608 38.9825C556.911 39.0813 556.218 38.7591 555.701 38.0964C555.183 37.4338 554.889 36.4926 554.893 35.5077C553.446 37.7259 551.405 38.9867 549.267 38.9825C544.331 38.9825 541 32.9707 541 25.4646C541 17.9584 544.455 11.9814 549.39 11.9814C551.157 11.9623 552.868 12.8522 554.202 14.4836V1H560.125V30.2604ZM550.106 31.4072C552.099 31.6794 553.897 29.7122 554.202 26.9242L554.177 22.4413C553.252 20.4673 551.71 19.2396 550.032 19.1399C547.811 19.1399 546.429 21.225 546.429 25.2212C546.429 29.2179 547.811 31.4072 550.106 31.4072Z" fill="white"/>
<path fill-rule="evenodd" clip-rule="evenodd" d="M568.765 29.5129C569.344 31.3168 570.68 32.3735 572.062 32.1187C573.741 32.134 575.274 30.7662 575.993 28.6096L580.706 31.0417C579.197 35.9559 575.757 39.0954 571.99 38.9975C569.499 39.0679 567.104 37.6352 565.395 35.0531C563.688 32.4714 562.826 28.9818 563.029 25.4481C562.871 21.9152 563.76 18.4502 565.481 15.8947C567.205 13.3393 569.601 11.9274 572.088 12.0029C574.555 11.9537 576.924 13.3825 578.612 15.9397C580.303 18.4968 581.162 21.9474 580.975 25.4481L568.765 29.5129ZM575.432 21.6266C574.791 19.6425 573.314 18.4862 571.793 18.7774C569.848 18.9881 568.324 21.2472 568.252 24.0235L575.432 21.6266Z" fill="white"/>
<path d="M536.839 0.0914706C536.098 0.0872731 535.408 0.607338 535.012 1.4674C534.449 0.143518 533.245 -0.370671 532.236 0.282454C531.227 0.935579 530.748 2.53985 531.132 3.97916C531.733 6.83469 534.912 9.93116 535.012 10C535.012 10 538.29 6.80027 538.891 3.97916C539.109 3.07545 538.996 2.08275 538.59 1.31251C538.183 0.541859 537.531 0.0872731 536.839 0.0914706Z" fill="white"/>
<path d="M14.1802 67.0661C14.1802 84.2769 23.5215 95.3954 35.8924 95.3954C48.1371 95.3954 57.6046 83.9723 57.6046 67.0661V1.26923H70.8592V107.885H57.7309V97.9846C51.7979 105.448 43.5927 109.712 34.3776 109.712C15.4425 109.712 0.925659 93.1108 0.925659 67.98V1.26923H14.1802V67.0661V67.0661ZM83.8612 107.885V1.26923H96.6108V40.1077C99.5844 36.4331 103.139 33.5155 107.063 31.5272C110.988 29.539 115.203 28.5206 119.459 28.5323C138.394 28.5323 153.29 46.6569 153.29 69.1985C153.29 91.5877 138.394 109.712 119.459 109.712C110.497 109.712 102.291 105.295 96.4846 98.1369V107.885H83.8612V107.885ZM96.3584 69.1985C96.3584 84.1246 106.205 96.1569 118.576 96.1569C130.694 96.1569 140.666 84.1246 140.666 69.1985C140.666 54.12 130.694 42.24 118.576 42.24C106.331 42.24 96.3584 54.12 96.3584 69.1985V69.1985ZM160.864 69.0461C160.864 47.1138 175.128 28.6846 193.937 28.6846C212.493 28.6846 226.127 45.8954 226.127 69.0461V74.0723H173.74C175.507 86.7138 184.217 96.1569 195.073 96.1569C202.521 96.1569 208.833 92.5015 213.63 84.7338L222.845 92.9585C216.407 103.315 206.813 109.56 195.073 109.56C175.759 109.56 160.864 92.1969 160.864 69.0461V69.0461ZM193.685 42.0877C184.217 42.0877 176.264 50.0077 173.992 61.8877H213.251C211.105 50.0077 203.152 42.0877 193.685 42.0877ZM268.541 43.9154H263.239C254.908 43.9154 248.849 51.6831 248.849 63.7154V107.885H236.099V30.2077H248.723V39.8031C251.878 33.5585 257.054 29.5985 264.123 29.5985H268.541V43.9154V43.9154Z" fill="white"/>
<path d="M335 89C348.807 89 360 77.8071 360 64C360 50.1929 348.807 39 335 39C321.193 39 310 50.1929 310 64C310 77.8071 321.193 89 335 89Z" stroke="white" stroke-width="5" stroke-linecap="round" stroke-linejoin="round"/>
<path d="M335 54V74" stroke="white" stroke-width="5" stroke-linecap="round" stroke-linejoin="round"/>
<path d="M325 64H345" stroke="white" stroke-width="5" stroke-linecap="round" stroke-linejoin="round"/>
</svg>
