<svg width="164" height="50" viewBox="0 0 164 50" fill="none" xmlns="http://www.w3.org/2000/svg">
<path fill-rule="evenodd" clip-rule="evenodd" d="M20.5984 0C25.1248 0 29.6184 0 34.1858 0C38.4662 0 41 2.61475 41 6.95902C41 14.2541 41 21.5464 41 28.8361C41.1168 39.159 33.3816 47.8873 23.1158 49.0164C11.48 50.459 2.2632 42.3443 0.5658 33.2459C0.230491 31.5825 0.0411718 29.893 0 28.1967C0 21.3115 0 14.459 0 7.59836C0 2.45902 2.46 0 7.5604 0H20.5984Z" fill="#00BBD3"/>
<path d="M59.4008 37.8443C58.8696 37.8443 58.4377 37.4162 58.4332 36.8852V32.9918H52.7916V36.8852C52.7873 37.1461 52.6795 37.3946 52.4918 37.576C52.3042 37.7574 52.0522 37.8568 51.7912 37.8525C51.2632 37.8435 50.8399 37.4131 50.84 36.8852V27.6639C50.84 27.1252 51.2769 26.6885 51.8158 26.6885C52.3547 26.6885 52.7916 27.1252 52.7916 27.6639V31.2705H58.4332V27.6639C58.4332 27.1207 58.8737 26.6803 59.4172 26.6803C59.9606 26.6803 60.4012 27.1207 60.4012 27.6639V36.8852C60.3878 37.4253 59.9411 37.8534 59.4008 37.8443Z" fill="#00BBD3"/>
<path fill-rule="evenodd" clip-rule="evenodd" d="M62.5832 36.7634C63.363 37.5554 64.4399 37.9833 65.5508 37.9426C66.661 37.9807 67.7363 37.552 68.5155 36.7606C69.2948 35.9693 69.7065 34.8877 69.6508 33.7787C69.6508 31.5152 67.8152 29.6803 65.5508 29.6803C63.2864 29.6803 61.4508 31.5152 61.4508 33.7787C61.3925 34.8884 61.8035 35.9714 62.5832 36.7634ZM63.2876 33.7787C63.2876 32.4016 64.0912 31.1885 65.5508 31.1885C66.994 31.1885 67.7976 32.3852 67.7976 33.7787C67.7976 35.1721 66.994 36.3852 65.5508 36.3852C64.1076 36.3852 63.2876 35.1557 63.2876 33.7787Z" fill="#00BBD3"/>
<path d="M76.957 37.8443C76.7258 37.8465 76.5034 37.7556 76.3399 37.5922C76.1765 37.4288 76.0856 37.2065 76.0878 36.9754V36.6967C75.37 37.488 74.3519 37.9403 73.2834 37.9426C72.5905 38.0368 71.8931 37.8043 71.3955 37.3133C70.8978 36.8222 70.6562 36.1282 70.7414 35.4344V30.582C70.7414 30.0976 71.1342 29.7049 71.6188 29.7049C72.1034 29.7049 72.4962 30.0976 72.4962 30.582V34.7951C72.4962 36.0082 73.1194 36.3852 74.0706 36.3852C74.8616 36.3667 75.6024 35.9935 76.0878 35.3689V30.582C76.0878 30.0976 76.4806 29.7049 76.9652 29.7049C77.4498 29.7049 77.8426 30.0976 77.8426 30.582V36.9754C77.8404 37.208 77.7459 37.4302 77.5798 37.5932C77.4137 37.7561 77.1897 37.8464 76.957 37.8443Z" fill="#00BBD3"/>
<path d="M82.1394 37.9426C81.0106 37.9877 79.9055 37.6107 79.0398 36.8852C78.9358 36.7674 78.8776 36.6161 78.8758 36.459C78.889 36.0508 79.2216 35.7255 79.6302 35.7213C79.77 35.7187 79.9073 35.7588 80.0238 35.8361C80.669 36.2736 81.4257 36.5181 82.205 36.541C83.2382 36.541 83.7466 36.0984 83.7466 35.4918C83.7466 33.9508 78.9578 35.0656 78.9578 32.0164C78.9578 30.7213 80.0894 29.6066 82.1066 29.6066C83.129 29.5508 84.1335 29.8914 84.911 30.5574C85.0068 30.666 85.0593 30.806 85.0586 30.9508C85.0453 31.3292 84.7321 31.6276 84.3534 31.623C84.2267 31.6213 84.1026 31.5875 83.9926 31.5246C83.4325 31.1573 82.7764 30.9634 82.1066 30.9672C81.221 30.9672 80.6634 31.3934 80.6634 31.9344C80.6634 33.3279 85.4358 32.2787 85.4358 35.4262C85.4358 36.8852 84.2714 37.9426 82.1394 37.9426Z" fill="#00BBD3"/>
<path fill-rule="evenodd" clip-rule="evenodd" d="M88.2238 34.3525H93.439C93.6623 34.3526 93.876 34.2618 94.0307 34.1009C94.1855 33.94 94.2679 33.723 94.259 33.5C94.2433 33.1427 94.177 32.7895 94.0622 32.4508C93.6469 30.7616 92.1119 29.5886 90.3722 29.6311C88.0761 29.6674 86.2442 31.5573 86.2804 33.8525C86.3166 36.1476 88.2073 37.9788 90.5034 37.9426C91.5202 37.9426 93.5538 37.5328 93.5538 36.6311C93.5515 36.3708 93.4106 36.1315 93.1841 36.003C92.9575 35.8746 92.6797 35.8766 92.455 36.0082C91.9243 36.343 91.3113 36.5245 90.6838 36.5328C89.4123 36.5809 88.3282 35.6201 88.2238 34.3525ZM88.2074 33.1721C88.2559 31.9956 89.227 31.0684 90.405 31.0738L90.3968 31.041C90.9769 31.0138 91.5424 31.2271 91.96 31.6306C92.3775 32.034 92.61 32.5917 92.6026 33.1721H88.2074Z" fill="#00BBD3"/>
<path d="M99.5316 38.0082C97.8916 38.0082 96.2516 37.4836 95.4808 36.6148C95.3519 36.4641 95.282 36.272 95.284 36.0738C95.2969 35.5632 95.708 35.1523 96.2188 35.1393C96.4069 35.1352 96.5913 35.1928 96.7436 35.3033C97.5648 35.9399 98.5743 36.2859 99.6136 36.2869C101.155 36.2869 101.778 35.5164 101.778 34.8115C101.778 32.5492 95.4152 33.9918 95.4152 29.8934C95.4152 28.0738 96.9896 26.6803 99.4004 26.6803C100.712 26.6803 102.352 27.0902 103.074 27.877C103.199 28.0234 103.269 28.2091 103.271 28.4016C103.245 28.9075 102.826 29.304 102.32 29.3033C102.132 29.3046 101.948 29.2473 101.795 29.1393C101.032 28.6489 100.143 28.3925 99.2364 28.4016C98.1212 28.4016 97.416 28.9426 97.416 29.7459C97.416 31.7623 103.763 30.5 103.763 34.582C103.771 36.4508 102.5 38.0082 99.5316 38.0082Z" fill="#00BBD3"/>
<path fill-rule="evenodd" clip-rule="evenodd" d="M106.107 28.8801C106.511 28.7074 106.771 28.3079 106.764 27.8688C106.755 27.2777 106.273 26.8032 105.682 26.8033C105.242 26.8033 104.847 27.0687 104.68 27.4751C104.514 27.8814 104.609 28.348 104.922 28.6561C105.235 28.9642 105.703 29.0527 106.107 28.8801ZM105.065 37.6824C105.228 37.8458 105.45 37.9366 105.682 37.9344V37.9098C106.157 37.9146 106.549 37.5403 106.567 37.0656V30.6721C106.567 30.1877 106.174 29.7951 105.69 29.7951C105.205 29.7951 104.812 30.1877 104.812 30.6721V37.0656C104.81 37.2967 104.901 37.519 105.065 37.6824Z" fill="#00BBD3"/>
<path d="M111.012 38.0082C110.449 38.0783 109.886 37.8851 109.485 37.4845C109.085 37.084 108.891 36.5211 108.962 35.959V31.4344H108.306C108.095 31.4304 107.896 31.3405 107.753 31.1857C107.611 31.031 107.538 30.8247 107.551 30.6148C107.556 30.2001 107.891 29.8651 108.306 29.8607H108.962V28.4672C108.984 27.9814 109.394 27.6044 109.88 27.623C110.343 27.645 110.705 28.0289 110.7 28.4918V29.8852H111.668C112.093 29.8852 112.438 30.2302 112.438 30.6557C112.438 31.0813 112.093 31.4262 111.668 31.4262H110.7V35.5246C110.7 36.1311 111.044 36.459 111.454 36.459C111.569 36.459 111.717 36.4098 111.815 36.4098C112.02 36.3982 112.22 36.4733 112.367 36.6168C112.514 36.7603 112.593 36.9589 112.586 37.1639C112.602 37.7049 112.127 38.0082 111.012 38.0082Z" fill="#00BBD3"/>
<path d="M116.44 38.0082C115.878 38.0783 115.315 37.8851 114.914 37.4845C114.513 37.084 114.32 36.5211 114.39 35.959V31.4344H113.734C113.524 31.4304 113.324 31.3405 113.182 31.1857C113.039 31.0309 112.966 30.8247 112.98 30.6148C112.984 30.2001 113.319 29.8651 113.734 29.8607H114.39V28.4672C114.394 28.2324 114.492 28.009 114.661 27.846C114.83 27.6831 115.057 27.594 115.292 27.5984C115.755 27.6204 116.117 28.0043 116.112 28.4672V29.8607H117.08C117.505 29.8607 117.85 30.2056 117.85 30.6311C117.85 31.0567 117.505 31.4016 117.08 31.4016H116.112V35.5C116.112 36.1066 116.456 36.4344 116.866 36.4344C116.981 36.4344 117.129 36.3852 117.227 36.3852C117.432 36.3736 117.632 36.4487 117.779 36.5922C117.926 36.7357 118.005 36.9343 117.998 37.1393C118.08 37.7049 117.596 38.0082 116.44 38.0082Z" fill="#00BBD3"/>
<path fill-rule="evenodd" clip-rule="evenodd" d="M120.54 34.4262H125.755C125.987 34.4359 126.212 34.3469 126.375 34.1813C126.537 34.0157 126.622 33.789 126.608 33.5574C126.592 33.2002 126.526 32.847 126.411 32.5082C125.996 30.8189 124.461 29.646 122.721 29.6885C120.425 29.7247 118.593 31.6147 118.629 33.9098C118.666 36.205 120.556 38.0362 122.852 38C123.869 38 125.903 37.5902 125.903 36.6885C125.9 36.4282 125.76 36.1888 125.533 36.0604C125.307 35.932 125.029 35.9339 124.804 36.0656C124.265 36.4116 123.64 36.599 123 36.6066C121.728 36.6547 120.644 35.6938 120.54 34.4262ZM120.54 33.2049C120.609 32.0509 121.565 31.1498 122.721 31.1475V31.1066C123.297 31.0774 123.859 31.2853 124.278 31.6817C124.696 32.0782 124.934 32.6287 124.935 33.2049H120.54Z" fill="#00BBD3"/>
<path d="M131.364 31.4672C130.648 31.5046 129.987 31.8593 129.56 32.4344V37.041C129.556 37.519 129.169 37.9054 128.691 37.9098C128.228 37.8878 127.866 37.5039 127.871 37.041V30.6475C127.871 30.1632 128.264 29.7705 128.748 29.7705C129.233 29.7705 129.626 30.1632 129.626 30.6475V31.0574C130.024 30.3665 130.721 29.9 131.512 29.7951C131.716 29.7834 131.917 29.8586 132.064 30.0021C132.21 30.1456 132.29 30.3442 132.282 30.5492C132.287 30.794 132.192 31.0301 132.018 31.2033C131.845 31.3764 131.609 31.4717 131.364 31.4672Z" fill="#00BBD3"/>
<path d="M132.84 37.9918C132.369 37.9918 131.944 37.7082 131.764 37.2733C131.584 36.8384 131.684 36.3377 132.017 36.0048C132.35 35.672 132.85 35.5724 133.286 35.7525C133.721 35.9327 134.004 36.3571 134.004 36.8279C133.996 37.467 133.479 37.983 132.84 37.9918Z" fill="#00BBD3"/>
<path d="M141.688 37.123C140.986 37.7333 140.075 38.0503 139.146 38.0082C138.036 38.0438 136.962 37.6143 136.184 36.8235C135.405 36.0327 134.993 34.9526 135.046 33.8443C134.997 32.7387 135.412 31.663 136.19 30.8759C136.968 30.0888 138.039 29.6614 139.146 29.6967C140.153 29.6213 141.14 30.0144 141.819 30.7623C141.898 30.8654 141.939 30.993 141.934 31.123C141.9 31.5499 141.542 31.8784 141.114 31.877C140.931 31.8807 140.752 31.823 140.605 31.7131C140.211 31.4096 139.726 31.2479 139.228 31.2541C138.558 31.2488 137.916 31.5276 137.463 32.0212C137.01 32.5148 136.787 33.1772 136.85 33.8443C136.787 34.5128 137.01 35.1767 137.463 35.6728C137.915 36.169 138.556 36.4514 139.228 36.4508C139.728 36.4536 140.214 36.2859 140.605 35.9754C140.752 35.8656 140.931 35.8079 141.114 35.8115C141.548 35.8107 141.908 36.1486 141.934 36.582C141.942 36.791 141.85 36.9914 141.688 37.123Z" fill="#00BBD3"/>
<path fill-rule="evenodd" clip-rule="evenodd" d="M143.741 36.8262C144.521 37.6176 145.596 38.0463 146.706 38.0082C147.816 38.0463 148.892 37.6176 149.671 36.8262C150.45 36.0348 150.862 34.9533 150.806 33.8443C150.806 31.5808 148.971 29.7459 146.706 29.7459C144.442 29.7459 142.606 31.5808 142.606 33.8443C142.55 34.9533 142.962 36.0348 143.741 36.8262ZM144.443 33.8443C144.443 32.4672 145.247 31.2541 146.706 31.2541C148.149 31.2541 148.953 32.4508 148.953 33.8443C148.953 35.2377 148.149 36.4508 146.706 36.4508C145.263 36.4508 144.443 35.2213 144.443 33.8443Z" fill="#00BBD3"/>
<path d="M162.516 37.9098C162.038 37.9054 161.651 37.519 161.647 37.041V32.6639C161.647 31.8443 161.286 31.2541 160.367 31.2541C159.635 31.3022 158.964 31.6826 158.547 32.2869V37.041C158.545 37.2736 158.45 37.4958 158.284 37.6588C158.118 37.8217 157.894 37.912 157.661 37.9098C157.43 37.912 157.208 37.8212 157.044 37.6578C156.881 37.4944 156.79 37.2721 156.792 37.041V32.6639C156.792 31.8443 156.415 31.2541 155.497 31.2541C154.765 31.306 154.099 31.6934 153.693 32.3033V37.041C153.69 37.2736 153.596 37.4958 153.43 37.6588C153.264 37.8217 153.04 37.912 152.807 37.9098C152.576 37.912 152.353 37.8212 152.19 37.6578C152.026 37.4944 151.936 37.2721 151.938 37.041V30.6475C151.938 30.1632 152.331 29.7705 152.815 29.7705C153.3 29.7705 153.693 30.1632 153.693 30.6475V30.9754C154.321 30.1917 155.263 29.724 156.267 29.6967C157.242 29.6071 158.145 30.2127 158.432 31.1475C159.047 30.2543 160.054 29.7113 161.138 29.6885C162.581 29.6885 163.418 30.5082 163.418 32.082V37C163.425 37.2419 163.332 37.476 163.162 37.6479C162.991 37.8198 162.758 37.9144 162.516 37.9098Z" fill="#00BBD3"/>
<path d="M33.2182 16.4426H33.4396C34.5227 16.395 35.5428 15.9205 36.2768 15.123C37.0155 14.333 37.4004 13.2765 37.3428 12.1967C37.2198 10.3747 35.9057 8.85387 34.1202 8.46721C33.5207 7.63234 32.5571 7.13547 31.529 7.13115H31.1354C30.1139 7.2557 29.2157 7.86646 28.7246 8.77049C26.7787 9.03837 25.3512 10.7345 25.42 12.6967C24.7731 13.5587 24.8105 14.7539 25.5102 15.5738C24.6177 15.7037 23.955 16.4673 23.9522 17.3689V17.8279L22.14 15.7213L20.7788 14.082L20.6886 13.9918C20.3436 13.6508 19.8781 13.4594 19.393 13.459C18.9272 13.4558 18.4802 13.6422 18.1548 13.9754C17.7776 14.3607 16.892 15.4508 16.7362 15.6148L5.289 28.5492C4.95958 28.9119 4.79039 29.3921 4.81971 29.8811C4.84904 30.3702 5.07439 30.8267 5.4448 31.1475L5.5022 31.1967L8.2 33.1885C8.62071 33.5041 9.17078 33.5901 9.6678 33.418H9.7498L12.0212 38.8443C12.3784 39.6205 13.1678 40.1056 14.022 40.0738H24.6C25.4468 40.1029 26.23 39.6262 26.5926 38.8607L28.946 33.4098L29.1756 33.5082C29.3441 33.5681 29.5216 33.5986 29.7004 33.5984C30.0411 33.5966 30.3719 33.4844 30.6434 33.2787L33.3166 31.2541L33.374 31.2049C34.1246 30.5389 34.1943 29.3912 33.5298 28.6393L29.9464 24.5902V17.3443C29.948 16.9754 29.8364 16.6149 29.6266 16.3115C30.1461 16.2652 30.6509 16.1146 31.1108 15.8689C31.7496 16.2444 32.4771 16.4425 33.2182 16.4426Z" fill="white"/>
<path d="M20.8116 36.8033C20.9882 36.8033 21.1314 36.6602 21.1314 36.4836C21.1314 36.3071 20.9882 36.1639 20.8116 36.1639C20.635 36.1639 20.4918 36.3071 20.4918 36.4836C20.4918 36.6602 20.635 36.8033 20.8116 36.8033Z" fill="#00BBD3"/>
<path d="M15.7768 28.1639C15.0789 28.1216 14.4763 28.6473 14.4238 29.3443V30.9836C14.428 31.0424 14.4554 31.097 14.5001 31.1355C14.5447 31.1739 14.6028 31.193 14.6616 31.1885H16.892C16.9508 31.193 17.0089 31.1739 17.0535 31.1355C17.0982 31.097 17.1256 31.0424 17.1298 30.9836V29.3443C17.0773 28.6473 16.4747 28.1216 15.7768 28.1639Z" fill="#0090BA"/>
<path d="M22.6484 28.1639C21.9598 28.1354 21.3724 28.6574 21.32 29.3443V30.9836C21.3242 31.0424 21.3516 31.097 21.3963 31.1355C21.4409 31.1739 21.499 31.193 21.5578 31.1885H23.78C23.8388 31.193 23.8969 31.1739 23.9415 31.1355C23.9862 31.097 24.0136 31.0424 24.0178 30.9836V29.3443C23.9654 28.6405 23.3525 28.1122 22.6484 28.1639Z" fill="#0090BA"/>
<path d="M32.8 29.2869L31.98 28.3361L28.9788 24.9508L24.9772 20.4918L21.32 16.3934L19.9506 14.7541C19.6398 14.4774 19.1709 14.4774 18.86 14.7541C18.491 15.1311 17.4906 16.3934 17.4906 16.3934L6.8962 28.2787L6.0762 29.2295C5.8081 29.554 5.82937 30.0287 6.1254 30.3279L8.7986 32.3525C8.94337 32.4638 9.13456 32.4946 9.307 32.4344C9.73631 32.2972 10.03 31.9013 10.0368 31.4508V31.3852C10.6282 31.3586 11.0885 30.862 11.07 30.2705C11.0759 30.2105 11.0759 30.1501 11.07 30.0902H11.275H11.398H11.4964L11.7096 30.0082C12.0904 29.8333 12.3248 29.4427 12.3 29.0246C12.2918 28.9431 12.2724 28.8631 12.2426 28.7869H12.5296C13.1243 28.7646 13.5895 28.2667 13.571 27.6721C14.1669 27.6499 14.6345 27.1533 14.6206 26.5574C14.6266 26.4974 14.6266 26.437 14.6206 26.377H14.76C15.3559 26.3548 15.8235 25.8582 15.8096 25.2623C15.8008 25.1836 15.7815 25.1064 15.7522 25.0328H16.0966H16.236H16.3672C16.8362 24.9001 17.152 24.4621 17.1298 23.9754C17.7257 23.9532 18.1933 23.4566 18.1794 22.8607C18.1855 22.8007 18.1855 22.7403 18.1794 22.6803H18.3844C18.8628 22.65 19.2702 22.3216 19.4012 21.8607C19.532 22.3285 19.9489 22.6592 20.4344 22.6803H20.6394C20.6334 22.7403 20.6334 22.8007 20.6394 22.8607C20.6255 23.4566 21.0931 23.9532 21.689 23.9754C21.6702 24.5147 22.0576 24.9829 22.591 25.0656H22.7386C22.8258 25.0746 22.9138 25.0746 23.001 25.0656C22.9718 25.1392 22.9525 25.2164 22.9436 25.2951C22.9181 25.6512 23.0875 25.9931 23.3864 26.1885C23.4456 26.2325 23.5087 26.2709 23.575 26.3033C23.7048 26.3613 23.8434 26.3973 23.985 26.4098H24.19C24.184 26.4698 24.184 26.5302 24.19 26.5902C24.1761 27.1861 24.6437 27.6827 25.2396 27.7049C25.2333 28.2766 25.67 28.756 26.24 28.8033H26.5188C26.489 28.8795 26.4696 28.9595 26.4614 29.041C26.4475 29.6369 26.9151 30.1335 27.511 30.1557H27.716C27.7101 30.2157 27.7101 30.2761 27.716 30.3361C27.7048 30.6531 27.8486 30.9558 28.1014 31.1475C28.224 31.2409 28.3631 31.3104 28.5114 31.3525H28.6508H28.7492C28.7249 31.8301 29.0293 32.2629 29.4872 32.4016C29.6596 32.4618 29.8508 32.431 29.9956 32.3197L32.6688 30.2951C32.9409 30.03 32.9952 29.6127 32.8 29.2869Z" fill="#0090BA"/>
<path fill-rule="evenodd" clip-rule="evenodd" d="M28.5524 31.4016C28.3983 31.3616 28.2535 31.292 28.126 31.1967C27.84 31.003 27.6778 30.6725 27.6996 30.3279C27.6937 30.2679 27.6937 30.2075 27.6996 30.1475H27.4946C26.8987 30.1253 26.4311 29.6287 26.445 29.0328C26.4532 28.9513 26.4726 28.8713 26.5024 28.7951H26.24C25.6441 28.7728 25.1765 28.2763 25.1904 27.6803C24.5945 27.6581 24.1269 27.1615 24.1408 26.5656C24.1348 26.5056 24.1348 26.4452 24.1408 26.3852H23.9358C23.7942 26.3728 23.6556 26.3367 23.5258 26.2787C23.4539 26.2472 23.3852 26.2088 23.3208 26.1639C23.0474 25.9462 22.9101 25.5999 22.96 25.2541C22.9689 25.1754 22.9882 25.0982 23.0174 25.0246C22.9302 25.0336 22.8422 25.0336 22.755 25.0246H22.6074C22.074 24.9419 21.6866 24.4737 21.7054 23.9344C21.1095 23.9122 20.6419 23.4156 20.6558 22.8197C20.6498 22.7597 20.6498 22.6993 20.6558 22.6393H20.4508C19.9653 22.6183 19.5484 22.2875 19.4176 21.8197C19.2866 22.2806 18.8792 22.609 18.4008 22.6393H18.1958C18.2019 22.6993 18.2019 22.7597 18.1958 22.8197C18.2097 23.4156 17.7421 23.9122 17.1462 23.9344C17.1337 24.3863 16.833 24.7793 16.4 24.9098H16.2688H16.1294H15.785C15.8143 24.9834 15.8336 25.0606 15.8424 25.1393C15.8652 25.441 15.7615 25.7385 15.5563 25.9608C15.351 26.183 15.0626 26.3101 14.76 26.3115H14.555C14.561 26.3714 14.561 26.4318 14.555 26.4918C14.5689 27.0877 14.1013 27.5843 13.5054 27.6066C13.5239 28.2011 13.0587 28.6991 12.464 28.7213H12.177C12.2068 28.7976 12.2262 28.8775 12.2344 28.959C12.2592 29.3772 12.0248 29.7677 11.644 29.9426L11.4308 30.0246H11.3324H11.2094H11.0044C11.0103 30.0846 11.0103 30.145 11.0044 30.2049C11.0229 30.7964 10.5626 31.2931 9.9712 31.3197V31.3852L12.8822 38.3279C13.0848 38.7204 13.4988 38.9578 13.94 38.9344H16.8674V34C16.8696 33.8891 16.9157 33.7836 16.9957 33.7068C17.0756 33.6299 17.1829 33.588 17.2938 33.5902H21.0658C21.1767 33.588 21.284 33.6299 21.3639 33.7068C21.4439 33.7836 21.49 33.8891 21.4922 34V39.0082H24.6C25.0365 39.0298 25.446 38.7964 25.6496 38.4098L28.7 31.4262L28.5524 31.4016ZM17.1298 29.3443V30.9836C17.1349 31.0079 17.1349 31.033 17.1298 31.0574C17.0881 31.1407 17.0015 31.192 16.9084 31.1885H14.6452C14.5864 31.193 14.5283 31.1739 14.4837 31.1355C14.439 31.097 14.4116 31.0424 14.4074 30.9836V29.3443C14.4599 28.6473 15.0625 28.1216 15.7604 28.1639C16.4583 28.1216 17.0609 28.6473 17.1134 29.3443H17.1298ZM24.0096 30.9836V29.3443H24.0342C24.0279 29.0021 23.8646 28.6817 23.5914 28.4754C23.3294 28.2706 23.0056 28.1607 22.673 28.1639C21.9751 28.1216 21.3725 28.6473 21.32 29.3443V30.9836C21.3451 31.0772 21.4281 31.1437 21.525 31.1475H23.78C23.886 31.155 23.9823 31.0862 24.0096 30.9836Z" fill="#00BBD3"/>
<path d="M28.9296 17.3443C28.9296 16.8916 28.5625 16.5246 28.1096 16.5246H25.7726C25.3197 16.5246 24.9526 16.8916 24.9526 17.3443V20.4918L28.8968 24.9508L28.9296 17.3443Z" fill="#00BBD3"/>
<path d="M33.3904 15.418C34.9987 15.3676 36.2845 14.0646 36.3129 12.4565C36.3414 10.8483 35.1025 9.50069 33.497 9.39344C33.1147 8.5504 32.2416 8.04053 31.3192 8.12167C30.3968 8.20281 29.6261 8.85728 29.397 9.7541H29.1018C28.3557 9.78183 27.6512 10.105 27.1436 10.6523C26.636 11.1997 26.367 11.9263 26.3958 12.6721C26.4018 12.7904 26.4155 12.9081 26.4368 13.0246C26.1113 13.2869 25.9314 13.6892 25.953 14.1066C25.9761 14.4612 26.1397 14.792 26.4074 15.0258C26.6752 15.2597 27.0251 15.3772 27.3798 15.3525C27.6525 15.339 27.9151 15.2449 28.1342 15.082C29.1463 15.5203 30.3197 15.3454 31.16 14.6311C31.772 15.1747 32.5726 15.4572 33.3904 15.418Z" fill="#0090BA"/>
<path fill-rule="evenodd" clip-rule="evenodd" d="M17.3512 33.6066H21.1232C21.2355 33.5999 21.3458 33.6387 21.4291 33.7143C21.5124 33.7898 21.5618 33.8958 21.566 34.0082V39.0164H16.9248V34.0164C16.927 33.9055 16.9731 33.8 17.0531 33.7232C17.133 33.6463 17.2403 33.6044 17.3512 33.6066ZM20.5 36.4918C20.5 36.6683 20.6432 36.8115 20.8198 36.8115L20.8116 36.7951C20.9852 36.7998 21.1308 36.6651 21.1396 36.4918C21.1396 36.3152 20.9964 36.1721 20.8198 36.1721C20.6432 36.1721 20.5 36.3152 20.5 36.4918Z" fill="#0090BA"/>
<path d="M54.8088 13.8689C55.5595 13.8379 56.2353 14.3209 56.4488 15.041L58.3676 14.3443C57.8635 12.8205 56.3851 11.8364 54.7842 11.959C52.48 11.9672 50.84 13.7951 50.84 16.3197C50.84 18.8443 52.48 20.6803 54.8088 20.6803C56.3996 20.8054 57.8696 19.8268 58.3676 18.3115L56.4734 17.6148C56.2568 18.3316 55.5818 18.8107 54.8334 18.7787C53.6608 18.7787 53.0212 17.7787 53.0212 16.3197C53.0212 14.8607 53.6362 13.8689 54.8088 13.8689Z" fill="white"/>
<path fill-rule="evenodd" clip-rule="evenodd" d="M64.4848 18.6393C64.4848 18.8607 64.5668 18.9918 64.7062 18.9918C64.8487 19.0058 64.9926 18.9975 65.1326 18.9672V20.2869C64.6666 20.4717 64.1736 20.5796 63.673 20.6066C63.1728 20.6066 62.8202 20.4426 62.7136 19.9016C62.1194 20.3731 61.389 20.6404 60.6308 20.6639C60.1315 20.7047 59.6389 20.5282 59.2792 20.1797C58.9195 19.8311 58.7277 19.3444 58.753 18.8443C58.753 17.4754 59.8682 17.0984 60.6882 16.9918C60.7935 16.9776 60.9187 16.9656 61.0539 16.9526C61.6978 16.891 62.566 16.8078 62.566 16.3607C62.5578 15.9508 62.2872 15.7869 61.828 15.7869C61.3833 15.7679 60.978 16.0402 60.8276 16.459L59.245 15.8688C59.532 15.082 60.0158 14.3033 61.9264 14.3033C63.837 14.3033 64.4848 15.1803 64.4848 16.3934V18.6393ZM61.6312 19.3525C61.9607 19.2942 62.2756 19.1716 62.5578 18.9918L62.5496 17.7705C62.286 17.8701 62.0102 17.9335 61.7296 17.959C61.09 18.0246 60.8112 18.2951 60.8112 18.7787C60.8112 19.2623 61.1884 19.4262 61.6312 19.3525Z" fill="white"/>
<path d="M67.855 15.2787C67.8224 15.0103 67.6833 14.7663 67.469 14.6014C67.2547 14.4365 66.9831 14.3645 66.7152 14.4016C66.2145 14.4284 65.7216 14.5364 65.2556 14.7213V16.123C65.3969 16.1008 65.5407 16.1008 65.682 16.123C65.8214 16.123 65.8952 16.2541 65.8952 16.4754V20.4918H67.8714V16.7705C68.0732 16.4523 68.4139 16.2485 68.7898 16.2213C69.0726 16.206 69.3546 16.2624 69.6098 16.3852L70.2904 14.5902C69.8878 14.3114 69.3816 14.2271 68.9103 14.3604C68.439 14.4936 68.0519 14.8304 67.855 15.2787Z" fill="white"/>
<path fill-rule="evenodd" clip-rule="evenodd" d="M70.8603 15.2297C71.4385 14.6268 72.2431 14.2937 73.0784 14.3115C73.9025 14.3047 74.692 14.6427 75.2558 15.2436C75.8195 15.8446 76.1063 16.6537 76.0468 17.4754L71.9468 18.4344C72.1409 18.86 72.5898 19.1093 73.0538 19.0492C73.6214 19.0607 74.1436 18.7405 74.3904 18.2295L75.973 18.8033C75.4662 19.9627 74.3112 20.7033 73.0456 20.6803C72.209 20.6969 71.4044 20.3589 70.831 19.7497C70.2576 19.1406 69.9688 18.3173 70.0362 17.4836C69.9832 16.6501 70.2821 15.8326 70.8603 15.2297ZM72.98 15.9098C72.3195 15.9471 71.7948 16.4787 71.7664 17.1393L74.2018 16.582C73.9866 16.1139 73.4908 15.8411 72.98 15.9098Z" fill="white"/>
<path d="M82 18.5902C81.6412 18.6646 81.2758 18.7031 80.9094 18.7049C79.7122 18.7049 78.8184 17.8852 78.8184 16.3115C78.8184 14.7377 79.6958 13.8525 80.9422 13.8525C81.6223 13.8406 82.2698 14.1431 82.697 14.6721L84.0008 13.3115C83.2272 12.4101 82.0889 11.9044 80.9012 11.9344C79.7332 11.9126 78.6102 12.384 77.8079 13.2328C77.0056 14.0816 76.5985 15.2291 76.6864 16.3934C76.6104 17.5376 77.0262 18.6598 77.8294 19.4784C78.6327 20.297 79.7472 20.7342 80.893 20.6803C82.0437 20.7065 83.1708 20.3521 84.0992 19.6721V16.5656H82V18.582V18.5902Z" fill="white"/>
<path d="M90.856 18.9098C90.7166 18.9098 90.6428 18.7787 90.6428 18.5574V14.5H88.6666V18.4426C88.3878 18.6952 88.0331 18.848 87.658 18.877C86.7396 18.877 86.6576 18.2049 86.6576 17.4098V14.5H84.6814V18.4344C84.6814 20 85.5998 20.6803 86.6166 20.6803C87.4145 20.6658 88.1698 20.318 88.6994 19.7213C88.7258 19.9877 88.8597 20.2317 89.0701 20.3972C89.2806 20.5627 89.5494 20.6354 89.8146 20.5984C90.3152 20.5714 90.8082 20.4635 91.2742 20.2787V18.8525C91.1386 18.8931 90.9975 18.9124 90.856 18.9098Z" fill="white"/>
<path d="M93.07 14.3934C92.5693 14.4202 92.0764 14.5282 91.6104 14.7131V16.1148C91.7517 16.0926 91.8955 16.0926 92.0368 16.1148C92.1762 16.1148 92.25 16.2459 92.25 16.4672V20.4918H94.2262V15.5738C94.2754 15.2526 94.1706 14.927 93.9431 14.6948C93.7157 14.4627 93.3923 14.351 93.07 14.3934Z" fill="white"/>
<path fill-rule="evenodd" clip-rule="evenodd" d="M101.188 18.582C101.188 18.8033 101.262 18.9344 101.401 18.9344C101.538 18.9468 101.677 18.9385 101.811 18.9098V20.3197C101.345 20.5046 100.852 20.6126 100.352 20.6393C100.12 20.6626 99.89 20.5866 99.718 20.4303C99.546 20.274 99.4484 20.052 99.4496 19.8197C98.969 20.3429 98.2906 20.6403 97.58 20.6393C95.94 20.6393 94.833 19.2213 94.833 17.4508C94.833 15.6803 95.981 14.2705 97.621 14.2705C98.2081 14.266 98.7767 14.4759 99.22 14.8607V11.6803H101.188V18.582ZM97.8588 18.8525C98.5213 18.9167 99.1187 18.4527 99.22 17.7951L99.2118 16.7377C98.9043 16.2721 98.3918 15.9825 97.8342 15.959C97.0962 15.959 96.637 16.4508 96.637 17.3934C96.637 18.3361 97.0962 18.8525 97.8588 18.8525Z" fill="white"/>
<path fill-rule="evenodd" clip-rule="evenodd" d="M104.033 18.4344C104.227 18.86 104.676 19.1093 105.14 19.0492C105.704 19.0528 106.219 18.7301 106.461 18.2213L108.043 18.7951C107.536 19.9545 106.381 20.6952 105.116 20.6721C104.279 20.6887 103.475 20.3507 102.901 19.7415C102.328 19.1324 102.039 18.3091 102.106 17.4754C102.053 16.6419 102.352 15.8244 102.931 15.2215C103.509 14.6186 104.313 14.2855 105.149 14.3033C105.977 14.2917 106.772 14.6288 107.34 15.2321C107.908 15.8354 108.196 16.6495 108.133 17.4754L104.033 18.4344ZM106.272 16.5738C106.057 16.1057 105.561 15.8329 105.05 15.9016C104.396 15.9513 103.884 16.4843 103.861 17.1393L106.272 16.5738Z" fill="white"/>
<path d="M93.6522 11.3525C93.4095 11.3515 93.1834 11.4754 93.0536 11.6803C92.8694 11.3649 92.4747 11.2424 92.1441 11.398C91.8136 11.5536 91.6567 11.9358 91.7826 12.2787C91.9794 12.959 93.0208 13.6967 93.0536 13.7131C93.0536 13.7131 94.1278 12.9508 94.3246 12.2787C94.3958 12.0634 94.3591 11.8269 94.2258 11.6434C94.0926 11.4598 93.8791 11.3515 93.6522 11.3525Z" fill="white"/>
</svg>
