<svg id="Layer_1" xmlns="http://www.w3.org/2000/svg" viewBox="0 0 173.2 60"><style>.st0{fill:#E54945;} .st1{fill:#FFFFFF;} .st2{fill:#C41C30;} .st3{fill:#78787A;}</style><path class="st0" d="M135.944 46.034c-.78 0-1.42-.66-1.42-1.42 0-.78.64-1.42 1.42-1.42.78 0 1.42.64 1.42 1.42 0 .76-.64 1.42-1.42 1.42zM68.226 41.413h-3.52v3.9c0 .64-.54 1.18-1.22 1.18-.64 0-1.16-.54-1.16-1.18v-10.84c0-.78.64-1.442 1.44-1.442h4.46c2.8 0 4.36 1.92 4.36 4.203 0 2.26-1.58 4.18-4.36 4.18zm-.32-6.28h-3.2v4.18h3.2c1.3 0 2.24-.84 2.24-2.08 0-1.28-.94-2.1-2.24-2.1zM81.376 42.113h-6.362c.14 1.44 1.24 2.66 3.04 2.66.7 0 1.5-.22 2.16-.64.142-.08.302-.12.44-.12.442 0 .902.36.902.88 0 1.1-2.48 1.6-3.72 1.6-2.902 0-5.062-2.02-5.062-5.08 0-2.8 2.04-5.06 4.9-5.06 2.262 0 3.902 1.36 4.502 3.44.12.4.24.86.24 1.28 0 .56-.46 1.04-1.04 1.04zm-3.7-4.04c-1.76 0-2.582 1.4-2.682 2.56h5.362c-.04-1.12-.8-2.56-2.68-2.56zM86.985 46.494c-1.64 0-2.5-.88-2.5-2.5v-5.52h-.8c-.5 0-.92-.422-.92-.962 0-.5.42-.92.92-.92h.8v-1.7c0-.58.48-1.06 1.1-1.06.58 0 1.04.48 1.04 1.06v1.7h1.18c.5 0 .9.42.9.96 0 .5-.4.92-.9.92h-1.18v4.98c0 .74.42 1.142.92 1.142.14 0 .32-.06.44-.06.58 0 .94.4.94.92 0 .64-.58 1.04-1.94 1.04zM95.308 46.654c-1.96 0-4.04-.64-4.94-1.7-.16-.2-.24-.42-.24-.66 0-.62.54-1.14 1.14-1.14.22 0 .46.06.64.2.92.7 2.1 1.2 3.5 1.2 1.88 0 2.64-.94 2.64-1.8 0-2.76-7.76-1.04-7.76-5.962 0-2.22 1.92-3.92 4.86-3.92 1.6 0 3.6.5 4.48 1.46.16.18.24.42.24.64 0 .62-.58 1.1-1.16 1.1-.22 0-.44-.06-.64-.2-.94-.62-2.04-.9-3.12-.9-1.36 0-2.22.66-2.22 1.64 0 2.46 7.742.92 7.742 5.902 0 2.24-1.56 4.14-5.162 4.14zM104.123 34.092c0 .74-.6 1.32-1.32 1.32-.72 0-1.32-.58-1.32-1.32 0-.72.6-1.3 1.32-1.3.72 0 1.32.58 1.32 1.3zm-1.32 12.282c-.6 0-1.06-.48-1.06-1.06v-7.802c0-.56.46-1.04 1.1-1.04.56 0 1.04.48 1.04 1.04v7.802c0 .58-.48 1.06-1.08 1.06zM109.303 46.494c-1.64 0-2.5-.88-2.5-2.5v-5.52h-.8c-.5 0-.922-.422-.922-.962 0-.5.422-.92.922-.92h.8v-1.7c0-.58.48-1.06 1.1-1.06.58 0 1.04.48 1.04 1.06v1.7h1.18c.5 0 .9.42.9.96 0 .5-.4.92-.9.92h-1.18v4.98c0 .74.42 1.142.92 1.142.14 0 .32-.06.44-.06.58 0 .94.4.94.92 0 .64-.58 1.04-1.94 1.04zM115.97 46.494c-1.64 0-2.5-.88-2.5-2.5v-5.52h-.8c-.5 0-.92-.422-.92-.962 0-.5.42-.92.92-.92h.8v-1.7c0-.58.48-1.06 1.1-1.06.58 0 1.04.48 1.04 1.06v1.7h1.18c.5 0 .9.42.9.96 0 .5-.4.92-.9.92h-1.18v4.98c0 .74.42 1.142.92 1.142.14 0 .32-.06.44-.06.58 0 .94.4.94.92 0 .64-.58 1.04-1.94 1.04zM127.284 42.113h-6.36c.138 1.44 1.24 2.66 3.04 2.66.7 0 1.5-.22 2.16-.64.14-.08.3-.12.44-.12.44 0 .9.36.9.88 0 1.1-2.48 1.6-3.72 1.6-2.9 0-5.063-2.02-5.063-5.08 0-2.8 2.042-5.06 4.903-5.06 2.26 0 3.9 1.36 4.5 3.44.12.4.24.86.24 1.28 0 .56-.46 1.04-1.04 1.04zm-3.7-4.04c-1.762 0-2.58 1.4-2.682 2.56h5.362c-.04-1.12-.8-2.56-2.68-2.56zM134.125 38.513c-.86.08-1.68.44-2.2 1.18v5.62c0 .58-.48 1.06-1.06 1.06h-.04c-.58 0-1.04-.48-1.04-1.06v-7.8c0-.56.46-1.04 1.1-1.04.56 0 1.04.48 1.04 1.04v.5c.52-.7 1.28-1.54 2.3-1.54.58 0 .94.4.94.92 0 .64-.44 1.04-1.04 1.12zM146.717 45.414c-.7.64-1.702 1.08-3.102 1.08-2.94 0-5-2.14-5-5.08 0-2.922 2.06-5.062 5-5.062 1.48 0 2.72.52 3.26 1.3.1.12.14.28.14.44 0 .56-.5.92-1 .92-.22 0-.44-.06-.62-.2-.5-.38-1.06-.56-1.68-.56-1.74 0-2.9 1.3-2.9 3.16s1.16 3.182 2.9 3.182c.64 0 1.18-.2 1.68-.58.2-.14.4-.2.62-.2.52 0 1.02.38 1.02.94 0 .24-.1.5-.318.66zM152.835 46.494c-3.1 0-4.982-2.3-4.982-5.08 0-2.762 1.88-5.062 4.982-5.062s4.98 2.3 4.98 5.06c0 2.78-1.88 5.082-4.98 5.082zm0-8.242c-1.78 0-2.76 1.48-2.76 3.16 0 1.7.98 3.182 2.76 3.182 1.76 0 2.74-1.48 2.74-3.18 0-1.68-.98-3.162-2.74-3.162zM172.116 46.374c-.58 0-1.06-.48-1.06-1.06v-5.34c0-1.022-.44-1.722-1.56-1.722-.94 0-1.8.66-2.22 1.26v5.802c0 .58-.48 1.06-1.08 1.06s-1.06-.48-1.06-1.06v-5.34c0-1.022-.46-1.722-1.58-1.722-.92 0-1.782.66-2.202 1.28v5.782c0 .58-.48 1.06-1.08 1.06-.6 0-1.06-.48-1.06-1.06v-7.802c0-.56.46-1.04 1.1-1.04.56 0 1.04.48 1.04 1.04v.4c.4-.6 1.68-1.56 3.14-1.56 1.44 0 2.32.72 2.642 1.78.56-.88 1.84-1.78 3.3-1.78 1.76 0 2.78.96 2.78 2.92v6.042c0 .58-.48 1.06-1.1 1.06zM42.423 0H7.87C3.525 0 0 3.416 0 7.63v27.997c0 4.832 1.457 9.33 3.96 13.12C8.427 55.51 16.243 60 25.146 60s16.72-4.488 21.188-11.254c2.502-3.788 3.96-8.287 3.96-13.12V7.63c0-4.214-3.525-7.63-7.872-7.63z"/><path class="st1" d="M25.084 8.84c-.346 0-.627.283-.627.63v5.887c0 .346.28.627.627.627.346 0 .628-.28.628-.627V9.47c0-.347-.282-.63-.628-.63zM15.078 13.65c-.24-.235-.654-.23-.888.01-.117.12-.18.277-.18.445.003.167.07.325.19.44l3.88 3.794c.117.114.273.178.438.178.17 0 .33-.067.45-.19.116-.12.18-.277.178-.445-.002-.168-.07-.325-.19-.442l-3.878-3.79zM36.104 13.66c-.234-.24-.648-.245-.887-.01l-3.88 3.79c-.12.118-.187.275-.19.443 0 .168.063.326.18.446.12.12.28.188.45.188.164 0 .32-.064.438-.18l3.88-3.79c.12-.118.186-.276.188-.443.002-.168-.062-.326-.18-.446zM41.808 39.97c0-.1-.012-.198-.034-.292l-.95-8.834c-.006-.054-.015-.11-.028-.16-.187-1.073-.96-2.022-2.3-2.828-.094-.096-.192-.185-.295-.267-.208-.986-.91-1.792-1.832-2.148-.348-.902-1.126-1.592-2.08-1.818-.49-1.118-1.676-1.88-2.963-1.77-.698-.924-1.8-1.495-3.008-1.495-.197 0-.393.015-.587.047-.644-.662-1.53-1.046-2.486-1.046-.934 0-1.813.378-2.458 1.024-1.343-.158-2.65.44-3.43 1.47-1.29-.11-2.473.652-2.96 1.77-.956.226-1.734.916-2.082 1.818-.877.34-1.554 1.083-1.798 2-1.81.886-2.835 1.975-3.052 3.247-.013.05-.022.103-.028.156l-.94 8.74c-.004.046-.007.093-.006.14-.022.142-.032.283-.032.422 0 4.28 8.642 6.233 16.672 6.24h.016c8.023-.007 16.657-1.96 16.657-6.24v-.053c.003-.04.005-.082.005-.124zm-16.662 5.157h-.016c-8.65-.006-15.413-2.193-15.413-4.98 0-.1.01-.206.033-.317v-.11l.94-8.74.003.008c.122-1.02 1.214-1.948 2.992-2.69l.003.03c0-.01 0-.02-.003-.03-.004-.03-.01-.06-.01-.093 0-.94.762-1.7 1.7-1.7 0-.94.762-1.7 1.7-1.7.116 0 .23.012.337.034 0-.013-.003-.024-.003-.035 0-.94.76-1.7 1.7-1.7.32 0 .615.093.87.247.327-1.005 1.27-1.733 2.385-1.733.327 0 .636.067.922.18.377-.698 1.107-1.18 1.957-1.18.88 0 1.63.513 1.996 1.25.327-.156.69-.25 1.077-.25 1.114 0 2.058.727 2.385 1.732.255-.154.55-.247.87-.247.94 0 1.7.76 1.7 1.7l-.003.034c.108-.023.22-.035.336-.035.94 0 1.7.76 1.7 1.7.94 0 1.7.76 1.7 1.7 0 .032-.005.062-.01.092l-.002.03c.274.11.51.29.693.516 1.11.633 1.785 1.36 1.88 2.144l.004-.008.968 8.992h-.005c.007.06.01.118.01.176 0 2.786-6.763 4.973-15.397 4.98z"/><path class="st1" d="M13.824 31.669c-.395-.194-.703-.398-.913-.61.21.212.52.416.914.61zM25.12 33.335h-.017c-1.296 0-2.546-.047-3.722-.134 1.177.088 2.427.135 3.723.135h.03-.015z"/><path class="st2" d="M12.84 29.068c-.04.073-.077.15-.108.228-.043.11-.078.225-.097.346-.014.085-.02.173-.02.263 0 .082.012.16.024.24-.03.084-.05.167-.05.25 0 .23.112.45.32.664.21.212.52.416.914.61.264.127.566.25.903.367.337.117.71.23 1.113.333.404.104.84.202 1.303.292.31.06.63.116.963.17 1 .157 2.1.283 3.275.37 1.177.086 2.427.133 3.723.133h.03s.315.012.414 0h.031c6.912-.004 12.51-1.318 12.51-2.94 0-.083-.017-.166-.047-.25.012-.08.025-.158.025-.24 0-.404-.145-.77-.38-1.062-.184-.225-.42-.406-.694-.515 0-.01 0-.02.003-.03.004-.03.01-.06.01-.093 0-.94-.762-1.7-1.7-1.7 0-.94-.762-1.7-1.7-1.7-.117 0-.23.012-.338.034 0-.013.003-.024.003-.035 0-.94-.76-1.7-1.7-1.7-.32 0-.616.093-.87.247-.328-1.005-1.272-1.733-2.386-1.733-.388 0-.75.094-1.077.25-.365-.737-1.117-1.25-1.996-1.25-.85 0-1.58.482-1.957 1.18-.286-.113-.595-.18-.922-.18-1.114 0-2.058.727-2.385 1.732-.255-.154-.55-.247-.87-.247-.94 0-1.7.76-1.7 1.7l.002.034c-.108-.023-.22-.035-.336-.035-.94 0-1.7.76-1.7 1.7-.94 0-1.7.76-1.7 1.7 0 .032.005.062.01.092l.002.03c-.36.144-.657.408-.847.74z"/><path class="st0" d="M40.533 39.972h.005l-.967-8.993-.002.007c-.096-.784-.77-1.51-1.88-2.144.235.29.38.658.38 1.062 0 .082-.013.16-.025.24.03.084.048.167.048.25 0 1.622-5.598 2.936-12.51 2.94h-.032c-.1.012-.413 0-.413 0H25.1c-1.296 0-2.546-.047-3.722-.134-1.174-.085-2.275-.21-3.274-.37-.333-.052-.654-.11-.963-.168-.463-.09-.9-.188-1.303-.292-.403-.104-.776-.216-1.113-.333-.337-.117-.64-.24-.903-.37-.395-.19-.703-.395-.913-.608s-.32-.436-.32-.664c0-.084.02-.167.05-.25-.013-.08-.026-.16-.026-.24 0-.09.007-.18.02-.264.02-.12.055-.235.098-.346.03-.08.067-.155.11-.228.19-.333.486-.597.846-.74 0-.01 0-.02-.003-.03-1.778.742-2.87 1.67-2.992 2.69l-.004-.008-.94 8.74v.11c-.022.11-.033.216-.033.318 0 2.786 6.764 4.973 15.413 4.98h.016c8.634-.007 15.397-2.194 15.397-4.98 0-.058-.003-.116-.01-.176z"/><g><path class="st2" d="M23.202 40.015c.09-.244.09-.498.03-.75-.113-.47-.377-.84-.814-1.088-.162-.092-.333-.14-.52-.117-.324.04-.56.25-.632.56-.015.07-.027.138-.04.206v.263c.003.008.008.016.01.025.017.192.07.374.157.547.187.37.465.648.874.79.117.04.237.07.362.048.29-.05.476-.225.572-.485zM27.515 41.304c-.13-.214-.278-.418-.426-.62-.24-.326-.512-.62-.845-.86-.374-.268-.79-.387-1.253-.328-.494.062-.924.263-1.268.61-.363.366-.63.798-.82 1.27-.077.19-.125.39-.185.584-.11.357.08.757.435.91.184.08.376.072.568.042.204-.03.398-.1.59-.17.263-.092.524-.19.806-.224.257-.03.51-.023.757.06.234.08.464.17.694.26.163.06.326.115.504.113.057-.004.114-.005.17-.015.226-.037.414-.137.53-.335.09-.157.092-.33.063-.502-.047-.287-.173-.547-.322-.794zM25.94 38.428c.17.075.342.09.52.02.206-.08.38-.204.522-.37.28-.33.395-.71.406-1.16l-.023-.25c-.027-.28-.14-.522-.352-.715-.223-.203-.518-.285-.843-.14-.245.108-.427.28-.565.498-.163.258-.246.54-.277.836-.026.26.003.512.108.753.103.232.26.42.504.528zM23.57 38.352c.124.074.254.14.405.145.226.007.415-.076.57-.232.22-.223.307-.5.322-.798.017-.335-.05-.656-.204-.958-.142-.283-.342-.512-.64-.65-.162-.075-.328-.12-.51-.076-.226.054-.386.195-.51.378-.15.22-.192.467-.192.724 0 .223.036.442.114.652.124.338.323.622.645.814zM28.69 38.06c-.123-.1-.266-.162-.428-.155-.246.01-.466.1-.652.252-.466.384-.662.88-.62 1.463.015.216.11.41.27.568.13.13.29.207.48.2.282-.008.524-.117.726-.3.374-.34.545-.764.56-1.264-.005-.05-.005-.114-.015-.175-.038-.232-.134-.435-.32-.59z"/></g><g id="CAREGUIDE_MASTER_1_"><path class="st3" d="M67.168 16.918c1.146 0 1.705.616 2.035 1.433l2.335-.844c-.673-1.79-2.05-2.91-4.37-2.91-2.85 0-4.843 2.236-4.843 5.317s1.992 5.316 4.843 5.316c2.32 0 3.668-1.104 4.342-2.895l-2.307-.846c-.33.816-.89 1.418-2.035 1.418-1.433 0-2.206-1.218-2.206-2.995 0-1.777.773-2.995 2.206-2.995zM79.23 23.166c-.17-.043-.27-.158-.27-.43v-2.723c0-1.476-.79-2.55-3.124-2.55-2.22 0-2.924.946-3.267 1.905l1.933.717c.272-.53.587-.817 1.218-.817.56 0 .89.2.904.702.014.66-1.548.674-2.293.774-.973.13-2.363.588-2.363 2.264 0 1.42.99 2.22 2.292 2.22.76 0 1.776-.314 2.536-.93.13.66.558.86 1.175.86.66 0 1.376-.244 1.777-.388v-1.633c-.215.03-.387.057-.516.03zm-2.62-.043c-.36.23-.774.387-1.133.444-.544.086-.988-.115-.988-.702 0-.473.343-.917 1.116-1.018.33-.043.717-.1 1.003-.23v1.506zM83.073 18.638c-.13-.86-.774-1.075-1.39-1.075-.66 0-1.375.244-1.777.387v1.705c.215-.03.387-.057.516-.03.172.044.258.16.258.43V25h2.407v-4.542c.215-.3.516-.617 1.118-.674.4-.043.73.086 1.017.2l.83-2.192c-.9-.53-2.42-.487-2.98.846zM89.448 17.463c-1.805 0-3.71 1.246-3.71 3.87 0 2.39 1.575 3.896 3.668 3.896 1.56 0 2.923-.846 3.567-2.294l-1.934-.702c-.345.66-.918 1.018-1.634 1.018-.63.043-1.09-.23-1.347-.746l5.028-1.174c0-2.565-1.79-3.87-3.64-3.87zm-1.604 3.453c.057-.917.73-1.433 1.447-1.505.603-.056 1.233.216 1.49.818l-2.936.688zM100.366 22.678c-.4.1-1.032.144-1.333.144-1.46 0-2.55-1.003-2.55-2.923 0-1.92 1.074-2.982 2.593-2.982.788 0 1.505.287 2.135 1.018l1.592-1.663c-1.018-1.19-2.38-1.676-3.783-1.676-2.852 0-5.174 2.035-5.174 5.373 0 3.24 2.178 5.23 5.13 5.23 1.376 0 2.995-.43 3.912-1.232v-3.754h-2.522v2.464zM111.123 23.065c-.172-.043-.258-.157-.258-.43v-4.943h-2.407v4.814c-.344.287-.803.53-1.233.53-1.117 0-1.218-.816-1.218-1.79v-3.554H103.6v4.8c0 1.906 1.118 2.737 2.365 2.737.888 0 1.862-.416 2.536-1.176.13.83.703 1.075 1.362 1.075.66 0 1.375-.245 1.777-.388v-1.705c-.216.028-.388.057-.517.028zM113.83 17.563c-.66 0-1.376.244-1.777.387v1.705c.215-.03.387-.057.516-.03.17.044.257.16.257.43V25h2.407v-6.018c0-1.104-.66-1.42-1.404-1.42zM123.982 23.1c-.172-.042-.258-.157-.258-.43v-8.425h-2.408v3.884c-.5-.417-1.117-.718-1.948-.718-2.006 0-3.396 1.72-3.396 3.883s1.39 3.883 3.367 3.883c1.002 0 1.733-.444 2.277-1.003.058.746.473.99 1.104.99.66 0 1.376-.244 1.778-.388v-1.705c-.215.03-.387.057-.516.03zm-2.666-1.39c0 .703-.716 1.333-1.647 1.333-.933 0-1.492-.63-1.492-1.776 0-1.132.56-1.75 1.462-1.75.616 0 1.376.417 1.676.947v1.247zM128.548 23.244c-.63.043-1.09-.23-1.347-.745l5.03-1.176c0-2.565-1.79-3.87-3.64-3.87-1.805 0-3.71 1.248-3.71 3.87 0 2.393 1.576 3.897 3.668 3.897 1.56 0 2.923-.844 3.567-2.29l-1.934-.703c-.343.66-.916 1.017-1.632 1.017zm-.115-3.84c.602-.057 1.232.215 1.49.817l-2.937.688c.057-.917.73-1.433 1.447-1.504zM114.532 13.854c-.306 0-.573.16-.727.4-.154-.24-.422-.4-.727-.4-.477 0-.864.387-.864.864 0 .094.015.184.043.27.24.827 1.51 1.727 1.547 1.752v.002h.002v-.002c.036-.025 1.308-.925 1.547-1.753.028-.085.043-.175.043-.27 0-.476-.387-.863-.864-.863z"/></g></svg>