<svg width="143" height="50" viewBox="0 0 143 50" fill="none" xmlns="http://www.w3.org/2000/svg">
<g opacity="0.81">
<path d="M111.721 38.5246C111.076 38.5246 110.554 38.0035 110.554 37.3607C110.554 36.7178 111.076 36.1967 111.721 36.1967C112.365 36.1967 112.888 36.7178 112.888 37.3607C112.879 37.9998 112.362 38.5158 111.721 38.5246Z" fill="#E54945"/>
<path fill-rule="evenodd" clip-rule="evenodd" d="M53.1812 34.7623H56.0741V34.7377C57.9759 34.7377 59.5176 33.2001 59.5176 31.3033C59.5176 29.4065 57.9759 27.8689 56.0741 27.8689H52.4087C52.0912 27.871 51.7877 27.9994 51.5655 28.2256C51.3433 28.4519 51.2208 28.7571 51.2252 29.0738V37.959C51.2252 38.4869 51.6494 38.9173 52.1786 38.9262C52.4401 38.9306 52.6927 38.8312 52.8808 38.6498C53.0688 38.4684 53.1769 38.2199 53.1812 37.959V34.7623ZM53.1812 29.6148H55.8111C56.4649 29.5509 57.0983 29.8627 57.4451 30.4192C57.7919 30.9756 57.7919 31.6801 57.4451 32.2366C57.0983 32.793 56.4649 33.1048 55.8111 33.041H53.1812V29.6148Z" fill="#E54945"/>
<path fill-rule="evenodd" clip-rule="evenodd" d="M61.6379 35.3361H66.8813C67.1022 35.3318 67.3121 35.2391 67.4636 35.0787C67.6151 34.9183 67.6955 34.7038 67.6867 34.4836C67.6705 34.1264 67.6041 33.7732 67.4894 33.4344C67.0732 31.7452 65.5347 30.5722 63.7912 30.6148C61.4899 30.651 59.6539 32.5409 59.6902 34.8361C59.7265 37.1312 61.6214 38.9624 63.9226 38.9262C64.9417 38.9262 66.9799 38.5164 66.9799 37.6148C66.9776 37.3544 66.8364 37.1151 66.6093 36.9866C66.3823 36.8582 66.1038 36.8602 65.8786 36.9918C65.3465 37.3262 64.7323 37.5077 64.1034 37.5164C62.8291 37.5645 61.7426 36.6037 61.6379 35.3361ZM61.6379 34.123C61.7036 32.9594 62.672 32.0512 63.8405 32.0574L63.8322 32.0246C64.4079 31.9978 64.9695 32.2067 65.3869 32.6029C65.8044 32.9991 66.0414 33.5482 66.043 34.123H61.6379Z" fill="#E54945"/>
<path d="M71.5 38.9262C70.9365 38.9963 70.372 38.8031 69.9704 38.4026C69.5689 38.0021 69.3751 37.4391 69.4454 36.877V32.3525H68.7879C68.5771 32.3484 68.377 32.2586 68.2343 32.1038C68.0915 31.949 68.0183 31.7427 68.0318 31.5328C68.0363 31.1182 68.3722 30.7831 68.7879 30.7787H69.4454V29.3852C69.4497 29.1505 69.5474 28.927 69.7169 28.764C69.8865 28.6011 70.114 28.512 70.3494 28.5164C70.8131 28.5384 71.1762 28.9223 71.1713 29.3852V30.7787H72.141C72.5677 30.7787 72.9136 31.1236 72.9136 31.5492C72.9136 31.9747 72.5677 32.3197 72.141 32.3197H71.1959V36.418C71.1959 37.0246 71.5411 37.3525 71.952 37.3525C72.0671 37.3525 72.215 37.3033 72.3136 37.3033C72.519 37.2916 72.7198 37.3668 72.8668 37.5103C73.0138 37.6538 73.0934 37.8524 73.0861 38.0574C73.0861 38.5984 72.6095 38.9262 71.5 38.9262Z" fill="#E54945"/>
<path d="M78.3295 39.0574C76.6858 39.0574 75.0421 38.5328 74.2696 37.6639C74.1404 37.5133 74.0704 37.3211 74.0724 37.1229C74.0853 36.6123 74.4973 36.2015 75.0092 36.1885C75.1978 36.1844 75.3826 36.2419 75.5352 36.3525C76.3583 36.9891 77.3701 37.3351 78.4117 37.3361C79.9567 37.3361 80.5813 36.5656 80.5813 35.8607C80.5813 33.5984 74.2038 35.041 74.2038 30.9426C74.2038 29.123 75.7818 27.7295 78.198 27.7295C79.5129 27.7295 81.1566 28.1393 81.8798 28.9262C82.0053 29.0726 82.0751 29.2583 82.0771 29.4508C82.0508 29.9566 81.6316 30.3531 81.1237 30.3525C80.9356 30.3537 80.7517 30.2964 80.5978 30.1885C79.8336 29.6981 78.9422 29.4417 78.0336 29.4508C76.9159 29.4508 76.2091 29.9918 76.2091 30.7951C76.2091 32.8115 82.5702 31.5492 82.5702 35.6311C82.5702 37.5 81.2881 39.0574 78.3295 39.0574Z" fill="#E54945"/>
<path fill-rule="evenodd" clip-rule="evenodd" d="M84.9117 29.7735C85.3165 29.6009 85.5766 29.2013 85.5699 28.7623C85.5609 28.1712 85.0778 27.6967 84.4851 27.6967C84.0448 27.6968 83.6482 27.9622 83.4813 28.3685C83.3144 28.7748 83.4103 29.2415 83.724 29.5496C84.0377 29.8577 84.5069 29.9462 84.9117 29.7735ZM83.8666 38.5758C84.0305 38.7393 84.2534 38.8301 84.4851 38.8279C84.7183 38.8301 84.9428 38.7397 85.1093 38.5768C85.2757 38.4139 85.3705 38.1916 85.3727 37.959V31.5656C85.3727 31.0812 84.9789 30.6885 84.4933 30.6885C84.0076 30.6885 83.6139 31.0812 83.6139 31.5656V37.959C83.6117 38.1901 83.7028 38.4124 83.8666 38.5758Z" fill="#E54945"/>
<path d="M89.827 38.9262C89.2635 38.9963 88.699 38.8031 88.2975 38.4026C87.8959 38.0021 87.7021 37.4391 87.7724 36.877V32.3525H87.1149C86.9041 32.3484 86.7041 32.2586 86.5613 32.1038C86.4185 31.949 86.3454 31.7427 86.3589 31.5328C86.3633 31.1182 86.6992 30.7831 87.1149 30.7787H87.7724V29.3852C87.7767 29.1505 87.8744 28.927 88.044 28.764C88.2135 28.6011 88.441 28.512 88.6764 28.5164C89.1401 28.5384 89.5032 28.9223 89.4983 29.3852V30.7787H90.4681C90.8947 30.7787 91.2406 31.1236 91.2406 31.5492C91.2406 31.9747 90.8947 32.3197 90.4681 32.3197H89.4983V36.418C89.4983 37.0246 89.8435 37.3525 90.2544 37.3525C90.3694 37.3525 90.5174 37.3033 90.616 37.3033C90.8213 37.2916 91.0221 37.3668 91.1691 37.5103C91.3161 37.6538 91.3958 37.8524 91.3885 38.0574C91.4214 38.5984 90.9447 38.9262 89.827 38.9262Z" fill="#E54945"/>
<path d="M95.3333 38.9262C94.7698 38.9963 94.2053 38.8031 93.8038 38.4026C93.4022 38.0021 93.2085 37.4391 93.2787 36.877V32.3525H92.6213C92.4104 32.3484 92.2104 32.2586 92.0676 32.1038C91.9248 31.949 91.8517 31.7427 91.8652 31.5328C91.8696 31.1182 92.2055 30.7831 92.6213 30.7787H93.2787V29.3852C93.2831 29.1505 93.3807 28.927 93.5503 28.764C93.7198 28.6011 93.9473 28.512 94.1828 28.5164C94.6464 28.5384 95.0095 28.9223 95.0046 29.3852V30.7787H95.9744C96.401 30.7787 96.7469 31.1236 96.7469 31.5492C96.7469 31.9747 96.401 32.3197 95.9744 32.3197H95.0046V36.418C95.0046 37.0246 95.3498 37.3525 95.7607 37.3525C95.8757 37.3525 96.0237 37.3033 96.1223 37.3033C96.3277 37.2916 96.5285 37.3668 96.6755 37.5103C96.8225 37.6538 96.9021 37.8524 96.8948 38.0574C96.903 38.5984 96.4264 38.9262 95.3333 38.9262Z" fill="#E54945"/>
<path fill-rule="evenodd" clip-rule="evenodd" d="M99.3768 35.3361H104.604C104.827 35.3362 105.042 35.2454 105.197 35.0845C105.352 34.9236 105.434 34.7066 105.426 34.4836C105.409 34.1264 105.343 33.7732 105.228 33.4344C104.812 31.7452 103.274 30.5722 101.53 30.6148C99.2288 30.651 97.3927 32.5409 97.429 34.8361C97.4653 37.1312 99.3603 38.9624 101.661 38.9262C102.681 38.9262 104.719 38.5164 104.719 37.6148C104.716 37.3544 104.575 37.1151 104.348 36.9866C104.121 36.8582 103.843 36.8602 103.617 36.9918C103.085 37.3262 102.471 37.5077 101.842 37.5164C100.568 37.5645 99.4814 36.6037 99.3768 35.3361ZM99.3603 34.1557C99.409 32.9792 100.382 32.052 101.563 32.0574V32.0246C102.143 31.9998 102.707 32.2141 103.124 32.6173C103.541 33.0204 103.773 33.5768 103.765 34.1557H99.3603Z" fill="#E54945"/>
<path d="M110.225 32.3852C109.508 32.4226 108.845 32.7773 108.417 33.3525V37.959C108.413 38.437 108.025 38.8234 107.546 38.8279C107.082 38.8058 106.719 38.422 106.724 37.959V31.5656C106.724 31.0812 107.118 30.6885 107.603 30.6885C108.089 30.6885 108.483 31.0812 108.483 31.5656V31.9672C108.882 31.2763 109.58 30.8099 110.373 30.7049C110.578 30.6933 110.779 30.7684 110.926 30.9119C111.073 31.0554 111.153 31.254 111.146 31.459C111.152 31.7052 111.058 31.9435 110.884 32.1185C110.71 32.2934 110.472 32.3898 110.225 32.3852Z" fill="#E54945"/>
<path d="M120.58 38.041C119.876 38.6513 118.964 38.9683 118.033 38.9262C116.921 38.9618 115.844 38.5323 115.064 37.7415C114.284 36.9507 113.87 35.8706 113.923 34.7623C113.875 33.6568 114.29 32.5811 115.07 31.7939C115.85 31.0068 116.924 30.5795 118.033 30.6148C119.042 30.5394 120.031 30.9325 120.712 31.6803C120.791 31.7835 120.832 31.9111 120.827 32.041C120.792 32.4679 120.434 32.7965 120.005 32.7951C119.822 32.7987 119.642 32.741 119.495 32.6311C119.1 32.3277 118.614 32.166 118.115 32.1721C117.443 32.1669 116.8 32.4456 116.346 32.9392C115.892 33.4328 115.669 34.0952 115.731 34.7623C115.669 35.4309 115.892 36.0947 116.346 36.5909C116.799 37.087 117.441 37.3694 118.115 37.3689C118.617 37.3693 119.104 37.1987 119.495 36.8852C119.642 36.7754 119.822 36.7177 120.005 36.7213C120.44 36.7205 120.801 37.0584 120.827 37.4918C120.837 37.7036 120.746 37.9077 120.58 38.041Z" fill="#E54945"/>
<path fill-rule="evenodd" clip-rule="evenodd" d="M122.63 37.7442C123.411 38.5356 124.489 38.9643 125.602 38.9262C126.714 38.9643 127.792 38.5356 128.573 37.7442C129.354 36.9529 129.767 35.8713 129.711 34.7623C129.711 32.4988 127.871 30.6639 125.602 30.6639C123.332 30.6639 121.492 32.4988 121.492 34.7623C121.437 35.8713 121.849 36.9529 122.63 37.7442ZM123.333 34.7623C123.333 33.3852 124.139 32.1721 125.602 32.1721C127.056 32.1721 127.854 33.3689 127.854 34.7623C127.854 36.1557 127.048 37.3689 125.602 37.3689C124.155 37.3689 123.333 36.1393 123.333 34.7623Z" fill="#E54945"/>
<path d="M141.455 38.8279C140.976 38.8234 140.588 38.437 140.584 37.959V33.6066C140.584 32.7869 140.222 32.1967 139.302 32.1967C138.567 32.2448 137.895 32.6252 137.477 33.2295V37.9836C137.475 38.2162 137.38 38.4384 137.214 38.6014C137.047 38.7643 136.823 38.8546 136.59 38.8525C136.358 38.8547 136.135 38.7638 135.971 38.6004C135.807 38.437 135.716 38.2147 135.719 37.9836V33.6066C135.719 32.7869 135.34 32.1967 134.42 32.1967C133.687 32.2487 133.019 32.6361 132.612 33.2459V37.9836C132.61 38.2162 132.515 38.4384 132.349 38.6014C132.182 38.7643 131.958 38.8546 131.724 38.8525C131.493 38.8547 131.27 38.7638 131.106 38.6004C130.942 38.437 130.851 38.2147 130.853 37.9836V31.5902C130.853 31.1058 131.247 30.7131 131.733 30.7131C132.218 30.7131 132.612 31.1058 132.612 31.5902V31.918C133.242 31.1343 134.186 30.6667 135.193 30.6393C136.171 30.5507 137.078 31.1602 137.362 32.0984C137.978 31.2051 138.988 30.6621 140.074 30.6393C141.521 30.6393 142.359 31.459 142.359 33.0328V37.9508C142.357 38.187 142.26 38.4126 142.09 38.5773C141.921 38.7421 141.692 38.8323 141.455 38.8279Z" fill="#E54945"/>
<path d="M34.8624 0.819671H6.46787C4.77858 0.793382 3.14803 1.43757 1.93503 2.61049C0.72202 3.7834 0.0259543 5.38893 0 7.07377V30.0246C0.00953498 33.854 1.15318 37.5953 3.28736 40.7787C7.16472 46.5646 13.6916 50.0272 20.6693 50C27.6585 50.0382 34.2002 46.5744 38.084 40.7787C40.2182 37.5953 41.3618 33.854 41.3714 30.0246V7.07377C41.3455 5.38169 40.6438 3.76984 39.4218 2.59574C38.1999 1.42164 36.5588 0.782354 34.8624 0.819671Z" fill="#E54945"/>
<path d="M20.6117 8.06557C20.3258 8.06557 20.094 8.29677 20.094 8.58197V13.4098C20.094 13.695 20.3258 13.9262 20.6117 13.9262C20.8977 13.9262 21.1295 13.695 21.1295 13.4098V8.58197C21.1295 8.29677 20.8977 8.06557 20.6117 8.06557Z" fill="white"/>
<path d="M12.3933 12.0082C12.1894 11.8114 11.8658 11.8114 11.6619 12.0082C11.4602 12.2098 11.4602 12.5361 11.6619 12.7377L14.8506 15.8443C14.9807 15.9831 15.1768 16.0394 15.361 15.9909C15.5452 15.9424 15.6878 15.7969 15.7323 15.6122C15.7768 15.4274 15.7159 15.2332 15.5738 15.1066L12.3933 12.0082Z" fill="white"/>
<path d="M29.6684 12.0164C29.4645 11.8196 29.1409 11.8196 28.937 12.0164L25.7482 15.123C25.6061 15.2496 25.5453 15.4438 25.5897 15.6285C25.6342 15.8133 25.7769 15.9588 25.9611 16.0073C26.1453 16.0558 26.3413 15.9995 26.4714 15.8607L29.6602 12.7541C29.8618 12.5525 29.8618 12.2262 29.6602 12.0246L29.6684 12.0164Z" fill="white"/>
<path fill-rule="evenodd" clip-rule="evenodd" d="M34.3611 33.3689C34.3703 33.4478 34.3703 33.5276 34.3611 33.6066L34.3775 33.6885V33.7295C34.3775 37.2049 27.2604 38.8443 20.6857 38.8443C14.0863 38.8361 6.98563 37.2377 6.98563 33.7295C6.9772 33.6149 6.9772 33.4998 6.98563 33.3852C6.98352 33.347 6.98352 33.3087 6.98563 33.2705L7.78282 26.1066C7.78018 26.0629 7.78018 26.0191 7.78282 25.9754C7.96362 24.9508 8.8019 24.0328 10.2894 23.3115C10.4954 22.5627 11.0438 21.955 11.7687 21.6721C12.0613 20.9271 12.6989 20.3706 13.4782 20.1803C13.9055 19.2217 14.8957 18.639 15.9437 18.7295C16.6041 17.8597 17.6756 17.4017 18.7626 17.5246C19.2985 16.9829 20.0296 16.678 20.7925 16.678C21.5555 16.678 22.2866 16.9829 22.8225 17.5246C22.9838 17.5116 23.146 17.5116 23.3074 17.5246C24.2771 17.5259 25.19 17.9811 25.7729 18.7541C26.8209 18.6636 27.811 19.2463 28.2384 20.2049C29.0176 20.3952 29.6553 20.9517 29.9478 21.6967C30.7123 21.9975 31.2763 22.6583 31.4518 23.459C31.536 23.5275 31.6156 23.6014 31.6901 23.6803C32.6326 24.1374 33.3244 24.9864 33.5803 26C33.5831 26.0437 33.5831 26.0875 33.5803 26.1311L34.3611 33.3689ZM8.00471 33.7131C8.00471 36.0164 13.5603 37.8115 20.6693 37.8115C27.7617 37.8033 33.3174 36.0082 33.3831 33.6885C33.386 33.6394 33.386 33.5901 33.3831 33.541L32.5613 26.1639C32.4791 25.5246 31.9284 24.9262 31.0162 24.4098C30.8669 24.2217 30.6716 24.0749 30.4491 23.9836C30.4507 23.959 30.4507 23.9344 30.4491 23.9098C30.4491 23.1403 29.8236 22.5164 29.052 22.5164C29.0512 22.1043 28.8675 21.7137 28.5504 21.4495C28.2332 21.1854 27.8151 21.0748 27.4083 21.1475C27.4105 20.6456 27.1402 20.1818 26.7019 19.9352C26.2636 19.6885 25.7258 19.6977 25.2962 19.959C25.0185 19.1119 24.2256 18.5395 23.332 18.541C23.0244 18.5416 22.721 18.6117 22.4444 18.7459C22.1515 18.1108 21.5197 17.6992 20.8188 17.687C20.118 17.6747 19.4721 18.064 19.1571 18.6885C18.6288 18.4743 18.035 18.4897 17.5186 18.7309C17.0021 18.9721 16.6101 19.4172 16.4368 19.959C15.9994 19.675 15.4394 19.6595 14.9869 19.9189C14.5344 20.1782 14.2659 20.6687 14.2918 21.1885C13.8851 21.1158 13.4669 21.2264 13.1498 21.4905C12.8326 21.7546 12.6489 22.1453 12.6481 22.5574C11.8765 22.5574 11.251 23.1812 11.251 23.9508C11.2494 23.9754 11.2494 24 11.251 24.0246C9.77988 24.6311 8.88408 25.4098 8.78546 26.2295L8.00471 33.3607V33.4508C7.99609 33.538 7.99609 33.6259 8.00471 33.7131Z" fill="white"/>
<path d="M11.3578 26.7787C11.0826 26.6543 10.8298 26.4854 10.6099 26.2787C10.8298 26.4854 11.0826 26.6543 11.3578 26.7787Z" fill="white"/>
<path d="M20.6446 28.1475C19.5762 28.1475 18.5489 28.1475 17.5874 28.041C18.5571 28.1148 19.5844 28.1475 20.6446 28.1475Z" fill="white"/>
<path d="M10.5524 24.6475C10.4689 24.7925 10.4106 24.9504 10.3798 25.1148C10.3557 25.2503 10.3557 25.389 10.3798 25.5246C10.3685 25.5924 10.3685 25.6617 10.3798 25.7295C10.3956 25.9365 10.4896 26.1299 10.6428 26.2705C10.8627 26.4772 11.1154 26.6461 11.3907 26.7705C11.6311 26.886 11.878 26.9872 12.1303 27.0738C12.4098 27.1721 12.7139 27.2623 13.0426 27.3443C13.3713 27.4262 13.7329 27.5082 14.111 27.582L14.9328 27.7213C15.7547 27.8525 16.6587 27.9508 17.6284 28.0246C18.5982 28.0984 19.6255 28.1311 20.6857 28.1311C20.6857 28.1311 20.9487 28.1311 21.0226 28.1311C26.7016 28.1311 31.3039 27.0492 31.3039 25.7213C31.3152 25.6535 31.3152 25.5842 31.3039 25.5164C31.3085 25.4509 31.3085 25.3852 31.3039 25.3197C31.3031 25.0028 31.1928 24.696 30.9916 24.4508C30.8422 24.2627 30.647 24.1159 30.4245 24.0246C30.426 24 30.426 23.9754 30.4245 23.9508C30.4245 23.1812 29.799 22.5574 29.0274 22.5574C29.0266 22.1453 28.8429 21.7546 28.5257 21.4905C28.2085 21.2264 27.7904 21.1158 27.3837 21.1885C27.3858 20.6866 27.1156 20.2228 26.6773 19.9762C26.239 19.7295 25.7012 19.7386 25.2716 20C24.9939 19.1529 24.2009 18.5804 23.3074 18.582C22.9998 18.5826 22.6963 18.6527 22.4198 18.7869C22.1268 18.1518 21.495 17.7402 20.7942 17.7279C20.0933 17.7157 19.4474 18.105 19.1324 18.7295C18.6124 18.5218 18.0298 18.5357 17.5204 18.768C17.011 19.0004 16.6193 19.4308 16.4368 19.959C16.0071 19.6977 15.4694 19.6885 15.0311 19.9352C14.5928 20.1818 14.3225 20.6456 14.3247 21.1475C13.9179 21.0748 13.4998 21.1854 13.1826 21.4495C12.8655 21.7137 12.6818 22.1043 12.681 22.5164C11.9094 22.5164 11.2839 23.1403 11.2839 23.9098C11.2823 23.9344 11.2823 23.959 11.2839 23.9836C10.9674 24.1092 10.7075 24.3451 10.5524 24.6475Z" fill="#C41C30"/>
<path d="M33.3091 33.6066L32.4873 26.2295C32.4051 25.5902 31.8545 24.9918 30.9422 24.4754C31.1435 24.7206 31.2538 25.0274 31.2545 25.3443C31.2592 25.4098 31.2592 25.4755 31.2545 25.541C31.2659 25.6088 31.2659 25.6781 31.2545 25.7459C31.2545 27.0738 26.6522 28.1557 20.9733 28.1557C20.8911 28.1557 20.6364 28.1557 20.6364 28.1557C19.568 28.1557 18.5407 28.1557 17.5791 28.0492C16.6176 27.9426 15.7053 27.877 14.8835 27.7459L14.0617 27.6066C13.6836 27.5328 13.322 27.4508 12.9933 27.3689C12.6645 27.2869 12.3522 27.1885 12.081 27.0984C11.8287 27.0118 11.5818 26.9105 11.3414 26.7951C11.0661 26.6707 10.8134 26.5018 10.5935 26.2951C10.4403 26.1545 10.3463 25.9611 10.3305 25.7541C10.3192 25.6863 10.3192 25.617 10.3305 25.5492C10.3064 25.4136 10.3064 25.2749 10.3305 25.1393C10.3612 24.975 10.4196 24.8171 10.5031 24.6721C10.6605 24.397 10.9068 24.1832 11.2017 24.0656C9.73879 24.6721 8.84299 25.4344 8.73615 26.2705L7.96362 33.4344V33.5246C7.95499 33.6118 7.95499 33.6997 7.96362 33.7869C7.96362 36.0738 13.5193 37.8852 20.6282 37.8852C27.7206 37.8852 33.2845 36.0902 33.2845 33.7869C33.297 33.7274 33.3053 33.6672 33.3091 33.6066Z" fill="#E54945"/>
<path d="M19.0667 33.6066C19.1287 33.4063 19.1287 33.192 19.0667 32.9918C18.9846 32.612 18.7419 32.2863 18.401 32.0984C18.2733 32.0195 18.123 31.985 17.9736 32C17.7188 32.0232 17.5089 32.2093 17.4559 32.459C17.4559 32.5164 17.4559 32.5738 17.4559 32.6311V32.8689C17.5028 33.3593 17.8197 33.7828 18.2777 33.9672C18.4293 34.0356 18.6032 34.0352 18.7545 33.966C18.9058 33.8969 19.0196 33.7658 19.0667 33.6066Z" fill="#C41C30"/>
<path d="M22.617 34.6721C22.5102 34.5 22.3869 34.3279 22.2636 34.1639C22.0724 33.894 21.8393 33.6561 21.5733 33.459C21.2783 33.2411 20.9096 33.147 20.546 33.1967C20.1509 33.2392 19.7824 33.4157 19.5022 33.6967C19.2102 33.9953 18.981 34.3493 18.8283 34.7377C18.7626 34.8934 18.7215 35.0574 18.6722 35.2213C18.5893 35.5251 18.7436 35.8433 19.0338 35.9672C19.1866 36.0125 19.3494 36.0125 19.5022 35.9672C19.6679 35.9362 19.8303 35.8896 19.9871 35.8279C20.2015 35.743 20.4248 35.6825 20.6528 35.6475C20.8621 35.6163 21.0757 35.6331 21.2774 35.6967L21.8445 35.9098C21.9745 35.9656 22.1139 35.9962 22.2554 36H22.3951C22.5759 35.9799 22.737 35.8769 22.8307 35.7213C22.8954 35.5949 22.9128 35.4496 22.88 35.3115C22.8331 35.0839 22.7439 34.867 22.617 34.6721Z" fill="#C41C30"/>
<path d="M21.3185 32.3197C21.4548 32.379 21.6096 32.379 21.7459 32.3197C21.9114 32.2556 22.0582 32.1513 22.1732 32.0164C22.3959 31.7498 22.5155 31.4125 22.5102 31.0656V30.8607C22.4721 30.65 22.3581 30.4605 22.1897 30.3279C22.0069 30.1482 21.7307 30.1022 21.4993 30.2131C21.3052 30.2994 21.1419 30.4423 21.0309 30.623C20.9003 30.8309 20.8214 31.067 20.8007 31.3115C20.7765 31.5208 20.8076 31.7327 20.8912 31.9262C20.9808 32.1049 21.1327 32.2449 21.3185 32.3197Z" fill="#C41C30"/>
<path d="M19.3707 32.2541C19.4712 32.3207 19.5873 32.3603 19.7077 32.3689C19.8839 32.3767 20.0548 32.3079 20.1761 32.1803C20.3436 32.0026 20.4375 31.7684 20.4391 31.5246C20.4611 31.2415 20.4042 30.9578 20.2748 30.7049C20.1667 30.4718 19.9808 30.2835 19.7488 30.1721C19.621 30.1022 19.4728 30.079 19.3297 30.1066C19.1548 30.1524 19.0046 30.264 18.9105 30.418C18.7991 30.5942 18.7446 30.8002 18.7544 31.0082C18.7526 31.1897 18.7832 31.3701 18.8448 31.541C18.9259 31.8352 19.1133 32.0892 19.3707 32.2541Z" fill="#C41C30"/>
<path d="M23.5786 32.0164C23.4819 31.9292 23.3555 31.8823 23.2252 31.8852C23.0293 31.8928 22.8415 31.9649 22.691 32.0902C22.3279 32.3796 22.1387 32.8343 22.1897 33.2951C22.2032 33.4728 22.2822 33.6393 22.4116 33.7623C22.5139 33.8702 22.6572 33.9297 22.806 33.9262C23.0295 33.9203 23.243 33.8328 23.406 33.6803C23.6896 33.4092 23.8449 33.031 23.8333 32.6393C23.8333 32.5984 23.8333 32.5492 23.8333 32.4918C23.8093 32.3077 23.7187 32.1386 23.5786 32.0164Z" fill="#C41C30"/>
<path d="M55.2029 14.6885C55.9554 14.6576 56.6326 15.1405 56.8466 15.8607L58.7697 15.1639C58.2645 13.6401 56.7828 12.6561 55.1783 12.7787C52.836 12.7787 51.2006 14.6148 51.2006 17.1393C51.2006 19.6639 52.8443 21.5 55.1783 21.5C56.7726 21.625 58.2459 20.6465 58.7451 19.1311L56.8466 18.4344C56.6296 19.1513 55.9531 19.6303 55.2029 19.5984C54.0277 19.5984 53.3867 18.5984 53.3867 17.1393C53.3867 15.6803 54.0277 14.6885 55.2029 14.6885Z" fill="white"/>
<path fill-rule="evenodd" clip-rule="evenodd" d="M64.8924 19.459C64.8924 19.6803 64.9746 19.8115 65.1143 19.8115C65.2572 19.8255 65.4014 19.8172 65.5417 19.7869V21.1066C65.0746 21.2914 64.5806 21.3993 64.0788 21.4262C63.5775 21.4262 63.2241 21.2623 63.1172 20.7213C62.5218 21.1928 61.7897 21.4601 61.0298 21.4836C60.5294 21.5244 60.0356 21.3479 59.6751 20.9993C59.3146 20.6508 59.1224 20.1641 59.1478 19.6639C59.1478 18.2951 60.2655 17.918 61.0873 17.8115C61.1928 17.7973 61.3184 17.7853 61.4538 17.7723C62.0991 17.7106 62.9693 17.6275 62.9693 17.1803C62.9611 16.7705 62.6899 16.6066 62.2297 16.6066C61.784 16.5876 61.3777 16.8599 61.227 17.2787L59.6409 16.6885C59.9285 15.9016 60.4134 15.1229 62.3283 15.1229C64.2432 15.1229 64.8924 16 64.8924 17.2131V19.459ZM62.0324 20.1721C62.3627 20.1139 62.6783 19.9913 62.9611 19.8115L62.9529 18.5902C62.6887 18.6898 62.4123 18.7532 62.131 18.7787C61.49 18.8443 61.2106 19.1148 61.2106 19.5984C61.2106 20.082 61.5886 20.2459 62.0324 20.1721Z" fill="white"/>
<path d="M68.2702 16.0984C68.2375 15.83 68.0981 15.5859 67.8833 15.421C67.6685 15.2561 67.3963 15.1842 67.1278 15.2213C66.626 15.2481 66.132 15.356 65.6649 15.541V16.9426C65.8065 16.9205 65.9507 16.9205 66.0923 16.9426C66.232 16.9426 66.306 17.0738 66.306 17.2951V21.3115H68.2866V17.5902C68.4888 17.2719 68.8303 17.0682 69.2071 17.041C69.4905 17.0257 69.7732 17.0821 70.0289 17.2049L70.711 15.4098C70.3075 15.1311 69.8002 15.0468 69.3278 15.18C68.8555 15.3133 68.4675 15.6501 68.2702 16.0984Z" fill="white"/>
<path fill-rule="evenodd" clip-rule="evenodd" d="M71.2905 16.0493C71.87 15.4464 72.6763 15.1134 73.5135 15.1311C74.3308 15.136 75.1097 15.4778 75.6655 16.0755C76.2212 16.6733 76.5042 17.4737 76.4475 18.2869L72.3383 19.2459C72.5328 19.6714 72.9827 19.9208 73.4478 19.8607C74.0166 19.8722 74.54 19.552 74.7874 19.041L76.431 19.6229C75.9208 20.788 74.755 21.5297 73.4806 21.5C72.6422 21.5166 71.8358 21.1785 71.2611 20.5694C70.6863 19.9603 70.397 19.137 70.4645 18.3033C70.4114 17.4698 70.711 16.6522 71.2905 16.0493ZM73.3902 16.7295C72.7379 16.7788 72.2259 17.3072 72.1986 17.959L74.6148 17.4016C74.399 16.9335 73.9022 16.6608 73.3902 16.7295Z" fill="white"/>
<path d="M82.488 19.4098C82.1284 19.4843 81.7622 19.5227 81.3949 19.5246C80.1951 19.5246 79.2993 18.7049 79.2993 17.1311C79.2993 15.5574 80.1786 14.6721 81.4278 14.6721C82.1094 14.6603 82.7584 14.9627 83.1866 15.4918L84.4933 14.1311C83.7061 13.2351 82.5556 12.7412 81.3621 12.7869C80.1962 12.7636 79.0741 13.2295 78.2693 14.0711C77.4645 14.9128 77.051 16.0527 77.1296 17.2131C77.0603 18.3561 77.4825 19.4744 78.2904 20.288C79.0983 21.1016 80.2154 21.5335 81.3621 21.4754C82.5069 21.5051 83.6299 21.1596 84.559 20.4918V17.3852H82.488V19.4016V19.4098Z" fill="white"/>
<path d="M91.3228 19.7295C91.183 19.7295 91.1091 19.5984 91.1091 19.377V15.3197H89.1285V19.2623C88.8491 19.5148 88.4935 19.6676 88.1176 19.6967C87.1971 19.6967 87.1149 19.0246 87.1149 18.2295V15.3197H85.1425V19.2541C85.1425 20.8197 86.063 21.5 87.0821 21.5C87.8817 21.4855 88.6388 21.1377 89.1695 20.541C89.196 20.8073 89.3302 21.0514 89.5411 21.2169C89.752 21.3824 90.0215 21.455 90.2872 21.418C90.789 21.3911 91.283 21.2832 91.7501 21.0984V19.6721C91.6116 19.7136 91.4674 19.733 91.3228 19.7295Z" fill="white"/>
<path d="M93.5499 15.2131C93.0482 15.2399 92.5541 15.3478 92.0871 15.5328V16.9344C92.2287 16.9123 92.3728 16.9123 92.5144 16.9344C92.6541 16.9344 92.7281 17.0656 92.7281 17.2869V21.3115H94.7087V16.3934C94.7581 16.0723 94.653 15.7467 94.425 15.5145C94.1971 15.2823 93.8729 15.1707 93.5499 15.2131Z" fill="white"/>
<path fill-rule="evenodd" clip-rule="evenodd" d="M101.694 19.4016C101.694 19.6229 101.768 19.7541 101.908 19.7541C102.048 19.7673 102.19 19.759 102.327 19.7295V21.1311C101.86 21.3161 101.366 21.4241 100.864 21.4508C100.632 21.4741 100.402 21.3981 100.229 21.2418C100.057 21.0855 99.9591 20.8635 99.9603 20.6311C99.4786 21.1543 98.7987 21.4517 98.0865 21.4508C96.4593 21.4508 95.3169 20.041 95.3169 18.2705C95.3169 16.5 96.4675 15.0902 98.1111 15.0902C98.6996 15.0857 99.2694 15.2955 99.7137 15.6803V12.5H101.694V19.4016ZM98.3495 19.6721C99.0135 19.7364 99.6122 19.2723 99.7137 18.6148L99.7055 17.5574C99.3973 17.0918 98.8837 16.8021 98.3248 16.7787C97.5852 16.7787 97.1249 17.2705 97.1249 18.2131C97.1249 19.1557 97.5852 19.6721 98.3495 19.6721Z" fill="white"/>
<path fill-rule="evenodd" clip-rule="evenodd" d="M104.538 19.2541C104.732 19.6796 105.182 19.929 105.647 19.8689C106.212 19.8725 106.728 19.5497 106.971 19.041L108.557 19.6148C108.049 20.7742 106.891 21.5148 105.623 21.4918C104.784 21.5084 103.978 21.1703 103.403 20.5612C102.828 19.9521 102.539 19.1288 102.607 18.2951C102.554 17.4616 102.853 16.644 103.433 16.0411C104.012 15.4383 104.818 15.1052 105.656 15.1229C106.486 15.1114 107.283 15.4485 107.852 16.0518C108.421 16.6551 108.709 17.4692 108.647 18.2951L104.538 19.2541ZM106.782 17.3934C106.566 16.9253 106.069 16.6526 105.557 16.7213H105.549C104.897 16.7749 104.388 17.3069 104.365 17.959L106.782 17.3934Z" fill="white"/>
<path d="M94.1252 12.1721C93.882 12.1712 93.6554 12.295 93.5253 12.5C93.3407 12.1846 92.9451 12.0621 92.6138 12.2177C92.2825 12.3733 92.1252 12.7555 92.2514 13.0984C92.4487 13.7787 93.4924 14.5164 93.5253 14.5328C93.5253 14.5328 94.6019 13.7705 94.7991 13.0984C94.8705 12.883 94.8337 12.6466 94.7001 12.463C94.5666 12.2795 94.3526 12.1712 94.1252 12.1721Z" fill="white"/>
</g>
</svg>
