<svg width="42" height="50" viewBox="0 0 42 50" fill="none" xmlns="http://www.w3.org/2000/svg">
<path d="M34.8624 0.819671H6.46787C4.77858 0.793382 3.14803 1.43757 1.93503 2.61049C0.72202 3.7834 0.0259543 5.38893 0 7.07377V30.0246C0.00953498 33.854 1.15318 37.5953 3.28736 40.7787C7.16472 46.5646 13.6916 50.0272 20.6693 50C27.6585 50.0382 34.2002 46.5744 38.084 40.7787C40.2182 37.5953 41.3618 33.854 41.3714 30.0246V7.07377C41.3455 5.38169 40.6438 3.76984 39.4218 2.59574C38.1999 1.42164 36.5588 0.782354 34.8624 0.819671Z" fill="#E54945"/>
<path d="M20.6117 8.06557C20.3258 8.06557 20.094 8.29677 20.094 8.58197V13.4098C20.094 13.695 20.3258 13.9262 20.6117 13.9262C20.8977 13.9262 21.1295 13.695 21.1295 13.4098V8.58197C21.1295 8.29677 20.8977 8.06557 20.6117 8.06557Z" fill="white"/>
<path d="M12.3933 12.0082C12.1894 11.8114 11.8658 11.8114 11.6619 12.0082C11.4602 12.2098 11.4602 12.5361 11.6619 12.7377L14.8506 15.8443C14.9807 15.9831 15.1768 16.0394 15.361 15.9909C15.5452 15.9424 15.6878 15.7969 15.7323 15.6122C15.7768 15.4274 15.7159 15.2332 15.5738 15.1066L12.3933 12.0082Z" fill="white"/>
<path d="M29.6684 12.0164C29.4645 11.8196 29.1409 11.8196 28.937 12.0164L25.7482 15.123C25.6061 15.2496 25.5453 15.4438 25.5897 15.6285C25.6342 15.8133 25.7769 15.9588 25.9611 16.0073C26.1453 16.0558 26.3413 15.9995 26.4714 15.8607L29.6602 12.7541C29.8618 12.5525 29.8618 12.2262 29.6602 12.0246L29.6684 12.0164Z" fill="white"/>
<path fill-rule="evenodd" clip-rule="evenodd" d="M34.3611 33.3689C34.3703 33.4478 34.3703 33.5276 34.3611 33.6066L34.3775 33.6885V33.7295C34.3775 37.2049 27.2604 38.8443 20.6857 38.8443C14.0863 38.8361 6.98563 37.2377 6.98563 33.7295C6.9772 33.6149 6.9772 33.4998 6.98563 33.3852C6.98352 33.347 6.98352 33.3087 6.98563 33.2705L7.78282 26.1066C7.78018 26.0629 7.78018 26.0191 7.78282 25.9754C7.96362 24.9508 8.8019 24.0328 10.2894 23.3115C10.4954 22.5627 11.0438 21.955 11.7687 21.6721C12.0613 20.9271 12.6989 20.3706 13.4782 20.1803C13.9055 19.2217 14.8957 18.639 15.9437 18.7295C16.6041 17.8597 17.6756 17.4017 18.7626 17.5246C19.2985 16.9829 20.0296 16.678 20.7925 16.678C21.5555 16.678 22.2866 16.9829 22.8225 17.5246C22.9838 17.5116 23.146 17.5116 23.3074 17.5246C24.2771 17.5259 25.19 17.9811 25.7729 18.7541C26.8209 18.6636 27.811 19.2463 28.2384 20.2049C29.0176 20.3952 29.6553 20.9517 29.9478 21.6967C30.7123 21.9975 31.2763 22.6583 31.4518 23.459C31.536 23.5275 31.6156 23.6014 31.6901 23.6803C32.6326 24.1374 33.3244 24.9864 33.5803 26C33.5831 26.0437 33.5831 26.0875 33.5803 26.1311L34.3611 33.3689ZM8.00471 33.7131C8.00471 36.0164 13.5603 37.8115 20.6693 37.8115C27.7617 37.8033 33.3174 36.0082 33.3831 33.6885C33.386 33.6394 33.386 33.5901 33.3831 33.541L32.5613 26.1639C32.4791 25.5246 31.9284 24.9262 31.0162 24.4098C30.8669 24.2217 30.6716 24.0749 30.4491 23.9836C30.4507 23.959 30.4507 23.9344 30.4491 23.9098C30.4491 23.1403 29.8236 22.5164 29.052 22.5164C29.0512 22.1043 28.8675 21.7137 28.5504 21.4495C28.2332 21.1854 27.8151 21.0748 27.4083 21.1475C27.4105 20.6456 27.1402 20.1818 26.7019 19.9352C26.2636 19.6885 25.7258 19.6977 25.2962 19.959C25.0185 19.1119 24.2256 18.5395 23.332 18.541C23.0244 18.5416 22.721 18.6117 22.4444 18.7459C22.1515 18.1108 21.5197 17.6992 20.8188 17.687C20.118 17.6747 19.4721 18.064 19.1571 18.6885C18.6288 18.4743 18.035 18.4897 17.5186 18.7309C17.0021 18.9721 16.6101 19.4172 16.4368 19.959C15.9994 19.675 15.4394 19.6595 14.9869 19.9189C14.5344 20.1782 14.2659 20.6687 14.2918 21.1885C13.8851 21.1158 13.4669 21.2264 13.1498 21.4905C12.8326 21.7546 12.6489 22.1453 12.6481 22.5574C11.8765 22.5574 11.251 23.1812 11.251 23.9508C11.2494 23.9754 11.2494 24 11.251 24.0246C9.77988 24.6311 8.88408 25.4098 8.78546 26.2295L8.00471 33.3607V33.4508C7.99609 33.538 7.99609 33.6259 8.00471 33.7131Z" fill="white"/>
<path d="M11.3578 26.7787C11.0826 26.6543 10.8298 26.4854 10.6099 26.2787C10.8298 26.4854 11.0826 26.6543 11.3578 26.7787Z" fill="white"/>
<path d="M20.6446 28.1475C19.5762 28.1475 18.5489 28.1475 17.5874 28.041C18.5571 28.1148 19.5844 28.1475 20.6446 28.1475Z" fill="white"/>
<path d="M10.5524 24.6475C10.4689 24.7925 10.4106 24.9504 10.3798 25.1148C10.3557 25.2503 10.3557 25.389 10.3798 25.5246C10.3685 25.5924 10.3685 25.6617 10.3798 25.7295C10.3956 25.9365 10.4896 26.1299 10.6428 26.2705C10.8627 26.4772 11.1154 26.6461 11.3907 26.7705C11.6311 26.886 11.878 26.9872 12.1303 27.0738C12.4098 27.1721 12.7139 27.2623 13.0426 27.3443C13.3713 27.4262 13.7329 27.5082 14.111 27.582L14.9328 27.7213C15.7547 27.8525 16.6587 27.9508 17.6284 28.0246C18.5982 28.0984 19.6255 28.1311 20.6857 28.1311C20.6857 28.1311 20.9487 28.1311 21.0226 28.1311C26.7016 28.1311 31.3039 27.0492 31.3039 25.7213C31.3152 25.6535 31.3152 25.5842 31.3039 25.5164C31.3085 25.4509 31.3085 25.3852 31.3039 25.3197C31.3031 25.0028 31.1928 24.696 30.9916 24.4508C30.8422 24.2627 30.647 24.1159 30.4245 24.0246C30.426 24 30.426 23.9754 30.4245 23.9508C30.4245 23.1812 29.799 22.5574 29.0274 22.5574C29.0266 22.1453 28.8429 21.7546 28.5257 21.4905C28.2085 21.2264 27.7904 21.1158 27.3837 21.1885C27.3858 20.6866 27.1156 20.2228 26.6773 19.9762C26.239 19.7295 25.7012 19.7386 25.2716 20C24.9939 19.1529 24.2009 18.5804 23.3074 18.582C22.9998 18.5826 22.6963 18.6527 22.4198 18.7869C22.1268 18.1518 21.495 17.7402 20.7942 17.7279C20.0933 17.7157 19.4474 18.105 19.1324 18.7295C18.6124 18.5218 18.0298 18.5357 17.5204 18.768C17.011 19.0004 16.6193 19.4308 16.4368 19.959C16.0071 19.6977 15.4694 19.6885 15.0311 19.9352C14.5928 20.1818 14.3225 20.6456 14.3247 21.1475C13.9179 21.0748 13.4998 21.1854 13.1826 21.4495C12.8655 21.7137 12.6818 22.1043 12.681 22.5164C11.9094 22.5164 11.2839 23.1403 11.2839 23.9098C11.2823 23.9344 11.2823 23.959 11.2839 23.9836C10.9674 24.1092 10.7075 24.3451 10.5524 24.6475Z" fill="#C41C30"/>
<path d="M33.3091 33.6066L32.4873 26.2295C32.4051 25.5902 31.8545 24.9918 30.9422 24.4754C31.1435 24.7206 31.2538 25.0274 31.2545 25.3443C31.2592 25.4098 31.2592 25.4755 31.2545 25.541C31.2659 25.6088 31.2659 25.6781 31.2545 25.7459C31.2545 27.0738 26.6522 28.1557 20.9733 28.1557C20.8911 28.1557 20.6364 28.1557 20.6364 28.1557C19.568 28.1557 18.5407 28.1557 17.5791 28.0492C16.6176 27.9426 15.7053 27.877 14.8835 27.7459L14.0617 27.6066C13.6836 27.5328 13.322 27.4508 12.9933 27.3689C12.6645 27.2869 12.3522 27.1885 12.081 27.0984C11.8287 27.0118 11.5818 26.9105 11.3414 26.7951C11.0661 26.6707 10.8134 26.5018 10.5935 26.2951C10.4403 26.1545 10.3463 25.9611 10.3305 25.7541C10.3192 25.6863 10.3192 25.617 10.3305 25.5492C10.3064 25.4136 10.3064 25.2749 10.3305 25.1393C10.3612 24.975 10.4196 24.8171 10.5031 24.6721C10.6605 24.397 10.9068 24.1832 11.2017 24.0656C9.73879 24.6721 8.84299 25.4344 8.73615 26.2705L7.96362 33.4344V33.5246C7.95499 33.6118 7.95499 33.6997 7.96362 33.7869C7.96362 36.0738 13.5193 37.8852 20.6282 37.8852C27.7206 37.8852 33.2845 36.0902 33.2845 33.7869C33.297 33.7274 33.3053 33.6672 33.3091 33.6066Z" fill="#E54945"/>
<path d="M19.0667 33.6066C19.1287 33.4063 19.1287 33.192 19.0667 32.9918C18.9846 32.612 18.7419 32.2863 18.401 32.0984C18.2733 32.0195 18.123 31.985 17.9736 32C17.7188 32.0232 17.5089 32.2093 17.4559 32.459C17.4559 32.5164 17.4559 32.5738 17.4559 32.6311V32.8689C17.5028 33.3593 17.8197 33.7828 18.2777 33.9672C18.4293 34.0356 18.6032 34.0352 18.7545 33.966C18.9058 33.8969 19.0196 33.7658 19.0667 33.6066Z" fill="#C41C30"/>
<path d="M22.617 34.6721C22.5102 34.5 22.3869 34.3279 22.2636 34.1639C22.0724 33.894 21.8393 33.6561 21.5733 33.459C21.2783 33.2411 20.9096 33.147 20.546 33.1967C20.1509 33.2392 19.7824 33.4157 19.5022 33.6967C19.2102 33.9953 18.981 34.3493 18.8283 34.7377C18.7626 34.8934 18.7215 35.0574 18.6722 35.2213C18.5893 35.5251 18.7436 35.8433 19.0338 35.9672C19.1866 36.0125 19.3494 36.0125 19.5022 35.9672C19.6679 35.9362 19.8303 35.8896 19.9871 35.8279C20.2015 35.743 20.4248 35.6825 20.6528 35.6475C20.8621 35.6163 21.0757 35.6331 21.2774 35.6967L21.8445 35.9098C21.9745 35.9656 22.1139 35.9962 22.2554 36H22.3951C22.5759 35.9799 22.737 35.8769 22.8307 35.7213C22.8954 35.5949 22.9128 35.4496 22.88 35.3115C22.8331 35.0839 22.7439 34.867 22.617 34.6721Z" fill="#C41C30"/>
<path d="M21.3185 32.3197C21.4548 32.379 21.6096 32.379 21.7459 32.3197C21.9114 32.2556 22.0582 32.1513 22.1732 32.0164C22.3959 31.7498 22.5155 31.4125 22.5102 31.0656V30.8607C22.4721 30.65 22.3581 30.4605 22.1897 30.3279C22.0069 30.1482 21.7307 30.1022 21.4993 30.2131C21.3052 30.2994 21.1419 30.4423 21.0309 30.623C20.9003 30.8309 20.8214 31.067 20.8007 31.3115C20.7765 31.5208 20.8076 31.7327 20.8912 31.9262C20.9808 32.1049 21.1327 32.2449 21.3185 32.3197Z" fill="#C41C30"/>
<path d="M19.3707 32.2541C19.4712 32.3207 19.5873 32.3603 19.7077 32.3689C19.8839 32.3767 20.0548 32.3079 20.1761 32.1803C20.3436 32.0026 20.4375 31.7684 20.4391 31.5246C20.4611 31.2415 20.4042 30.9578 20.2748 30.7049C20.1667 30.4718 19.9808 30.2835 19.7488 30.1721C19.621 30.1022 19.4728 30.079 19.3297 30.1066C19.1548 30.1524 19.0046 30.264 18.9105 30.418C18.7991 30.5942 18.7446 30.8002 18.7544 31.0082C18.7526 31.1897 18.7832 31.3701 18.8448 31.541C18.9259 31.8352 19.1133 32.0892 19.3707 32.2541Z" fill="#C41C30"/>
<path d="M23.5786 32.0164C23.4819 31.9292 23.3555 31.8823 23.2252 31.8852C23.0293 31.8928 22.8415 31.9649 22.691 32.0902C22.3279 32.3796 22.1387 32.8343 22.1897 33.2951C22.2032 33.4728 22.2822 33.6393 22.4116 33.7623C22.5139 33.8702 22.6572 33.9297 22.806 33.9262C23.0295 33.9203 23.243 33.8328 23.406 33.6803C23.6896 33.4092 23.8449 33.031 23.8333 32.6393C23.8333 32.5984 23.8333 32.5492 23.8333 32.4918C23.8093 32.3077 23.7187 32.1386 23.5786 32.0164Z" fill="#C41C30"/>
</svg>
