<svg width="41" height="50" viewBox="0 0 41 50" fill="none" xmlns="http://www.w3.org/2000/svg">
<path d="M34.8624 0.00154663H6.46787C4.77858 -0.0247432 3.14803 0.619447 1.93503 1.79236C0.72202 2.96527 0.0259543 4.5708 0 6.25564V29.2065C0.00953498 33.0359 1.15318 36.7772 3.28736 39.9606C7.16472 45.7465 13.6916 49.2091 20.6693 49.1819C27.6585 49.2201 34.2002 45.7562 38.084 39.9606C40.2182 36.7772 41.3618 33.0359 41.3714 29.2065V6.25564C41.3455 4.56357 40.6438 2.95172 39.4218 1.77762C38.1999 0.603519 36.5588 -0.0357708 34.8624 0.00154663Z" fill="#E54945"/>
<path d="M20.6117 7.24745C20.3258 7.24745 20.094 7.47865 20.094 7.76384V12.5917C20.094 12.8769 20.3258 13.1081 20.6117 13.1081C20.8977 13.1081 21.1295 12.8769 21.1295 12.5917V7.76384C21.1295 7.47865 20.8977 7.24745 20.6117 7.24745Z" fill="white"/>
<path d="M12.3933 11.1901C12.1894 10.9933 11.8658 10.9933 11.6619 11.1901C11.4602 11.3916 11.4602 11.718 11.6619 11.9196L14.8506 15.0261C14.9807 15.165 15.1768 15.2213 15.361 15.1728C15.5452 15.1243 15.6878 14.9788 15.7323 14.794C15.7768 14.6093 15.7159 14.415 15.5738 14.2884L12.3933 11.1901Z" fill="white"/>
<path d="M29.6684 11.1983C29.4645 11.0015 29.1409 11.0015 28.937 11.1983L25.7482 14.3048C25.6061 14.4314 25.5453 14.6256 25.5897 14.8104C25.6342 14.9952 25.7769 15.1407 25.9611 15.1892C26.1453 15.2377 26.3413 15.1813 26.4714 15.0425L29.6602 11.936C29.8618 11.7344 29.8618 11.408 29.6602 11.2065L29.6684 11.1983Z" fill="white"/>
<path fill-rule="evenodd" clip-rule="evenodd" d="M34.3611 32.5507C34.3703 32.6297 34.3703 32.7095 34.3611 32.7884L34.3775 32.8704V32.9114C34.3775 36.3868 27.2604 38.0261 20.6857 38.0261C14.0863 38.0179 6.98563 36.4196 6.98563 32.9114C6.9772 32.7968 6.9772 32.6817 6.98563 32.5671C6.98352 32.5289 6.98352 32.4906 6.98563 32.4524L7.78282 25.2884C7.78018 25.2448 7.78018 25.201 7.78282 25.1573C7.96362 24.1327 8.8019 23.2147 10.2894 22.4934C10.4954 21.7446 11.0438 21.1369 11.7687 20.854C12.0613 20.109 12.6989 19.5525 13.4782 19.3622C13.9055 18.4035 14.8957 17.8209 15.9437 17.9114C16.6041 17.0416 17.6756 16.5836 18.7626 16.7065C19.2985 16.1648 20.0296 15.8599 20.7925 15.8599C21.5555 15.8599 22.2866 16.1648 22.8225 16.7065C22.9838 16.6935 23.146 16.6935 23.3074 16.7065C24.2771 16.7078 25.19 17.163 25.7729 17.936C26.8209 17.8455 27.811 18.4281 28.2384 19.3868C29.0176 19.5771 29.6553 20.1336 29.9478 20.8786C30.7123 21.1793 31.2763 21.8402 31.4518 22.6409C31.536 22.7093 31.6156 22.7833 31.6901 22.8622C32.6326 23.3193 33.3244 24.1683 33.5803 25.1819C33.5831 25.2255 33.5831 25.2693 33.5803 25.313L34.3611 32.5507ZM8.00471 32.895C8.00471 35.1983 13.5603 36.9934 20.6693 36.9934C27.7617 36.9852 33.3174 35.1901 33.3831 32.8704C33.386 32.8213 33.386 32.772 33.3831 32.7229L32.5613 25.3458C32.4791 24.7065 31.9284 24.1081 31.0162 23.5917C30.8669 23.4036 30.6716 23.2568 30.4491 23.1655C30.4507 23.1409 30.4507 23.1163 30.4491 23.0917C30.4491 22.3221 29.8236 21.6983 29.052 21.6983C29.0512 21.2862 28.8675 20.8955 28.5504 20.6314C28.2332 20.3673 27.8151 20.2567 27.4083 20.3294C27.4105 19.8275 27.1402 19.3637 26.7019 19.117C26.2636 18.8704 25.7258 18.8795 25.2962 19.1409C25.0185 18.2938 24.2256 17.7213 23.332 17.7229C23.0244 17.7235 22.721 17.7935 22.4444 17.9278C22.1515 17.2927 21.5197 16.8811 20.8188 16.8688C20.118 16.8566 19.4721 17.2459 19.1571 17.8704C18.6288 17.6562 18.035 17.6716 17.5186 17.9127C17.0021 18.1539 16.6101 18.5991 16.4368 19.1409C15.9994 18.8569 15.4394 18.8414 14.9869 19.1008C14.5344 19.3601 14.2659 19.8505 14.2918 20.3704C13.8851 20.2977 13.4669 20.4082 13.1498 20.6724C12.8326 20.9365 12.6489 21.3271 12.6481 21.7393C11.8765 21.7393 11.251 22.3631 11.251 23.1327C11.2494 23.1573 11.2494 23.1819 11.251 23.2065C9.77988 23.813 8.88408 24.5917 8.78546 25.4114L8.00471 32.5425V32.6327C7.99609 32.7199 7.99609 32.8078 8.00471 32.895Z" fill="white"/>
<path d="M11.3578 25.9606C11.0826 25.8362 10.8298 25.6673 10.6099 25.4606C10.8298 25.6673 11.0826 25.8362 11.3578 25.9606Z" fill="white"/>
<path d="M20.6446 27.3294C19.5762 27.3294 18.5489 27.3294 17.5874 27.2229C18.5571 27.2966 19.5844 27.3294 20.6446 27.3294Z" fill="white"/>
<path d="M10.5524 23.8294C10.4689 23.9743 10.4106 24.1323 10.3798 24.2966C10.3557 24.4322 10.3557 24.5709 10.3798 24.7065C10.3685 24.7743 10.3685 24.8435 10.3798 24.9114C10.3956 25.1184 10.4896 25.3118 10.6428 25.4524C10.8627 25.6591 11.1154 25.828 11.3907 25.9524C11.6311 26.0678 11.878 26.1691 12.1303 26.2556C12.4098 26.354 12.7139 26.4442 13.0426 26.5261C13.3713 26.6081 13.7329 26.6901 14.111 26.7638L14.9328 26.9032C15.7547 27.0343 16.6587 27.1327 17.6284 27.2065C18.5982 27.2802 19.6255 27.313 20.6857 27.313C20.6857 27.313 20.9487 27.313 21.0226 27.313C26.7016 27.313 31.3039 26.2311 31.3039 24.9032C31.3152 24.8353 31.3152 24.7661 31.3039 24.6983C31.3085 24.6328 31.3085 24.567 31.3039 24.5015C31.3031 24.1847 31.1928 23.8779 30.9916 23.6327C30.8422 23.4445 30.647 23.2978 30.4245 23.2065C30.426 23.1819 30.426 23.1573 30.4245 23.1327C30.4245 22.3631 29.799 21.7393 29.0274 21.7393C29.0266 21.3271 28.8429 20.9365 28.5257 20.6724C28.2085 20.4082 27.7904 20.2977 27.3837 20.3704C27.3858 19.8685 27.1156 19.4047 26.6773 19.158C26.239 18.9114 25.7012 18.9205 25.2716 19.1819C24.9939 18.3348 24.2009 17.7623 23.3074 17.7638C22.9998 17.7645 22.6963 17.8345 22.4198 17.9688C22.1268 17.3336 21.495 16.9221 20.7942 16.9098C20.0933 16.8976 19.4474 17.2869 19.1324 17.9114C18.6124 17.7036 18.0298 17.7176 17.5204 17.9499C17.011 18.1823 16.6193 18.6127 16.4368 19.1409C16.0071 18.8795 15.4694 18.8704 15.0311 19.117C14.5928 19.3637 14.3225 19.8275 14.3247 20.3294C13.9179 20.2567 13.4998 20.3673 13.1826 20.6314C12.8655 20.8955 12.6818 21.2862 12.681 21.6983C11.9094 21.6983 11.2839 22.3221 11.2839 23.0917C11.2823 23.1163 11.2823 23.1409 11.2839 23.1655C10.9674 23.2911 10.7075 23.527 10.5524 23.8294Z" fill="#C41C30"/>
<path d="M33.3091 32.7884L32.4873 25.4114C32.4051 24.772 31.8545 24.1737 30.9422 23.6573C31.1435 23.9024 31.2538 24.2093 31.2545 24.5261C31.2592 24.5916 31.2592 24.6574 31.2545 24.7229C31.2659 24.7907 31.2659 24.8599 31.2545 24.9278C31.2545 26.2556 26.6522 27.3376 20.9733 27.3376C20.8911 27.3376 20.6364 27.3376 20.6364 27.3376C19.568 27.3376 18.5407 27.3376 17.5791 27.2311C16.6176 27.1245 15.7053 27.0589 14.8835 26.9278L14.0617 26.7884C13.6836 26.7147 13.322 26.6327 12.9933 26.5507C12.6645 26.4688 12.3522 26.3704 12.081 26.2802C11.8287 26.1937 11.5818 26.0924 11.3414 25.977C11.0661 25.8526 10.8134 25.6837 10.5935 25.477C10.4403 25.3364 10.3463 25.143 10.3305 24.936C10.3192 24.8681 10.3192 24.7989 10.3305 24.7311C10.3064 24.5955 10.3064 24.4568 10.3305 24.3212C10.3612 24.1569 10.4196 23.9989 10.5031 23.854C10.6605 23.5789 10.9068 23.3651 11.2017 23.2474C9.73879 23.854 8.84299 24.6163 8.73615 25.4524L7.96362 32.6163V32.7065C7.95499 32.7937 7.95499 32.8815 7.96362 32.9688C7.96362 35.2556 13.5193 37.0671 20.6282 37.0671C27.7206 37.0671 33.2845 35.272 33.2845 32.9688C33.297 32.9093 33.3053 32.8491 33.3091 32.7884Z" fill="#E54945"/>
<path d="M19.0667 32.7884C19.1287 32.5882 19.1287 32.3739 19.0667 32.1737C18.9846 31.7939 18.7419 31.4681 18.401 31.2802C18.2733 31.2014 18.123 31.1668 17.9736 31.1819C17.7188 31.2051 17.5089 31.3912 17.4559 31.6409C17.4559 31.6983 17.4559 31.7556 17.4559 31.813V32.0507C17.5028 32.5411 17.8197 32.9647 18.2777 33.1491C18.4293 33.2175 18.6032 33.2171 18.7545 33.1479C18.9058 33.0788 19.0196 32.9477 19.0667 32.7884Z" fill="#C41C30"/>
<path d="M22.617 33.854C22.5102 33.6819 22.3869 33.5097 22.2636 33.3458C22.0724 33.0759 21.8393 32.8379 21.5733 32.6409C21.2783 32.423 20.9096 32.3289 20.546 32.3786C20.1509 32.4211 19.7824 32.5976 19.5022 32.8786C19.2101 33.1772 18.981 33.5312 18.8283 33.9196C18.7626 34.0753 18.7215 34.2393 18.6722 34.4032C18.5893 34.707 18.7436 35.0252 19.0338 35.1491C19.1866 35.1944 19.3494 35.1944 19.5022 35.1491C19.6679 35.1181 19.8303 35.0714 19.9871 35.0097C20.2015 34.9248 20.4248 34.8644 20.6528 34.8294C20.8621 34.7981 21.0757 34.815 21.2774 34.8786L21.8445 35.0917C21.9745 35.1474 22.1139 35.178 22.2554 35.1819H22.3951C22.5759 35.1618 22.737 35.0587 22.8307 34.9032C22.8953 34.7767 22.9128 34.6315 22.88 34.4934C22.8331 34.2657 22.7439 34.0489 22.617 33.854Z" fill="#C41C30"/>
<path d="M21.3185 31.5015C21.4548 31.5609 21.6096 31.5609 21.7459 31.5015C21.9114 31.4374 22.0582 31.3332 22.1732 31.1983C22.3959 30.9317 22.5155 30.5944 22.5102 30.2474V30.0425C22.4721 29.8319 22.3581 29.6424 22.1897 29.5097C22.0069 29.33 21.7307 29.2841 21.4993 29.395C21.3052 29.4813 21.1419 29.6242 21.0309 29.8048C20.9003 30.0128 20.8214 30.2488 20.8007 30.4934C20.7765 30.7026 20.8076 30.9146 20.8912 31.1081C20.9808 31.2868 21.1327 31.4267 21.3185 31.5015Z" fill="#C41C30"/>
<path d="M19.3707 31.436C19.4712 31.5026 19.5873 31.5421 19.7077 31.5507C19.8839 31.5586 20.0548 31.4898 20.1762 31.3622C20.3436 31.1845 20.4375 30.9503 20.4391 30.7065C20.4611 30.4234 20.4042 30.1397 20.2748 29.8868C20.1667 29.6537 19.9808 29.4654 19.7488 29.354C19.621 29.284 19.4728 29.2608 19.3297 29.2884C19.1548 29.3342 19.0046 29.4459 18.9105 29.5999C18.7991 29.776 18.7446 29.982 18.7544 30.1901C18.7526 30.3716 18.7832 30.552 18.8448 30.7229C18.926 31.0171 19.1133 31.2711 19.3707 31.436Z" fill="#C41C30"/>
<path d="M23.5786 31.1983C23.4819 31.1111 23.3555 31.0642 23.2252 31.0671C23.0293 31.0747 22.8415 31.1468 22.691 31.272C22.3279 31.5614 22.1387 32.0162 22.1897 32.477C22.2032 32.6547 22.2822 32.8211 22.4116 32.9442C22.5139 33.052 22.6572 33.1116 22.806 33.1081C23.0295 33.1022 23.243 33.0147 23.406 32.8622C23.6896 32.5911 23.8449 32.2129 23.8333 31.8212C23.8333 31.7802 23.8333 31.7311 23.8333 31.6737C23.8093 31.4895 23.7187 31.3205 23.5786 31.1983Z" fill="#C41C30"/>
</svg>
