<svg width="197" height="60" viewBox="0 0 197 60" fill="none" xmlns="http://www.w3.org/2000/svg">
<path d="M125 35.1H121.9V45.3C121.9 45.9 121.4 46.5 120.7 46.5C120 46.5 119.5 46 119.5 45.3V35.1H116.4C115.8 35.1 115.4 34.6 115.4 34C115.4 33.4 115.9 33 116.4 33H125C125.6 33 126 33.5 126 34.1C126.1 34.6 125.6 35.1 125 35.1Z" fill="#04857E"/>
<path d="M133 46.4C132.4 46.4 131.9 45.9 131.9 45.3V45C131.2 45.8 130 46.5 128.5 46.5C126.4 46.5 125.4 45.4 125.4 43.4V37.5C125.4 36.9 125.9 36.5 126.5 36.5C127.1 36.5 127.5 37 127.5 37.5V42.6C127.5 44.1 128.3 44.5 129.4 44.5C130.5 44.5 131.4 43.9 131.9 43.3V37.5C131.9 36.9 132.4 36.5 133 36.5C133.6 36.5 134 37 134 37.5V45.3C134 45.9 133.6 46.4 133 46.4Z" fill="#04857E"/>
<path d="M139.3 46.5C137.7 46.5 136.8 45.6 136.8 44V38.5H136C135.5 38.5 135.1 38.1 135.1 37.5C135.1 37 135.5 36.6 136 36.6H136.8V34.9C136.8 34.3 137.3 33.8 137.9 33.8C138.5 33.8 138.9 34.3 138.9 34.9V36.6H140.1C140.6 36.6 141 37 141 37.6C141 38.1 140.6 38.5 140.1 38.5H139V43.5C139 44.2 139.4 44.6 139.9 44.6C140 44.6 140.2 44.5 140.3 44.5C140.9 44.5 141.2 44.9 141.2 45.4C141.3 46.1 140.7 46.5 139.3 46.5Z" fill="#04857E"/>
<path d="M146.7 46.5C143.6 46.5 141.7 44.2 141.7 41.4C141.7 38.6 143.6 36.3 146.7 36.3C149.8 36.3 151.7 38.6 151.7 41.4C151.7 44.2 149.8 46.5 146.7 46.5ZM146.7 38.3C144.9 38.3 143.9 39.8 143.9 41.5C143.9 43.2 144.9 44.7 146.7 44.7C148.5 44.7 149.4 43.2 149.4 41.5C149.5 39.8 148.5 38.3 146.7 38.3Z" fill="#04857E"/>
<path d="M157.7 38.6C156.8 38.7 156 39 155.5 39.8V45.4C155.5 46 155 46.5 154.4 46.5C153.8 46.5 153.4 46 153.4 45.4V37.6C153.4 37 153.9 36.6 154.5 36.6C155.1 36.6 155.5 37.1 155.5 37.6V38.1C156 37.4 156.8 36.6 157.8 36.6C158.4 36.6 158.7 37 158.7 37.5C158.7 38.1 158.3 38.5 157.7 38.6Z" fill="#04857E"/>
<path d="M159.3 46.5C158.5 46.5 157.9 45.8 157.9 45.1C157.9 44.3 158.5 43.7 159.3 43.7C160.1 43.7 160.7 44.3 160.7 45.1C160.8 45.9 160.1 46.5 159.3 46.5Z" fill="#04857E"/>
<path d="M170.1 45.5C169.4 46.1 168.4 46.6 167 46.6C164.1 46.6 162 44.5 162 41.5C162 38.6 164.1 36.4 167 36.4C168.5 36.4 169.7 36.9 170.3 37.7C170.4 37.8 170.4 38 170.4 38.1C170.4 38.7 169.9 39 169.4 39C169.2 39 169 38.9 168.8 38.8C168.3 38.4 167.7 38.2 167.1 38.2C165.4 38.2 164.2 39.5 164.2 41.4C164.2 43.3 165.4 44.6 167.1 44.6C167.7 44.6 168.3 44.4 168.8 44C169 43.9 169.2 43.8 169.4 43.8C169.9 43.8 170.4 44.2 170.4 44.7C170.4 45.1 170.3 45.3 170.1 45.5Z" fill="#04857E"/>
<path d="M176.2 46.6C173.1 46.6 171.2 44.3 171.2 41.5C171.2 38.7 173.1 36.4 176.2 36.4C179.3 36.4 181.2 38.7 181.2 41.5C181.2 44.3 179.3 46.6 176.2 46.6ZM176.2 38.3C174.4 38.3 173.4 39.8 173.4 41.5C173.4 43.2 174.4 44.7 176.2 44.7C178 44.7 178.9 43.2 178.9 41.5C179 39.8 178 38.3 176.2 38.3Z" fill="#04857E"/>
<path d="M195.5 46.4C194.9 46.4 194.4 45.9 194.4 45.3V40C194.4 39 194 38.3 192.8 38.3C191.9 38.3 191 39 190.6 39.6V45.4C190.6 46 190.1 46.5 189.5 46.5C188.9 46.5 188.4 46 188.4 45.4V40C188.4 39 187.9 38.3 186.8 38.3C185.9 38.3 185 39 184.6 39.6V45.4C184.6 46 184.1 46.5 183.5 46.5C182.9 46.5 182.4 46 182.4 45.4V37.6C182.4 37 182.9 36.6 183.5 36.6C184.1 36.6 184.5 37.1 184.5 37.6V38C184.9 37.4 186.2 36.4 187.6 36.4C189 36.4 189.9 37.1 190.2 38.2C190.8 37.3 192 36.4 193.5 36.4C195.3 36.4 196.3 37.4 196.3 39.3V45.3C196.6 46 196.1 46.4 195.5 46.4Z" fill="#04857E"/>
<path d="M72.9 46.5C72.2 46.5 71.7 46 71.7 45.3V36.4L67.8 46.1C67.7 46.3 67.5 46.5 67.1 46.5C66.8 46.5 66.6 46.3 66.5 46.1L62.6 36.4V45.3C62.6 45.9 62.1 46.5 61.4 46.5C60.8 46.5 60.2 46 60.2 45.3V34.5C60.2 33.7 60.9 33 61.7 33C62.7 32.9 63.6 33.2 64 34.1L67.1 41.8L70.3 34.1C70.6 33.4 71.2 33 72 33C73.1 32.9 74.1 33.4 74.1 34.5V45.3C74.1 46 73.6 46.5 72.9 46.5Z" fill="#04857E"/>
<path d="M84 42.4H77.6C77.7 43.8 78.8 45.1 80.6 45.1C81.3 45.1 82.1 44.9 82.8 44.5C82.9 44.4 83.1 44.4 83.2 44.4C83.6 44.4 84.1 44.8 84.1 45.3C84.1 46.4 81.6 46.9 80.4 46.9C77.5 46.9 75.3 44.9 75.3 41.8C75.3 39 77.3 36.7 80.2 36.7C82.5 36.7 84.1 38.1 84.7 40.1C84.8 40.5 84.9 41 84.9 41.4C85.1 41.9 84.6 42.4 84 42.4ZM80.3 38.3C78.5 38.3 77.7 39.7 77.6 40.9H83C83 39.8 82.2 38.3 80.3 38.3Z" fill="#04857E"/>
<path d="M94.6 42.3H88.2C88.3 43.7 89.4 45 91.2 45C91.9 45 92.7 44.8 93.4 44.4C93.5 44.3 93.7 44.3 93.8 44.3C94.2 44.3 94.7 44.7 94.7 45.2C94.7 46.3 92.2 46.8 91 46.8C88.1 46.8 85.9 44.8 85.9 41.7C85.9 38.9 87.9 36.6 90.8 36.6C93.1 36.6 94.7 38 95.3 40C95.4 40.4 95.5 40.9 95.5 41.3C95.6 41.9 95.2 42.3 94.6 42.3ZM90.9 38.3C89.1 38.3 88.3 39.7 88.2 40.9H93.6C93.5 39.7 92.8 38.3 90.9 38.3Z" fill="#04857E"/>
<path d="M100.3 46.7C98.7 46.7 97.8 45.8 97.8 44.2V38.7H97C96.5 38.7 96.1 38.3 96.1 37.7C96.1 37.2 96.5 36.8 97 36.8H97.8V35.1C97.8 34.5 98.3 34 98.9 34C99.5 34 99.9 34.5 99.9 35.1V36.8H101.1C101.6 36.8 102 37.2 102 37.8C102 38.3 101.6 38.7 101.1 38.7H99.9V43.7C99.9 44.4 100.3 44.8 100.8 44.8C100.9 44.8 101.1 44.7 101.2 44.7C101.8 44.7 102.1 45.1 102.1 45.6C102.2 46.3 101.6 46.7 100.3 46.7Z" fill="#04857E"/>
<path d="M114.8 46.6C114.3 46.6 113.8 46.3 113.6 45.8L113 44H106.9L106.2 45.9C106 46.4 105.5 46.7 105 46.7C104.2 46.7 103.7 46.1 103.7 45.4C103.7 45.3 103.7 45.1 103.8 45L108 34.4C108.3 33.6 109 33.1 109.9 33.1C110.8 33.1 111.6 33.6 111.9 34.4L116.1 45C116.1 45.1 116.2 45.3 116.2 45.4C116.1 45.9 115.6 46.6 114.8 46.6ZM109.9 35.5L107.5 41.8H112.2L109.9 35.5Z" fill="#04857E"/>
<path d="M25.1 0C19.8 0 14.5 0 9.2 0C3 0 0 3 0 9.3C0 17.6 0 26 0 34.4C0 36.5 0.3 38.5 0.6 40.6C2.7 51.7 13.9 61.6 28.1 59.8C40.8 58.2 50 48 50 35.2C50 26.3 50 17.4 50 8.5C50 3.2 46.9 0 41.7 0C36.2 0 30.6 0 25.1 0Z" fill="#04857E"/>
<path d="M25.1 19.3C25.2 19.3 25.3 19.3 25.4 19.4L42.7 26.2C43 26.3 42.9 26.6 42.7 26.6L41.4 27.1V31.4C41.7 31.6 42 32 42 32.4C42 32.8 41.8 33.1 41.5 33.3L41.8 40.2H39.9L40.2 33.3C39.9 33.1 39.7 32.8 39.7 32.4C39.7 32 39.9 31.6 40.3 31.4V27.5L36.5 29C36.5 30.8 36.5 33.3 36.5 33.9C36.5 34.5 36.4 34.5 36.4 34.6C36.4 34.8 36.3 34.8 36.2 34.8C36.1 34.8 35.8 34.6 35.4 34.4C34.4 34 33.3 33.9 32.1 33.9C28.2 33.9 25.4 35.7 24.7 35.7C24.1 35.7 21.5 34 17.4 34C16.2 34 15.1 34.1 14 34.6C13.7 34.7 13.5 34.8 13.4 34.8C13.4 34.8 13.3 34.6 13.3 34.5C13.3 34.4 13.3 34.5 13.3 34.2C13.3 34 13.3 30.9 13.3 28.9L6.99999 26.6C6.69999 26.5 6.79999 26.2 6.99999 26.1L24.7 19.3C24.8 19.3 25 19.3 25.1 19.3ZM25.1 17.9C24.8 17.9 24.5 18 24.2 18.1L6.49999 24.9C5.89999 25.2 5.39999 25.7 5.39999 26.4C5.39999 27.1 5.79999 27.6 6.39999 27.9C6.39999 27.9 6.39999 27.9 6.49999 27.9L11.9 30V34.3C11.9 34.5 11.9 34.7 11.9 34.8V35C11.9 35.8 12.5 36.4 13.3 36.4C13.7 36.4 14 36.2 14.4 36.1C14.5 36.1 14.5 36 14.6 36C15.5 35.6 16.2 35.5 17.4 35.5C19.9 35.5 21.9 36.3 23.1 36.8C23.8 37.1 24.2 37.3 24.7 37.3C25.2 37.3 25.7 37.1 26.4 36.8C27.7 36.3 29.7 35.5 32.1 35.5C33.3 35.5 34.1 35.6 34.8 35.9C34.9 36 35.1 36 35.2 36.1C35.6 36.3 36 36.5 36.4 36.5C37.2 36.5 37.8 35.9 37.8 35.1V34.9C37.8 34.7 37.8 34.5 37.8 34.1V30.1L38.8 29.7V30.9C38.4 31.3 38.2 31.9 38.2 32.5C38.2 33 38.4 33.5 38.7 33.9L38.4 40.2C38.4 40.6 38.5 41 38.8 41.2C39.1 41.5 39.4 41.6 39.8 41.6H41.7C42.1 41.6 42.4 41.4 42.7 41.2C43 40.9 43.1 40.6 43.1 40.2L42.8 33.9C43.1 33.5 43.2 33 43.2 32.5C43.2 31.9 43 31.4 42.6 30.9V28.2L43 28C43.6 27.8 44.1 27.2 44.1 26.5C44.1 25.8 43.7 25.2 43 24.9L41.7 24.4L41.3 24.2L25.7 18C25.6 17.9 25.4 17.9 25.1 17.9Z" fill="white"/>
<path d="M40.8 31.3C41 31.3 41.2 31.4 41.4 31.5V25.7L40.3 25.3V31.5C40.4 31.4 40.6 31.3 40.8 31.3Z" fill="#04857E"/>
<path d="M41.9 32.4C41.9 31.8 41.4 31.3 40.8 31.3C40.2 31.3 39.7 31.8 39.7 32.4C39.7 32.8 39.9 33.1 40.2 33.3L39.9 40.2H41.8L41.5 33.3C41.7 33.1 41.9 32.8 41.9 32.4Z" fill="#04857E"/>
<path d="M42.6 26.2L41.3 25.7V27.2L42.6 26.7C42.9 26.6 42.9 26.3 42.6 26.2Z" fill="#024F4B"/>
<path d="M17.4 34.1C21.4 34.1 24.1 35.8 24.7 35.8C25.4 35.8 28.3 34 32.1 34C33.3 34 34.3 34.1 35.4 34.5C36.2 34.9 36.4 35.3 36.4 33.9C36.4 32.9 36.4 27.1 36.4 27.1C36.4 27.1 32.4 25.2 24.9 25.2C17.4 25.2 13.3 27.1 13.3 27.1C13.3 27.1 13.3 33.8 13.3 34.2C13.3 34.9 13.4 34.9 14 34.6C15.2 34.3 16.2 34.1 17.4 34.1Z" fill="#024F4B"/>
<path d="M25.4 19.4C25.2 19.3 25 19.3 24.8 19.4L6.99999 26.2C6.79999 26.3 6.69999 26.5 6.99999 26.7L13.3 29.1C13.3 28.1 13.3 27.3 13.3 27.3C13.3 27.3 17.3 25.4 24.9 25.4C32.5 25.4 36.4 27.3 36.4 27.3C36.4 27.3 36.4 28.1 36.4 29.2L40.2 27.7V25.3L25.4 19.4Z" fill="#024F4B"/>
<path d="M65 16.9C66.1 16.9 66.7 17.5 67 18.3L69.3 17.5C68.6 15.7 67.3 14.6 64.9 14.6C62 14.6 60.1 16.8 60.1 19.9C60.1 23 62.1 25.2 64.9 25.2C67.2 25.2 68.6 24.1 69.2 22.3L66.9 21.5C66.6 22.3 66 22.9 64.9 22.9C63.5 22.9 62.7 21.7 62.7 19.9C62.8 18.1 63.6 16.9 65 16.9Z" fill="white"/>
<path d="M77.1 23.2C76.9 23.2 76.8 23 76.8 22.8V20C76.8 18.5 76 17.4 73.7 17.4C71.5 17.4 70.8 18.3 70.4 19.3L72.3 20C72.6 19.5 72.9 19.2 73.5 19.2C74.1 19.2 74.4 19.4 74.4 19.9C74.4 20.6 72.9 20.6 72.1 20.7C71.1 20.8 69.7 21.3 69.7 23C69.7 24.4 70.7 25.2 72 25.2C72.8 25.2 73.8 24.9 74.5 24.3C74.6 25 75.1 25.2 75.7 25.2C76.4 25.2 77.1 25 77.5 24.8V23.2C77.4 23.2 77.2 23.2 77.1 23.2ZM74.5 23.1C74.1 23.3 73.7 23.5 73.4 23.5C72.9 23.6 72.4 23.4 72.4 22.8C72.4 22.3 72.7 21.9 73.5 21.8C73.8 21.8 74.2 21.7 74.5 21.6V23.1Z" fill="white"/>
<path d="M80.9 18.6C80.8 17.7 80.1 17.5 79.5 17.5C78.8 17.5 78.1 17.7 77.7 17.9V19.6C77.9 19.6 78.1 19.5 78.2 19.6C78.4 19.6 78.5 19.8 78.5 20V25H81V20.5C81.2 20.2 81.5 19.9 82.1 19.8C82.5 19.8 82.8 19.9 83.1 20L83.9 17.8C83 17.3 81.5 17.3 80.9 18.6Z" fill="white"/>
<path d="M87.3 17.5C85.5 17.5 83.6 18.7 83.6 21.4C83.6 23.8 85.2 25.3 87.3 25.3C88.9 25.3 90.2 24.5 90.9 23L89 22.3C88.7 23 88.1 23.3 87.4 23.3C86.8 23.3 86.3 23.1 86.1 22.6L91.1 21.4C91 18.8 89.2 17.5 87.3 17.5ZM85.7 20.9C85.8 20 86.4 19.5 87.1 19.4C87.7 19.3 88.3 19.6 88.6 20.2L85.7 20.9Z" fill="white"/>
<path d="M98.2 22.7C97.8 22.8 97.2 22.8 96.9 22.8C95.4 22.8 94.3 21.8 94.3 19.9C94.3 18 95.4 16.9 96.9 16.9C97.7 16.9 98.4 17.2 99 17.9L100.6 16.2C99.6 15 98.2 14.5 96.8 14.5C93.9 14.5 91.6 16.5 91.6 19.9C91.6 23.1 93.8 25.1 96.7 25.1C98.1 25.1 99.7 24.7 100.6 23.9V20.1H98.1L98.2 22.7Z" fill="white"/>
<path d="M109 23.1C108.8 23.1 108.7 22.9 108.7 22.7V17.8H106.3V22.6C106 22.9 105.5 23.1 105.1 23.1C104 23.1 103.9 22.3 103.9 21.3V17.7H101.5V22.5C101.5 24.4 102.6 25.2 103.9 25.2C104.8 25.2 105.8 24.8 106.4 24C106.5 24.8 107.1 25.1 107.8 25.1C108.5 25.1 109.2 24.9 109.6 24.7V23C109.3 23.1 109.1 23.1 109 23.1Z" fill="white"/>
<path d="M111.7 17.6C111 17.6 110.3 17.8 109.9 18V19.7C110.1 19.7 110.3 19.6 110.4 19.7C110.6 19.7 110.7 19.9 110.7 20.1V25H113.1V19C113.1 17.9 112.4 17.6 111.7 17.6Z" fill="white"/>
<path d="M121.8 23.1C121.6 23.1 121.5 22.9 121.5 22.7V14.3H119.1V18.2C118.6 17.8 118 17.5 117.2 17.5C115.2 17.5 113.8 19.2 113.8 21.4C113.8 23.6 115.2 25.3 117.2 25.3C118.2 25.3 118.9 24.9 119.5 24.3C119.6 25 120 25.3 120.6 25.3C121.3 25.3 122 25.1 122.4 24.9V23.2C122.1 23.1 122 23.1 121.8 23.1ZM119.2 21.7C119.2 22.4 118.5 23 117.6 23C116.7 23 116.1 22.4 116.1 21.2C116.1 20.1 116.7 19.5 117.6 19.5C118.2 19.5 119 19.9 119.3 20.4V21.7H119.2Z" fill="white"/>
<path d="M126.4 23.2C125.8 23.2 125.3 23 125.1 22.5L130.1 21.3C130.1 18.7 128.3 17.4 126.5 17.4C124.7 17.4 122.8 18.6 122.8 21.3C122.8 23.7 124.4 25.2 126.5 25.2C128.1 25.2 129.4 24.4 130.1 22.9L128.2 22.2C127.7 22.9 127.1 23.2 126.4 23.2ZM126.3 19.4C126.9 19.3 127.5 19.6 127.8 20.2L124.9 20.9C124.9 20 125.6 19.5 126.3 19.4Z" fill="white"/>
<path d="M112.4 13.9C112.1 13.9 111.8 14.1 111.7 14.3C111.5 14.1 111.3 13.9 111 13.9C110.5 13.9 110.1 14.3 110.1 14.8C110.1 14.9 110.1 15 110.1 15.1C110.3 15.9 111.6 16.8 111.6 16.9C111.6 16.9 112.9 16 113.1 15.1C113.1 15 113.1 14.9 113.1 14.8C113.3 14.2 112.9 13.9 112.4 13.9Z" fill="white"/>
</svg>
